<svg width="1325" height="417" viewBox="0 0 1325 417" fill="none" xmlns="http://www.w3.org/2000/svg">
<path d="M0 50.4667L28 35.2533C56 19.6667 112 -10.2 168 4.73334C224 19.6667 280 81.2667 336 111.413C392 141.933 448 141.933 504 141.933C560 141.933 616 141.933 672 141.933C728 141.933 784 141.933 840 180.013C896 218.467 952 294.067 1008 332.52C1064 370.6 1120 370.6 1176 317.213C1232 264.2 1288 156.867 1344 134.28C1400 111.133 1456 172.733 1512 195.32C1568 218.467 1624 202.6 1680 157.147C1736 111.133 1792 35.5333 1848 65.68C1904 96.2 1960 233.4 2016 248.613C2072 264.2 2128 156.867 2184 141.933C2240 127 2296 202.6 2352 195.32C2408 187.667 2464 96.2 2520 73.3333C2576 50.4667 2632 96.2 2688 134.28C2744 172.733 2800 202.6 2856 218.187C2912 233.4 2968 233.4 3024 256.267C3080 279.133 3136 324.867 3192 324.867C3248 324.867 3304 279.133 3360 233.4C3416 187.667 3472 141.933 3528 103.853C3584 65.4 3640 35.5333 3696 65.68C3752 96.2 3808 187.667 3864 210.533C3920 233.4 3976 187.667 4004 164.8L4032 141.933V416.333H4004C3976 416.333 3920 416.333 3864 416.333C3808 416.333 3752 416.333 3696 416.333C3640 416.333 3584 416.333 3528 416.333C3472 416.333 3416 416.333 3360 416.333C3304 416.333 3248 416.333 3192 416.333C3136 416.333 3080 416.333 3024 416.333C2968 416.333 2912 416.333 2856 416.333C2800 416.333 2744 416.333 2688 416.333C2632 416.333 2576 416.333 2520 416.333C2464 416.333 2408 416.333 2352 416.333C2296 416.333 2240 416.333 2184 416.333C2128 416.333 2072 416.333 2016 416.333C1960 416.333 1904 416.333 1848 416.333C1792 416.333 1736 416.333 1680 416.333C1624 416.333 1568 416.333 1512 416.333C1456 416.333 1400 416.333 1344 416.333C1288 416.333 1232 416.333 1176 416.333C1120 416.333 1064 416.333 1008 416.333C952 416.333 896 416.333 840 416.333C784 416.333 728 416.333 672 416.333C616 416.333 560 416.333 504 416.333C448 416.333 392 416.333 336 416.333C280 416.333 224 416.333 168 416.333C112 416.333 56 416.333 28 416.333H0V50.4667Z" fill="url(#paint0_linear_10_5879)"/>
<defs>
<linearGradient id="paint0_linear_10_5879" x1="0" y1="416.333" x2="0" y2="0.667908" gradientUnits="userSpaceOnUse">
<stop stop-color="#205FDA"/>
<stop offset="1" stop-color="#2C33AE"/>
</linearGradient>
</defs>
</svg>
