<svg width="55" height="55" viewBox="0 0 55 55" fill="none" xmlns="http://www.w3.org/2000/svg">
<g filter="url(#filter0_bdi_9_4714)">
<g clip-path="url(#clip0_9_4714)">
<rect x="6" y="9" width="32" height="32" rx="8" fill="url(#paint0_linear_9_4714)" fill-opacity="0.04" shape-rendering="crispEdges"/>
<g style="mix-blend-mode:plus-lighter" opacity="0.5" filter="url(#filter1_f_9_4714)">
<path d="M12.6667 22.0665C12.6667 19.8263 12.6667 18.7062 13.1026 17.8505C13.4861 17.0979 14.0981 16.486 14.8507 16.1025C15.7064 15.6665 16.8265 15.6665 19.0667 15.6665H24.9333C27.1735 15.6665 28.2937 15.6665 29.1493 16.1025C29.9019 16.486 30.5139 17.0979 30.8974 17.8505C31.3333 18.7062 31.3333 19.8263 31.3333 22.0665V27.9332C31.3333 30.1734 31.3333 31.2935 30.8974 32.1491C30.5139 32.9018 29.9019 33.5137 29.1493 33.8972C28.2937 34.3332 27.1735 34.3332 24.9333 34.3332H19.0667C16.8265 34.3332 15.7064 34.3332 14.8507 33.8972C14.0981 33.5137 13.4861 32.9018 13.1026 32.1491C12.6667 31.2935 12.6667 30.1734 12.6667 27.9332V22.0665Z" fill="url(#paint1_linear_9_4714)"/>
<path d="M27.5168 21.0176C26.5077 20.1643 25.2966 19.7376 24.0184 19.6665L23.8165 19.8798C24.9603 20.1643 25.9694 20.7332 26.9113 21.5154C25.7676 20.8754 24.4893 20.4487 23.1437 20.3065C22.7401 20.2354 22.4037 20.2354 22 20.2354C21.5963 20.2354 21.2599 20.2354 20.8563 20.3065C19.5107 20.4487 18.2324 20.8754 17.0887 21.5154C18.0306 20.7332 19.0398 20.1643 20.1835 19.8798L19.9817 19.6665C18.7034 19.7376 17.4924 20.1643 16.4832 21.0176C15.3395 23.2932 14.734 25.8532 14.6667 28.4843C15.6758 29.6221 17.0887 30.3332 18.5688 30.3332C18.5688 30.3332 19.0398 29.7643 19.3762 29.2665C18.5015 29.0532 17.6942 28.5554 17.156 27.7732C17.6269 28.0576 18.0979 28.3421 18.5688 28.5554C19.1743 28.8398 19.7798 28.9821 20.3853 29.1243C20.9236 29.1954 21.4618 29.2665 22 29.2665C22.5382 29.2665 23.0765 29.1954 23.6147 29.1243C24.2202 28.9821 24.8257 28.8398 25.4312 28.5554C25.9021 28.3421 26.3731 28.0576 26.844 27.7732C26.3058 28.5554 25.4985 29.0532 24.6239 29.2665C24.9602 29.7643 25.4312 30.3332 25.4312 30.3332C26.9113 30.3332 28.3242 29.6221 29.3333 28.4843C29.2661 25.8532 28.6606 23.2932 27.5168 21.0176ZM19.7798 27.2043C19.107 27.2043 18.5015 26.5643 18.5015 25.7821C18.5015 24.9998 19.107 24.3598 19.7798 24.3598C20.4526 24.3598 21.0581 24.9998 21.0581 25.7821C21.0581 26.5643 20.4526 27.2043 19.7798 27.2043ZM24.2202 27.2043C23.5474 27.2043 22.9419 26.5643 22.9419 25.7821C22.9419 24.9998 23.5474 24.3598 24.2202 24.3598C24.893 24.3598 25.4985 24.9998 25.4985 25.7821C25.4985 26.5643 24.893 27.2043 24.2202 27.2043Z" fill="white"/>
</g>
<path d="M12.6667 22.0665C12.6667 19.8263 12.6667 18.7062 13.1026 17.8505C13.4861 17.0979 14.0981 16.486 14.8507 16.1025C15.7064 15.6665 16.8265 15.6665 19.0667 15.6665H24.9333C27.1735 15.6665 28.2937 15.6665 29.1493 16.1025C29.9019 16.486 30.5139 17.0979 30.8974 17.8505C31.3333 18.7062 31.3333 19.8263 31.3333 22.0665V27.9332C31.3333 30.1734 31.3333 31.2935 30.8974 32.1491C30.5139 32.9018 29.9019 33.5137 29.1493 33.8972C28.2937 34.3332 27.1735 34.3332 24.9333 34.3332H19.0667C16.8265 34.3332 15.7064 34.3332 14.8507 33.8972C14.0981 33.5137 13.4861 32.9018 13.1026 32.1491C12.6667 31.2935 12.6667 30.1734 12.6667 27.9332V22.0665Z" fill="url(#paint2_linear_9_4714)"/>
<path d="M27.5168 21.0176C26.5077 20.1643 25.2966 19.7376 24.0184 19.6665L23.8165 19.8798C24.9603 20.1643 25.9694 20.7332 26.9113 21.5154C25.7676 20.8754 24.4893 20.4487 23.1437 20.3065C22.7401 20.2354 22.4037 20.2354 22 20.2354C21.5963 20.2354 21.2599 20.2354 20.8563 20.3065C19.5107 20.4487 18.2324 20.8754 17.0887 21.5154C18.0306 20.7332 19.0398 20.1643 20.1835 19.8798L19.9817 19.6665C18.7034 19.7376 17.4924 20.1643 16.4832 21.0176C15.3395 23.2932 14.734 25.8532 14.6667 28.4843C15.6758 29.6221 17.0887 30.3332 18.5688 30.3332C18.5688 30.3332 19.0398 29.7643 19.3762 29.2665C18.5015 29.0532 17.6942 28.5554 17.156 27.7732C17.6269 28.0576 18.0979 28.3421 18.5688 28.5554C19.1743 28.8398 19.7798 28.9821 20.3853 29.1243C20.9236 29.1954 21.4618 29.2665 22 29.2665C22.5382 29.2665 23.0765 29.1954 23.6147 29.1243C24.2202 28.9821 24.8257 28.8398 25.4312 28.5554C25.9021 28.3421 26.3731 28.0576 26.844 27.7732C26.3058 28.5554 25.4985 29.0532 24.6239 29.2665C24.9602 29.7643 25.4312 30.3332 25.4312 30.3332C26.9113 30.3332 28.3242 29.6221 29.3333 28.4843C29.2661 25.8532 28.6606 23.2932 27.5168 21.0176ZM19.7798 27.2043C19.107 27.2043 18.5015 26.5643 18.5015 25.7821C18.5015 24.9998 19.107 24.3598 19.7798 24.3598C20.4526 24.3598 21.0581 24.9998 21.0581 25.7821C21.0581 26.5643 20.4526 27.2043 19.7798 27.2043ZM24.2202 27.2043C23.5474 27.2043 22.9419 26.5643 22.9419 25.7821C22.9419 24.9998 23.5474 24.3598 24.2202 24.3598C24.893 24.3598 25.4985 24.9998 25.4985 25.7821C25.4985 26.5643 24.893 27.2043 24.2202 27.2043Z" fill="white"/>
<g filter="url(#filter2_f_9_4714)">
<ellipse cx="22.3333" cy="40.6666" rx="7.66667" ry="4.33333" fill="#6980C9"/>
</g>
</g>
<rect x="6" y="9" width="32" height="32" rx="8" stroke="url(#paint3_linear_9_4714)" stroke-opacity="0.5" stroke-width="0.533333" shape-rendering="crispEdges"/>
</g>
<defs>
<filter id="filter0_bdi_9_4714" x="-7.6" y="-4.59993" width="61.8667" height="59.1999" filterUnits="userSpaceOnUse" color-interpolation-filters="sRGB">
<feFlood flood-opacity="0" result="BackgroundImageFix"/>
<feGaussianBlur in="BackgroundImageFix" stdDeviation="6.66667"/>
<feComposite in2="SourceAlpha" operator="in" result="effect1_backgroundBlur_9_4714"/>
<feColorMatrix in="SourceAlpha" type="matrix" values="0 0 0 0 0 0 0 0 0 0 0 0 0 0 0 0 0 0 127 0" result="hardAlpha"/>
<feOffset dx="5.33333" dy="2.66667"/>
<feGaussianBlur stdDeviation="5.33333"/>
<feComposite in2="hardAlpha" operator="out"/>
<feColorMatrix type="matrix" values="0 0 0 0 0 0 0 0 0 0 0 0 0 0 0 0 0 0 0.08 0"/>
<feBlend mode="normal" in2="effect1_backgroundBlur_9_4714" result="effect2_dropShadow_9_4714"/>
<feBlend mode="normal" in="SourceGraphic" in2="effect2_dropShadow_9_4714" result="shape"/>
<feColorMatrix in="SourceAlpha" type="matrix" values="0 0 0 0 0 0 0 0 0 0 0 0 0 0 0 0 0 0 127 0" result="hardAlpha"/>
<feOffset/>
<feGaussianBlur stdDeviation="2.66667"/>
<feComposite in2="hardAlpha" operator="arithmetic" k2="-1" k3="1"/>
<feColorMatrix type="matrix" values="0 0 0 0 0.411765 0 0 0 0 0.501961 0 0 0 0 0.788235 0 0 0 0.32 0"/>
<feBlend mode="normal" in2="shape" result="effect3_innerShadow_9_4714"/>
</filter>
<filter id="filter1_f_9_4714" x="3.33333" y="6.33325" width="37.3333" height="37.3333" filterUnits="userSpaceOnUse" color-interpolation-filters="sRGB">
<feFlood flood-opacity="0" result="BackgroundImageFix"/>
<feBlend mode="normal" in="SourceGraphic" in2="BackgroundImageFix" result="shape"/>
<feGaussianBlur stdDeviation="4" result="effect1_foregroundBlur_9_4714"/>
</filter>
<filter id="filter2_f_9_4714" x="2.66667" y="24.3333" width="39.3333" height="32.6667" filterUnits="userSpaceOnUse" color-interpolation-filters="sRGB">
<feFlood flood-opacity="0" result="BackgroundImageFix"/>
<feBlend mode="normal" in="SourceGraphic" in2="BackgroundImageFix" result="shape"/>
<feGaussianBlur stdDeviation="6" result="effect1_foregroundBlur_9_4714"/>
</filter>
<linearGradient id="paint0_linear_9_4714" x1="6" y1="9" x2="38" y2="41" gradientUnits="userSpaceOnUse">
<stop stop-color="#F8FBFF"/>
<stop offset="1" stop-color="white" stop-opacity="0"/>
</linearGradient>
<linearGradient id="paint1_linear_9_4714" x1="22" y1="15.6665" x2="22" y2="34.3332" gradientUnits="userSpaceOnUse">
<stop stop-color="#687EC9"/>
<stop offset="1" stop-color="#5971C3"/>
</linearGradient>
<linearGradient id="paint2_linear_9_4714" x1="22" y1="15.6665" x2="22" y2="34.3332" gradientUnits="userSpaceOnUse">
<stop stop-color="#687EC9"/>
<stop offset="1" stop-color="#5971C3"/>
</linearGradient>
<linearGradient id="paint3_linear_9_4714" x1="6.66667" y1="8.33333" x2="37" y2="41" gradientUnits="userSpaceOnUse">
<stop stop-color="#D8D8D8" stop-opacity="0.05"/>
<stop offset="1" stop-color="white" stop-opacity="0.4"/>
</linearGradient>
<clipPath id="clip0_9_4714">
<rect x="6" y="9" width="32" height="32" rx="8" fill="white"/>
</clipPath>
</defs>
</svg>
