<svg width="90" height="90" viewBox="0 0 90 90" fill="none" xmlns="http://www.w3.org/2000/svg">
<g filter="url(#filter0_bdi_33_76)">
<g clip-path="url(#clip0_33_76)">
<rect x="9" y="13" width="56" height="56" rx="12" fill="url(#paint0_linear_33_76)" fill-opacity="0.04" shape-rendering="crispEdges"/>
<path fill-rule="evenodd" clip-rule="evenodd" d="M40.0625 36.875H43.5938V40.4688H45.375C46.1875 40.4688 47.0313 40.3125 47.8125 40.0625C48.1875 39.9375 48.625 39.75 49 39.5312C48.5 38.875 48.25 38.0625 48.1875 37.25C48.0938 36.1563 48.3125 34.7188 49.0625 33.875L49.4375 33.4375L49.875 33.7813C51 34.6875 51.9063 35.9063 52.0938 37.3438C53.4375 36.9375 55 37.0313 56.1875 37.7188L56.6563 38L56.4063 38.5C55.4063 40.4375 53.3125 41.0625 51.2813 40.9375C48.2188 48.5312 41.5938 52.125 33.5313 52.125C29.375 52.125 25.5625 50.5625 23.375 46.875L23.3438 46.8125L23.0313 46.1563C22.2813 44.5313 22.0625 42.75 22.2188 40.9688L22.2813 40.4375H25.2813V36.875H28.8125V33.375H35.8438V29.8438H40.0625V36.875Z" fill="#3A4D54"/>
<path d="M51.5 38.2187C51.75 36.375 50.375 34.9375 49.5 34.25C48.5312 35.375 48.375 38.375 49.9062 39.625C49.0312 40.375 47.25 41.0938 45.375 41.0938H22.8125C22.625 43.0313 22.9687 44.8125 23.75 46.3437L24 46.8125C24.1562 47.0937 24.3437 47.3437 24.5312 47.625C25.4687 47.6875 26.3125 47.7188 27.0937 47.6875C28.625 47.6562 29.875 47.4687 30.8437 47.1562C31 47.0937 31.125 47.1875 31.1875 47.3125C31.25 47.4687 31.1562 47.5938 31.0312 47.6563C30.9062 47.6875 30.7812 47.75 30.625 47.7812C29.875 48 29.0625 48.125 28.0312 48.1875H27.8437C27.4375 48.2187 27 48.2187 26.5312 48.2187C26.0312 48.2187 25.5625 48.2187 25 48.1875C26.875 50.3125 29.8125 51.5625 33.5 51.5625C41.3125 51.5625 47.9375 48.0937 50.8437 40.3438C52.9375 40.5625 54.9375 40.0312 55.8437 38.25C54.4375 37.4062 52.5625 37.6875 51.5 38.2187Z" fill="#00AADA"/>
<path d="M51.5 38.2187C51.75 36.375 50.375 34.9375 49.5 34.25C48.5312 35.375 48.375 38.375 49.9062 39.625C49.0312 40.375 47.25 41.0938 45.375 41.0938H24.125C24.0312 44.0625 25.125 46.3125 27.0937 47.6563C28.625 47.625 29.875 47.4375 30.8437 47.125C31 47.0625 31.125 47.1562 31.1875 47.2812C31.25 47.4375 31.1562 47.5625 31.0312 47.625C30.9062 47.6562 30.7812 47.7187 30.625 47.75C29.875 47.9687 29 48.125 27.9687 48.1875L27.9375 48.1562C30.5937 49.5313 34.4375 49.5 38.875 47.8125C43.8125 45.9063 48.4375 42.2812 51.6562 38.1562C51.5937 38.1875 51.5312 38.1875 51.5 38.2187Z" fill="#28B8EB"/>
<path d="M22.8438 43.4375C22.9688 44.4688 23.2812 45.4375 23.75 46.3437L24 46.8125C24.1562 47.0937 24.3437 47.3437 24.5312 47.625C25.4687 47.6875 26.3125 47.7187 27.0937 47.6875C28.625 47.6562 29.875 47.4687 30.8437 47.1562C31 47.0937 31.125 47.1875 31.1875 47.3125C31.25 47.4687 31.1563 47.5938 31.0313 47.6563C30.9063 47.6875 30.7812 47.75 30.625 47.7812C29.875 48 29 48.1562 27.9687 48.2187H27.8438C27.4375 48.25 27 48.25 26.5625 48.25C26.0625 48.25 25.5625 48.25 25.0312 48.2187C26.9062 50.3437 29.875 51.5938 33.5625 51.5938C40.25 51.5938 46.0625 49.0625 49.4375 43.4687H22.8438V43.4375Z" fill="#028BB8"/>
<path d="M24.3438 43.4375C24.75 45.25 25.6875 46.6875 27.0937 47.6562C28.625 47.625 29.875 47.4375 30.8437 47.125C31 47.0625 31.125 47.1562 31.1875 47.2812C31.25 47.4375 31.1563 47.5625 31.0313 47.625C30.9063 47.6562 30.7812 47.7187 30.625 47.75C29.875 47.9687 29 48.125 27.9375 48.1875C30.5938 49.5625 34.4375 49.5312 38.8438 47.8437C41.5 46.8125 44.0937 45.2813 46.4062 43.4375H24.3438Z" fill="#019BC6"/>
<path fill-rule="evenodd" clip-rule="evenodd" d="M25.875 37.4688H28.9375V40.5312H25.875V37.4688ZM26.125 37.7188H26.375V40.25H26.125V37.7188ZM26.5625 37.7188H26.8125V40.25H26.5625V37.7188ZM27.0312 37.7188H27.2813V40.25H27.0312V37.7188ZM27.5 37.7188H27.75V40.25H27.5V37.7188ZM27.9687 37.7188H28.2188V40.25H27.9687V37.7188ZM28.4375 37.7188H28.6875V40.25H28.4375V37.7188ZM29.375 33.9688H32.4375V37.0312H29.375V33.9688ZM29.6563 34.2187H29.9062V36.75H29.6563V34.2187ZM30.0938 34.2187H30.3438V36.75H30.0938V34.2187ZM30.5625 34.2187H30.8125V36.75H30.5625V34.2187ZM31.0313 34.2187H31.2813V36.75H31.0313V34.2187ZM31.4687 34.2187H31.7187V36.75H31.4687V34.2187ZM31.9375 34.2187H32.1875V36.75H31.9375V34.2187Z" fill="#00ACD3"/>
<path fill-rule="evenodd" clip-rule="evenodd" d="M29.375 37.4688H32.4375V40.5312H29.375V37.4688ZM29.6563 37.7187H29.9063V40.25H29.6563V37.7187ZM30.0938 37.7187H30.3438V40.25H30.0938V37.7187ZM30.5625 37.7187H30.8125V40.25H30.5625V37.7187ZM31.0313 37.7187H31.2813V40.25H31.0313V37.7187ZM31.4688 37.7187H31.7188V40.25H31.4688V37.7187ZM31.9375 37.7187H32.1875V40.25H31.9375V37.7187Z" fill="#23C2EE"/>
<path fill-rule="evenodd" clip-rule="evenodd" d="M32.9062 37.4688H35.9687V40.5312H32.9062V37.4688ZM33.1562 37.7187H33.4062V40.25H33.1562V37.7187ZM33.625 37.7187H33.875V40.25H33.625V37.7187ZM34.0937 37.7187H34.3437V40.25H34.0937V37.7187ZM34.5312 37.7187H34.7812V40.25H34.5312V37.7187ZM35 37.7187H35.25V40.25H35V37.7187ZM35.4687 37.7187H35.7188V40.25H35.4687V37.7187Z" fill="#00ACD3"/>
<path fill-rule="evenodd" clip-rule="evenodd" d="M32.9062 33.9688H35.9687V37.0312H32.9062V33.9688ZM33.1562 34.2187H33.4062V36.75H33.1562V34.2187ZM33.625 34.2187H33.875V36.75H33.625V34.2187ZM34.0937 34.2187H34.3437V36.75H34.0937V34.2187ZM34.5312 34.2187H34.7812V36.75H34.5312V34.2187ZM35 34.2187H35.25V36.75H35V34.2187ZM35.4687 34.2187H35.7188V36.75H35.4687V34.2187ZM36.4375 37.4688H39.5V40.5312H36.4375V37.4688ZM36.6875 37.7188H36.9375V40.25H36.6875V37.7188ZM37.1562 37.7188H37.4063V40.25H37.1562V37.7188ZM37.5938 37.7188H37.8437V40.25H37.5938V37.7188ZM38.0625 37.7188H38.3125V40.25H38.0625V37.7188ZM38.5312 37.7188H38.7812V40.25H38.5312V37.7188ZM39 37.7188H39.25V40.25H39V37.7188Z" fill="#23C2EE"/>
<path fill-rule="evenodd" clip-rule="evenodd" d="M36.4375 33.9688H39.5V37.0312H36.4375V33.9688ZM36.6875 34.2187H36.9375V36.75H36.6875V34.2187ZM37.1562 34.2187H37.4063V36.75H37.1562V34.2187ZM37.5938 34.2187H37.8437V36.75H37.5938V34.2187ZM38.0625 34.2187H38.3125V36.75H38.0625V34.2187ZM38.5313 34.2187H38.7812V36.75H38.5313V34.2187ZM39 34.2187H39.25V36.75H39V34.2187Z" fill="#00ACD3"/>
<path fill-rule="evenodd" clip-rule="evenodd" d="M36.4375 30.4375H39.5V33.5H36.4375V30.4375ZM36.6875 30.6875H36.9375V33.2187H36.6875V30.6875ZM37.1562 30.6875H37.4063V33.2187H37.1562V30.6875ZM37.5938 30.6875H37.8437V33.2187H37.5938V30.6875ZM38.0625 30.6875H38.3125V33.2187H38.0625V30.6875ZM38.5313 30.6875H38.7812V33.2187H38.5313V30.6875ZM39 30.6875H39.25V33.2187H39V30.6875Z" fill="#23C2EE"/>
<path fill-rule="evenodd" clip-rule="evenodd" d="M39.9688 37.4688H43.0313V40.5312H39.9688V37.4688ZM40.2188 37.7187H40.4687V40.25H40.2188V37.7187ZM40.6562 37.7187H40.9062V40.25H40.6562V37.7187ZM41.125 37.7187H41.375V40.25H41.125V37.7187ZM41.5937 37.7187H41.8438V40.25H41.5937V37.7187ZM42.0625 37.7187H42.3125V40.25H42.0625V37.7187ZM42.5312 37.7187H42.7812V40.25H42.5312V37.7187Z" fill="#00ACD3"/>
<path fill-rule="evenodd" clip-rule="evenodd" d="M32.25 45.4688C32.7188 45.4688 33.0938 45.8437 33.0938 46.3125C33.0938 46.7812 32.7188 47.1562 32.25 47.1562C31.7813 47.1562 31.4062 46.7812 31.4062 46.3125C31.4062 45.8437 31.7813 45.4688 32.25 45.4688Z" fill="#D4EEF1"/>
<path fill-rule="evenodd" clip-rule="evenodd" d="M32.25 45.7188C32.3125 45.7188 32.4063 45.7187 32.4688 45.75C32.4063 45.7812 32.3438 45.875 32.3438 45.9688C32.3438 46.0938 32.4688 46.2187 32.5938 46.2187C32.6875 46.2187 32.7812 46.1563 32.8125 46.0938C32.8438 46.1563 32.8438 46.25 32.8438 46.3125C32.8438 46.6563 32.5625 46.9063 32.25 46.9063C31.9063 46.9063 31.6563 46.625 31.6563 46.3125C31.6563 46 31.9063 45.7188 32.25 45.7188ZM17.3438 43.75H56.5313C55.6875 43.5313 53.8438 43.25 54.125 42.125C52.5625 43.9062 48.8438 43.375 47.875 42.5C46.8125 44.0313 40.6875 43.4375 40.2813 42.25C38.9688 43.8125 34.875 43.8125 33.5625 42.25C33.125 43.4375 27 44.0313 25.9688 42.5C25.0313 43.375 21.2812 43.9062 19.7187 42.125C20.0625 43.2188 18.1875 43.5313 17.3438 43.75Z" fill="#3A4D54"/>
<path d="M34.5 51.5625C32.4063 50.5625 31.2812 49.2187 30.625 47.75C29.8437 47.9687 28.9063 48.125 27.8438 48.1875C27.4375 48.2188 27 48.2188 26.5625 48.2188C26.0313 48.2188 25.5 48.2188 24.9375 48.1875C26.8125 50.0625 29.1875 51.5313 33.5313 51.5625H34.5Z" fill="#BFDBE0"/>
<path d="M31.4062 49.0938C31.125 48.6875 30.8437 48.2188 30.625 47.75C29.8437 47.9687 28.9063 48.125 27.8438 48.1875C28.5625 48.5625 29.625 48.9375 31.4062 49.0938Z" fill="#D4EEF1"/>
<g filter="url(#filter1_f_33_76)">
<ellipse cx="33.5" cy="60.5" rx="11.5" ry="6.5" fill="#1460F9"/>
</g>
</g>
<rect x="9" y="13" width="56" height="56" rx="12" stroke="url(#paint1_linear_33_76)" stroke-opacity="0.5" stroke-width="0.8" shape-rendering="crispEdges"/>
</g>
<defs>
<filter id="filter0_bdi_33_76" x="-11.4" y="-7.40002" width="100.8" height="96.8" filterUnits="userSpaceOnUse" color-interpolation-filters="sRGB">
<feFlood flood-opacity="0" result="BackgroundImageFix"/>
<feGaussianBlur in="BackgroundImageFix" stdDeviation="10"/>
<feComposite in2="SourceAlpha" operator="in" result="effect1_backgroundBlur_33_76"/>
<feColorMatrix in="SourceAlpha" type="matrix" values="0 0 0 0 0 0 0 0 0 0 0 0 0 0 0 0 0 0 127 0" result="hardAlpha"/>
<feOffset dx="8" dy="4"/>
<feGaussianBlur stdDeviation="8"/>
<feComposite in2="hardAlpha" operator="out"/>
<feColorMatrix type="matrix" values="0 0 0 0 0 0 0 0 0 0 0 0 0 0 0 0 0 0 0.08 0"/>
<feBlend mode="normal" in2="effect1_backgroundBlur_33_76" result="effect2_dropShadow_33_76"/>
<feBlend mode="normal" in="SourceGraphic" in2="effect2_dropShadow_33_76" result="shape"/>
<feColorMatrix in="SourceAlpha" type="matrix" values="0 0 0 0 0 0 0 0 0 0 0 0 0 0 0 0 0 0 127 0" result="hardAlpha"/>
<feOffset/>
<feGaussianBlur stdDeviation="4"/>
<feComposite in2="hardAlpha" operator="arithmetic" k2="-1" k3="1"/>
<feColorMatrix type="matrix" values="0 0 0 0 0.0784314 0 0 0 0 0.376471 0 0 0 0 0.976471 0 0 0 0.32 0"/>
<feBlend mode="normal" in2="shape" result="effect3_innerShadow_33_76"/>
</filter>
<filter id="filter1_f_33_76" x="4" y="36" width="59" height="49" filterUnits="userSpaceOnUse" color-interpolation-filters="sRGB">
<feFlood flood-opacity="0" result="BackgroundImageFix"/>
<feBlend mode="normal" in="SourceGraphic" in2="BackgroundImageFix" result="shape"/>
<feGaussianBlur stdDeviation="9" result="effect1_foregroundBlur_33_76"/>
</filter>
<linearGradient id="paint0_linear_33_76" x1="9" y1="13" x2="65" y2="69" gradientUnits="userSpaceOnUse">
<stop stop-color="#F8FBFF"/>
<stop offset="1" stop-color="white" stop-opacity="0"/>
</linearGradient>
<linearGradient id="paint1_linear_33_76" x1="10.1667" y1="11.8333" x2="63.25" y2="69" gradientUnits="userSpaceOnUse">
<stop stop-color="#D8D8D8" stop-opacity="0.05"/>
<stop offset="1" stop-color="white" stop-opacity="0.4"/>
</linearGradient>
<clipPath id="clip0_33_76">
<rect x="9" y="13" width="56" height="56" rx="12" fill="white"/>
</clipPath>
</defs>
</svg>
