<svg width="90" height="90" viewBox="0 0 90 90" fill="none" xmlns="http://www.w3.org/2000/svg">
<g filter="url(#filter0_bdi_33_223)">
<g clip-path="url(#clip0_33_223)">
<rect x="9" y="13" width="56" height="56" rx="12" fill="url(#paint0_linear_33_223)" fill-opacity="0.04" shape-rendering="crispEdges"/>
<path d="M35.9545 36.1833C36.2816 35.7012 36.6397 35.6398 36.9302 35.6398C37.2207 35.6398 37.7046 35.7012 38.0319 36.1833C40.6103 39.7249 44.8665 46.78 48.0061 51.9842C50.0535 55.378 51.6261 57.9847 51.9487 58.3164C53.1598 59.5617 54.8208 58.7856 55.786 57.3731C56.7363 55.9825 57 55.006 57 53.9642C57 53.2547 43.2336 27.6518 41.8472 25.5207C40.5139 23.4709 40.0797 22.9531 37.7977 22.9531H36.0901C33.8149 22.9531 33.4862 23.4709 32.1527 25.5207C30.7665 27.6518 17 53.2547 17 53.9642C17 55.006 17.2638 55.9825 18.214 57.3731C19.1792 58.7856 20.8402 59.5617 22.0513 58.3164C22.374 57.9847 23.9466 55.378 25.994 51.9842C29.1335 46.78 33.376 39.7249 35.9545 36.1833Z" fill="#1A56DB"/>
<g filter="url(#filter1_f_33_223)">
<ellipse cx="33.5" cy="60.5" rx="11.5" ry="6.5" fill="#069EDF"/>
</g>
</g>
<rect x="9" y="13" width="56" height="56" rx="12" stroke="url(#paint1_linear_33_223)" stroke-opacity="0.5" stroke-width="0.8" shape-rendering="crispEdges"/>
</g>
<defs>
<filter id="filter0_bdi_33_223" x="-11.4" y="-7.39999" width="100.8" height="96.8" filterUnits="userSpaceOnUse" color-interpolation-filters="sRGB">
<feFlood flood-opacity="0" result="BackgroundImageFix"/>
<feGaussianBlur in="BackgroundImageFix" stdDeviation="10"/>
<feComposite in2="SourceAlpha" operator="in" result="effect1_backgroundBlur_33_223"/>
<feColorMatrix in="SourceAlpha" type="matrix" values="0 0 0 0 0 0 0 0 0 0 0 0 0 0 0 0 0 0 127 0" result="hardAlpha"/>
<feOffset dx="8" dy="4"/>
<feGaussianBlur stdDeviation="8"/>
<feComposite in2="hardAlpha" operator="out"/>
<feColorMatrix type="matrix" values="0 0 0 0 0 0 0 0 0 0 0 0 0 0 0 0 0 0 0.08 0"/>
<feBlend mode="normal" in2="effect1_backgroundBlur_33_223" result="effect2_dropShadow_33_223"/>
<feBlend mode="normal" in="SourceGraphic" in2="effect2_dropShadow_33_223" result="shape"/>
<feColorMatrix in="SourceAlpha" type="matrix" values="0 0 0 0 0 0 0 0 0 0 0 0 0 0 0 0 0 0 127 0" result="hardAlpha"/>
<feOffset/>
<feGaussianBlur stdDeviation="4"/>
<feComposite in2="hardAlpha" operator="arithmetic" k2="-1" k3="1"/>
<feColorMatrix type="matrix" values="0 0 0 0 0.0235294 0 0 0 0 0.619608 0 0 0 0 0.87451 0 0 0 0.32 0"/>
<feBlend mode="normal" in2="shape" result="effect3_innerShadow_33_223"/>
</filter>
<filter id="filter1_f_33_223" x="4" y="36" width="59" height="49" filterUnits="userSpaceOnUse" color-interpolation-filters="sRGB">
<feFlood flood-opacity="0" result="BackgroundImageFix"/>
<feBlend mode="normal" in="SourceGraphic" in2="BackgroundImageFix" result="shape"/>
<feGaussianBlur stdDeviation="9" result="effect1_foregroundBlur_33_223"/>
</filter>
<linearGradient id="paint0_linear_33_223" x1="9" y1="13" x2="65" y2="69" gradientUnits="userSpaceOnUse">
<stop stop-color="#F8FBFF"/>
<stop offset="1" stop-color="white" stop-opacity="0"/>
</linearGradient>
<linearGradient id="paint1_linear_33_223" x1="10.1667" y1="11.8333" x2="63.25" y2="69" gradientUnits="userSpaceOnUse">
<stop stop-color="#D8D8D8" stop-opacity="0.05"/>
<stop offset="1" stop-color="white" stop-opacity="0.4"/>
</linearGradient>
<clipPath id="clip0_33_223">
<rect x="9" y="13" width="56" height="56" rx="12" fill="white"/>
</clipPath>
</defs>
</svg>
