<svg width="89" height="90" viewBox="0 0 89 90" fill="none" xmlns="http://www.w3.org/2000/svg">
<g filter="url(#filter0_bdi_5_5721)">
<g clip-path="url(#clip0_5_5721)">
<rect x="8.5" y="13" width="56" height="56" rx="12" fill="url(#paint0_linear_5_5721)" fill-opacity="0.04" shape-rendering="crispEdges"/>
<path d="M44.5197 28.755L44.4691 28.6759L44.4688 28.6763L44.4669 28.6775C44.4642 28.6793 44.4615 28.6809 44.4588 28.6825L44.4266 28.7025C44.2307 28.8229 44.0326 28.9397 43.8325 29.0528C43.3045 29.3508 42.7642 29.6266 42.2131 29.8794C40.9019 30.4791 39.2434 31.0641 37.8241 31.0328C37.1072 31.0169 36.5116 30.9572 35.95 30.8981L35.8581 30.8884C35.3312 30.8328 34.8287 30.78 34.2828 30.7684C33.1244 30.7441 31.7759 30.9069 29.5575 31.6144C27.3206 32.3275 25.8878 33.7784 24.8566 35.1606C24.4562 35.6972 24.1147 36.2253 23.8112 36.6953C23.7244 36.8297 23.6406 36.9594 23.5594 37.0831C23.1906 37.6447 22.8812 38.0738 22.5772 38.2944C21.9353 38.7597 20.6088 39.7497 19.4431 40.6225C18.9351 41.003 18.4274 41.3838 17.92 41.765L17.4469 42.1206L17.3172 42.2184L17.2834 42.2441L17.2747 42.2506L17.2725 42.2522L17.2719 42.2525L17.2266 42.2869L17.2356 42.3428L17.2444 42.3966L17.2619 42.5038L17.3653 42.4709L20.6341 41.43C20.5106 41.5619 20.3431 41.7456 20.1306 41.99C19.6263 42.5706 18.8684 43.4931 17.8422 44.8722C17.8347 44.8654 17.8273 44.8585 17.82 44.8516L17.6125 44.6606L17.6647 44.9375L17.6684 44.9575L17.6719 44.9759L17.6822 44.9916L17.6825 44.9922L17.6834 44.9938L17.6872 44.9997L17.7022 45.0222C17.7902 45.1498 17.8821 45.2746 17.9778 45.3966C18.2144 45.6994 18.4738 45.9837 18.7538 46.2469C19.0744 46.545 19.4513 46.8319 19.8578 47.0134C20.265 47.1953 20.7069 47.2741 21.1509 47.1463C21.3134 47.0988 21.4931 47.0244 21.6853 46.9284C22.3572 47.2975 23.2288 47.6572 24.1916 47.7578L24.4262 47.7825L24.2725 47.6034L24.2722 47.6031L24.2709 47.6016C24.2692 47.5994 24.2673 47.5973 24.2653 47.5953L24.2441 47.57C24.1202 47.4217 23.9988 47.2712 23.88 47.1188C23.6148 46.779 23.3646 46.4278 23.13 46.0663L23.3903 45.8972L24.7303 46.3897L24.8734 46.4422L24.8556 46.2906L24.7194 45.1294L25.9484 45.5809L26.0956 45.635L26.0734 45.4797L25.9144 44.3647C26.0659 44.2866 26.2159 44.2125 26.3659 44.1434L26.4069 44.125L26.4181 44.0822L27.8237 38.7653L33.3909 34.9678L33.0394 35.8522C32.4534 37.2928 31.6119 38.1813 30.9187 38.7091C30.6444 38.9196 30.35 39.1025 30.0397 39.255C29.9318 39.3074 29.8214 39.3542 29.7087 39.3953L29.6912 39.4013L29.6897 39.4019C29.6888 39.4021 29.688 39.4025 29.6872 39.4028L29.6862 39.4031L29.6834 39.4041L29.6806 39.405L28.7509 39.7575L28.7281 39.7656L28.7125 39.7841L28.6047 39.9106C28.3153 40.2494 28.0913 40.5116 27.9166 40.9697C27.7225 41.4784 27.5897 42.2259 27.4713 43.5975L27.46 43.7284L27.5875 43.6963C28.1353 43.5588 28.6506 43.5278 29.1122 43.6522C30.3287 43.98 31.1512 44.8781 31.5872 45.8009C31.805 46.2622 31.9247 46.7263 31.9494 47.1231C31.9744 47.5238 31.9019 47.8397 31.755 48.0213C31.5959 48.2178 31.2134 48.5591 30.7181 48.9697H29.6453L29.6438 49.0619L29.6306 49.8391L29.63 49.8397L29.5869 49.8731H28.4953L28.4937 49.9653L28.4819 50.7222L28.3519 50.82L28.2731 50.8794C27.8187 50.88 27.2997 50.6863 26.8834 50.4831C26.6527 50.3701 26.4288 50.2438 26.2128 50.1047C26.1994 50.0962 26.1862 50.0874 26.1731 50.0784L26.1631 50.0716L26.1613 50.0703L26.1609 50.07L26.1603 50.0697L26.0134 49.9688V50.1472C26.0134 50.5519 26.1803 51.055 26.3409 51.4484C26.4309 51.667 26.5299 51.8818 26.6375 52.0922L26.6381 52.0931L26.5997 52.1206L26.6816 52.1753L26.7081 52.2244L26.7359 52.2113L26.7434 52.2163L26.83 52.2709C27.2773 52.5472 27.7457 52.7876 28.2309 52.99C28.6616 53.1678 29.1469 53.3269 29.63 53.4006C30.1125 53.4744 30.5994 53.4634 31.0287 53.295C31.4012 53.1491 31.9156 52.8522 32.5228 52.4725C32.9403 52.2116 33.405 51.9088 33.9019 51.5853C34.1297 51.4369 34.3641 51.2844 34.6038 51.1294C36.1303 50.1422 37.8741 49.055 39.4881 48.3563L49.3091 45.7691L49.3553 45.7569L49.3725 45.7122L50.6684 42.3547L50.7344 42.1838L50.5572 42.2306L43.185 44.1728V41.35L51.9031 39.0531L51.9494 39.0409L51.9666 38.9963L53.2625 35.6388L53.3284 35.4678L53.1512 35.5147L43.1875 38.14V35.3175L54.4947 32.3381L54.5409 32.3259L54.5581 32.2813L55.7653 29.155L55.7762 29.1263L55.7681 29.0966L55.7156 28.9028L55.6913 28.8131L55.6012 28.8369L43.8972 31.9206C44.4378 31.0675 44.6247 30.3006 44.6722 29.7316C44.6978 29.4247 44.6825 29.1759 44.6606 29.0028C44.6499 28.9173 44.6346 28.8323 44.6147 28.7484C44.6135 28.7436 44.6122 28.7388 44.6109 28.7341L44.6097 28.73L44.6094 28.7288L44.5197 28.755ZM44.5197 28.755L44.4691 28.6759L44.5741 28.6091L44.6094 28.7288L44.5197 28.755ZM44.4297 28.7816C44.4297 28.7813 44.4297 28.7813 44.4297 28.7816V28.7816ZM36.7053 38.7172L38.8981 38.1391L38.2006 39.9463L36.0078 40.5244L36.7053 38.7172ZM38.0669 40.7856L37.3694 42.5941L35.1766 43.1725L35.8744 41.3638L38.0669 40.7856ZM41.2159 40.1097L40.5184 41.9181L38.3256 42.4966L39.0234 40.6878L41.2159 40.1097Z" fill="#F3F4F6"/>
<path d="M30.1703 53.5372C29.9847 53.5365 29.7993 53.5216 29.6159 53.4928C29.1828 53.4269 28.7047 53.2866 28.1953 53.0763C27.7053 52.8717 27.2322 52.6288 26.7803 52.35L26.7291 52.3178L26.6678 52.3469L26.6103 52.24L26.4347 52.1231L26.5181 52.0638L26.48 51.9869C26.4241 51.8722 26.3394 51.6919 26.2547 51.4841C26.0328 50.9409 25.9203 50.4909 25.9203 50.1475V49.7906L26.2259 50.0009L26.2647 50.0266C26.4774 50.1637 26.6979 50.2882 26.9253 50.3994C27.2794 50.5722 27.7919 50.7775 28.2428 50.7859L28.2666 50.7681L28.2963 50.7456L28.3897 50.6756L28.4037 49.78H29.5384L29.5534 48.8766H30.685C31.2081 48.4422 31.5437 48.1347 31.6828 47.9628C31.8159 47.7981 31.8791 47.4941 31.8566 47.1294C31.8316 46.7288 31.7062 46.2713 31.5031 45.8416C31.2786 45.3638 30.9651 44.9332 30.5794 44.5728C30.1575 44.1786 29.6455 43.8938 29.0881 43.7431C28.6659 43.6294 28.1828 43.6441 27.6106 43.7875L27.3556 43.8519L27.3784 43.5897C27.4953 42.2394 27.6259 41.4706 27.8297 40.9366C28.01 40.4634 28.2413 40.1928 28.5341 39.85L28.5619 39.8172L28.6413 39.7238L28.6728 39.6866L28.7178 39.6694L29.6534 39.3147L29.6631 39.3116L29.6784 39.3066C29.7875 39.2665 29.8945 39.221 29.9991 39.1703C30.3038 39.0205 30.5929 38.8409 30.8622 38.6341C31.2668 38.3243 31.631 37.965 31.9463 37.5647C32.3469 37.0581 32.6834 36.4759 32.9462 35.8338V35.8316L32.9538 35.8153L33.1912 35.2178L27.9053 38.8231L26.5087 44.1063L26.4862 44.1919L26.4056 44.2288C26.2816 44.2859 26.1541 44.3478 26.0172 44.4175L26.2116 45.7769L24.8309 45.2697L24.985 46.5822L23.4025 46.0006L23.26 46.0931C23.4783 46.4247 23.71 46.7474 23.9544 47.0603C24.0756 47.2163 24.1744 47.3378 24.2359 47.4122C24.2703 47.4541 24.2978 47.4866 24.3162 47.5088L24.3391 47.5356C24.3399 47.5365 24.3406 47.5374 24.3412 47.5384L24.3663 47.5628V47.5678L24.6516 47.8997L24.1822 47.8503C23.3669 47.765 22.5266 47.49 21.6834 47.0331C21.5233 47.1133 21.3568 47.1801 21.1856 47.2328L21.1772 47.2353C21.1762 47.2357 21.1751 47.236 21.1741 47.2363L21.1647 47.2391C20.7444 47.3566 20.2922 47.3094 19.8197 47.0984C19.4525 46.9344 19.0725 46.6709 18.69 46.315C18.3172 45.9639 17.98 45.5768 17.6834 45.1594L17.6562 45.1206L17.6544 45.1219L17.6047 45.0456L17.5884 45.0241V45.0206L17.5825 45.0119L17.5722 44.9553L17.4687 44.4006L17.8297 44.7325C18.8631 43.3478 19.6116 42.445 20.0603 41.9284C20.1528 41.8222 20.2419 41.7209 20.3275 41.6259L17.3937 42.56L17.1866 42.6256L17.125 42.2459L17.2609 42.1438L17.3213 42.0984L17.5681 41.9128L17.8644 41.6903C18.2222 41.4216 18.7769 41.0053 19.3875 40.5478C20.4497 39.7522 21.8559 38.7025 22.5228 38.2188C22.8078 38.0122 23.1122 37.595 23.4816 37.0322C23.5625 36.9088 23.6466 36.7788 23.7331 36.645C24.0363 36.1759 24.3797 35.6447 24.7819 35.1053C25.3978 34.2797 26.0241 33.6122 26.6962 33.0644C27.5354 32.3776 28.4967 31.8555 29.5297 31.5256C31.4887 30.9006 32.9109 30.6466 34.2853 30.6753C34.8353 30.6869 35.3372 30.7397 35.8684 30.7959L35.9603 30.8056C36.5719 30.87 37.1344 30.9244 37.8266 30.9397C38.4653 30.9538 39.2081 30.8406 40.0337 30.6031C40.7 30.4116 41.4203 30.1394 42.1747 29.7947C42.7232 29.5428 43.2611 29.2683 43.7869 28.9719C43.9937 28.8552 44.1981 28.7343 44.4 28.6094L44.4225 28.595L44.6287 28.4634L44.7259 28.7922L44.7212 28.7934C44.7303 28.8372 44.7428 28.9047 44.7537 28.9916C44.7834 29.2269 44.7875 29.4788 44.7656 29.7397C44.7087 30.4244 44.4844 31.1066 44.0978 31.7713L55.7575 28.6994L55.875 29.1313L55.8531 29.1884L54.6116 32.4044L54.5188 32.4288L43.2812 35.3897V38.0184L53.4819 35.3303L53.35 35.6725L52.0197 39.1194L51.9269 39.1438L43.2784 41.4225V44.05L50.5331 42.1391L50.8878 42.0456L50.7559 42.3878L49.4256 45.835L49.3328 45.8594L39.5191 48.4447C37.9409 49.1288 36.2488 50.1769 34.655 51.2078C34.4263 51.3556 34.2019 51.5019 33.9847 51.6434L33.9459 51.6688C33.4538 51.9891 32.9887 52.2919 32.5728 52.5519C31.8659 52.9941 31.4003 53.25 31.0631 53.3822C30.7994 53.4853 30.5006 53.5372 30.1703 53.5372ZM26.795 52.1375L26.8797 52.1909C27.3227 52.4642 27.7865 52.7022 28.2669 52.9028C28.7625 53.1075 29.2256 53.2438 29.6441 53.3075C30.1672 53.3872 30.6216 53.3534 30.9944 53.2072C31.3203 53.0794 31.7762 52.8281 32.4731 52.3925C32.8878 52.1331 33.3519 51.8309 33.8434 51.5109L33.8822 51.4856C34.1056 51.3399 34.3292 51.1946 34.5531 51.0497C36.1559 50.0131 37.8587 48.9588 39.4513 48.2691L39.4578 48.2663L39.4647 48.2644L49.2856 45.6772L50.5812 42.3197L43.0916 44.2928V41.2775L51.8797 38.9622L53.1756 35.6047L43.0938 38.2616V35.245L54.4709 32.2472L55.6781 29.1209L55.6256 28.9275L43.6906 32.0719L43.8184 31.8703C44.2631 31.1688 44.5191 30.4466 44.5791 29.7238C44.6047 29.4147 44.5872 29.1675 44.5678 29.0147C44.5608 28.9583 44.5517 28.9023 44.5406 28.8466L44.4781 28.865L44.44 28.8056L44.4394 28.8047C44.4348 28.8073 44.4303 28.8102 44.4259 28.8131L44.4153 28.8744L44.3609 28.8663L44.3569 28.8553L44.3497 28.8597C44.2025 28.9488 44.0441 29.0413 43.8784 29.1347C43.3481 29.4339 42.8056 29.7109 42.2522 29.965C41.4894 30.3138 40.7603 30.5891 40.085 30.7831C39.2412 31.0256 38.4797 31.1413 37.8219 31.1269C37.1225 31.1116 36.5559 31.0566 35.9403 30.9919L35.8484 30.9822C35.3213 30.9266 34.8231 30.8741 34.2809 30.8628C32.9284 30.8344 31.5244 31.0859 29.5863 31.7044C28.565 32.03 27.6581 32.5225 26.8144 33.21C26.1544 33.7478 25.5384 34.4044 24.9319 35.2175C24.5331 35.7519 24.1916 36.2803 23.8903 36.7469C23.8038 36.8806 23.7194 37.0113 23.6381 37.135C23.2466 37.7316 22.9416 38.1466 22.6325 38.3706C21.9666 38.8534 20.5612 39.9028 19.4997 40.6978C18.9918 41.0783 18.4842 41.4591 17.9769 41.8403L17.6809 42.0628L17.4341 42.2484L17.3741 42.2934L17.3297 42.3266L17.3278 42.3241L17.3372 42.3816L20.9488 41.2316L20.7025 41.4941C20.5321 41.6768 20.3651 41.8626 20.2016 42.0516C19.7456 42.5763 18.9794 43.5009 17.9175 44.9281L17.8556 45.0113L17.7984 44.9591V44.9969L17.8366 45.0513C17.9025 45.1444 17.975 45.2409 18.0519 45.3388C18.2206 45.5538 18.4906 45.8738 18.8178 46.1784C19.1853 46.5203 19.5481 46.7725 19.8963 46.9281C20.3284 47.1213 20.7391 47.165 21.1172 47.0588L21.1291 47.0528H21.1378C21.312 46.9978 21.4812 46.9283 21.6437 46.845L21.6875 46.8231L21.7306 46.8469C22.5581 47.3013 23.3819 47.5759 24.1791 47.6628V47.6384L24.1725 47.6306C24.0475 47.4815 23.9254 47.33 23.8062 47.1763C23.5391 46.8344 23.2872 46.4809 23.0513 46.1169L23.0006 46.0384L23.0791 45.9878L23.3391 45.8188L23.3784 45.7931L24.7628 46.3019L24.6087 44.9891L25.9809 45.4931L25.8122 44.3122L25.8716 44.2816C26.0334 44.1981 26.1825 44.1253 26.3269 44.0584L27.7413 38.7078L33.5903 34.7181L33.1322 35.8703V35.8731L33.1244 35.8897C32.8541 36.5541 32.5066 37.1572 32.0916 37.6816C31.7667 38.0944 31.3912 38.4648 30.9741 38.7841C30.6947 38.9982 30.3949 39.1843 30.0791 39.3397C29.9679 39.3937 29.8541 39.442 29.7381 39.4844L29.7191 39.4909L29.7125 39.4931L28.7831 39.8456L28.7034 39.9394L28.6753 39.9722C28.3831 40.3141 28.1722 40.5609 28.0034 41.0038C27.8066 41.5206 27.6791 42.2747 27.5637 43.6063C28.1675 43.4547 28.6819 43.4403 29.1356 43.5625C29.7222 43.7211 30.2611 44.0207 30.7053 44.4353C31.1087 44.812 31.4365 45.2621 31.6713 45.7616C31.8844 46.2125 32.0159 46.6941 32.0422 47.1178C32.0681 47.5347 31.9919 47.8769 31.8272 48.0806C31.6759 48.2678 31.3325 48.5822 30.7772 49.0425L30.7513 49.0641H29.7375L29.7238 49.8806L29.6853 49.9175L29.6809 49.9197L29.6747 49.9244L29.6453 49.9472L29.6197 49.9672H28.5878L28.5753 50.7697L28.5391 50.7972C28.4953 50.8303 28.4519 50.8631 28.4084 50.8953L28.3787 50.9178L28.33 50.9544L28.305 50.9734H28.2716C27.9984 50.9734 27.5297 50.9028 26.8428 50.5675C26.6086 50.4529 26.3814 50.3247 26.1622 50.1834C26.1484 50.1746 26.1348 50.1655 26.1213 50.1563L26.1075 50.1472C26.1075 50.4619 26.2184 50.8997 26.4281 51.4128C26.5149 51.6245 26.6104 51.8325 26.7144 52.0363L26.7163 52.0381L26.7228 52.0528L26.7506 52.1081L26.7534 52.11L26.7544 52.1119L26.7859 52.1316L26.795 52.1375ZM35.0231 43.3097L35.8041 41.2853L38.2203 40.6484L37.4397 42.6725L35.0231 43.3097ZM35.9444 41.4422L35.33 43.035L37.2994 42.5156L37.9137 40.9231L35.9444 41.4422ZM38.1719 42.6338L38.9528 40.6094L41.3691 39.9722L40.5884 41.9963L38.1719 42.6338ZM39.0934 40.7663L38.4791 42.3591L40.4484 41.8397L41.0628 40.2472L39.0934 40.7663ZM35.8541 40.6619L36.635 38.6388L39.0513 38.0016L38.2703 40.0244L35.8541 40.6619ZM36.7753 38.7956L36.1609 40.3869L38.1303 39.8675L38.7444 38.2763L36.7753 38.7956Z" fill="white"/>
<g filter="url(#filter1_f_5_5721)">
<ellipse cx="33" cy="60.5" rx="11.5" ry="6.5" fill="white"/>
</g>
</g>
<rect x="8.5" y="13" width="56" height="56" rx="12" stroke="url(#paint1_linear_5_5721)" stroke-opacity="0.5" stroke-width="0.8" shape-rendering="crispEdges"/>
</g>
<defs>
<filter id="filter0_bdi_5_5721" x="-11.9" y="-7.39999" width="100.8" height="96.8" filterUnits="userSpaceOnUse" color-interpolation-filters="sRGB">
<feFlood flood-opacity="0" result="BackgroundImageFix"/>
<feGaussianBlur in="BackgroundImageFix" stdDeviation="10"/>
<feComposite in2="SourceAlpha" operator="in" result="effect1_backgroundBlur_5_5721"/>
<feColorMatrix in="SourceAlpha" type="matrix" values="0 0 0 0 0 0 0 0 0 0 0 0 0 0 0 0 0 0 127 0" result="hardAlpha"/>
<feOffset dx="8" dy="4"/>
<feGaussianBlur stdDeviation="8"/>
<feComposite in2="hardAlpha" operator="out"/>
<feColorMatrix type="matrix" values="0 0 0 0 0 0 0 0 0 0 0 0 0 0 0 0 0 0 0.08 0"/>
<feBlend mode="normal" in2="effect1_backgroundBlur_5_5721" result="effect2_dropShadow_5_5721"/>
<feBlend mode="normal" in="SourceGraphic" in2="effect2_dropShadow_5_5721" result="shape"/>
<feColorMatrix in="SourceAlpha" type="matrix" values="0 0 0 0 0 0 0 0 0 0 0 0 0 0 0 0 0 0 127 0" result="hardAlpha"/>
<feOffset/>
<feGaussianBlur stdDeviation="4"/>
<feComposite in2="hardAlpha" operator="arithmetic" k2="-1" k3="1"/>
<feColorMatrix type="matrix" values="0 0 0 0 0.826389 0 0 0 0 0.942083 0 0 0 0 0.991667 0 0 0 0.32 0"/>
<feBlend mode="normal" in2="shape" result="effect3_innerShadow_5_5721"/>
</filter>
<filter id="filter1_f_5_5721" x="3.5" y="36" width="59" height="49" filterUnits="userSpaceOnUse" color-interpolation-filters="sRGB">
<feFlood flood-opacity="0" result="BackgroundImageFix"/>
<feBlend mode="normal" in="SourceGraphic" in2="BackgroundImageFix" result="shape"/>
<feGaussianBlur stdDeviation="9" result="effect1_foregroundBlur_5_5721"/>
</filter>
<linearGradient id="paint0_linear_5_5721" x1="8.5" y1="13" x2="64.5" y2="69" gradientUnits="userSpaceOnUse">
<stop stop-color="#F8FBFF"/>
<stop offset="1" stop-color="white" stop-opacity="0"/>
</linearGradient>
<linearGradient id="paint1_linear_5_5721" x1="9.66667" y1="11.8333" x2="62.75" y2="69" gradientUnits="userSpaceOnUse">
<stop stop-color="#D8D8D8" stop-opacity="0.05"/>
<stop offset="1" stop-color="white" stop-opacity="0.4"/>
</linearGradient>
<clipPath id="clip0_5_5721">
<rect x="8.5" y="13" width="56" height="56" rx="12" fill="white"/>
</clipPath>
</defs>
</svg>
