<svg width="90" height="90" viewBox="0 0 90 90" fill="none" xmlns="http://www.w3.org/2000/svg">
<g filter="url(#filter0_bdi_44_360)">
<g clip-path="url(#clip0_44_360)">
<rect x="9" y="13" width="56" height="56" rx="12" fill="url(#paint0_linear_44_360)" fill-opacity="0.04" shape-rendering="crispEdges"/>
<g clip-path="url(#clip1_44_360)">
<path d="M57 21H17V61H57V21Z" fill="#0F172A"/>
<path fill-rule="evenodd" clip-rule="evenodd" d="M28.4041 30.7252C28.2662 29.5299 29.3419 30.0366 29.2044 30.7572C29.0026 30.9492 28.6297 30.7917 28.4041 30.7252ZM29.6846 30.501C29.9555 30.4734 30.2138 30.4328 30.293 30.213C29.9182 29.982 29.3582 30.552 29.5886 30.8214C29.7165 30.8105 29.6033 30.5587 29.6846 30.501ZM26.0991 31.2374C26.3247 31.1324 26.6954 31.1721 26.8034 30.9493C26.1319 30.7154 24.9225 30.8881 24.7223 31.3335C25.2343 31.3018 25.6624 30.8956 26.0991 31.2374ZM24.5943 31.3656C24.4488 31.335 24.3927 31.5003 24.4663 31.5896C24.58 31.5858 24.5951 31.4836 24.5943 31.3656ZM24.2421 32.0059C24.2216 31.7005 23.4829 31.4567 23.4098 31.8778C23.4737 32.117 24.0696 32.2708 24.2421 32.0059ZM22.9937 31.7178C22.8411 31.7249 22.7626 31.8071 22.6734 31.8778C22.7895 31.9455 23.0467 31.9213 22.9937 31.7178ZM22.6096 32.5821C23.1735 32.5424 23.3451 33.061 23.8259 32.9982C23.9155 32.4401 22.7685 31.6724 22.6096 32.5821ZM30.2288 35.3671C30.0607 34.8092 30.5755 34.3303 30.2608 33.8944C29.825 33.9292 29.4481 35.9517 30.0687 35.9436C30.5144 35.9374 30.6715 34.7141 30.7089 34.311C30.3826 34.4964 30.5248 35.151 30.2288 35.3671ZM24.8825 35.1433C24.8922 35.0587 24.8381 35.0381 24.7544 35.047C24.7566 35.1334 24.8276 35.201 24.8825 35.1433ZM26.4512 36.0717C26.4574 35.8733 26.4496 35.6891 26.2912 35.6555C26.1707 35.6418 26.1779 35.7556 26.0991 35.7837C26.143 35.9529 26.2324 36.0772 26.4512 36.0717ZM24.9145 37.0962C25.5283 37.1653 25.9394 37.6081 26.5152 37.6082C26.056 37.2991 25.5789 37.008 24.8505 36.9681C24.8273 37.0554 24.914 37.0325 24.9145 37.0962ZM29.7487 37.5764C29.7009 37.3572 29.6058 37.1853 29.4926 37.032C29.5343 37.257 29.5917 37.4663 29.7487 37.5764ZM26.227 38.2806C25.8252 37.7429 25.1851 37.2744 24.4663 37.16C24.5678 38.0189 25.5225 38.025 26.227 38.2806ZM25.1387 38.4725C24.8643 38.0107 24.3939 37.7446 23.8259 37.5764C24.1451 37.9731 24.4376 38.5643 25.1387 38.4725ZM23.6659 38.0246C23.7752 38.2143 24.05 38.4083 23.9862 38.6648C23.7055 38.5828 23.569 38.3563 23.2818 38.2806C23.4343 38.4924 24.0163 39.4314 24.3701 39.4014C24.596 39.3818 24.6981 39.1325 24.6583 38.729C24.4852 38.3575 23.9344 38.1936 23.6659 38.0246ZM25.2987 38.8569C25.3698 39.0526 25.3948 39.2942 25.6509 39.3049C25.6073 39.0819 25.477 38.9453 25.2987 38.8569ZM25.0745 38.9531C24.9551 38.94 24.8868 38.9784 24.8826 39.0809C24.9184 39.0879 24.9324 39.1164 24.9465 39.1449C25.0488 39.1409 25.0876 39.0724 25.0745 38.9531ZM30.549 39.6892C30.5823 39.5083 30.6162 39.1597 30.549 38.9849C30.5079 39.1647 30.3533 39.5692 30.549 39.6892ZM28.308 39.0169C28.3325 39.2061 28.241 39.5109 28.4041 39.5614C28.4112 39.4214 28.4438 39.1059 28.308 39.0169ZM29.8126 39.7533C29.7198 39.671 29.5865 39.7954 29.5245 39.7214C29.4591 39.5095 29.4862 39.205 29.3005 39.1131C29.2793 39.1131 29.2578 39.1131 29.2366 39.1131C28.9729 39.6592 28.9989 40.8324 29.4605 41.1298C29.5477 41.2775 29.5562 41.5038 29.7807 41.5142C29.9652 41.3677 30.0105 41.0826 30.0369 40.7776C29.6362 40.6935 30.0094 40.0028 29.8126 39.7533ZM30.7732 40.1053C30.8126 39.8218 31.055 39.4096 30.8692 39.1131C30.8079 39.3936 30.6918 39.789 30.7732 40.1053ZM25.1387 40.3617C25.1897 40.2154 25.1496 39.9672 25.0426 39.8814C24.9679 40.0216 24.9244 40.3444 25.1387 40.3617ZM25.7148 40.4896C25.8441 40.5738 25.8541 40.7771 26.0351 40.8098C26.2603 40.5223 25.833 40.0156 25.7148 40.4896ZM31.1893 41.1298C31.1895 41.2279 31.0609 41.3621 31.1573 41.4499C31.1758 41.3706 31.2733 41.2056 31.1893 41.1298ZM31.4773 42.3784C31.476 42.2306 31.4954 42.062 31.4134 41.9944C31.3991 42.1084 31.3146 42.3608 31.4773 42.3784ZM27.4116 43.6912C27.4306 43.8104 27.4501 43.93 27.5716 43.9472C27.6501 43.8374 27.5922 43.6428 27.4116 43.6912ZM28.8523 43.8514C28.8968 43.9359 29.0248 44.1038 29.1083 44.0431C29.0342 43.9885 28.9487 43.7774 28.8523 43.8514ZM31.8935 44.2035C31.8036 44.5847 32.0165 44.932 32.1817 45.1639C32.2494 44.7923 32.243 44.2601 31.8935 44.2035ZM32.6941 46.6681C32.7424 46.5714 32.7595 46.2731 32.662 46.2205C32.5777 46.3361 32.5026 46.6129 32.6941 46.6681ZM34.1344 48.2052C34.088 47.9699 33.9037 47.7159 33.7183 47.7247C33.7832 47.9585 33.7944 48.2464 34.1344 48.2052ZM34.4228 48.6532C34.4241 48.8014 34.4049 48.9703 34.4867 49.0372C34.4908 48.8842 34.4887 48.7367 34.4228 48.6532ZM23.858 48.6853C23.8584 48.8026 23.9212 48.8569 23.9862 48.9095C23.9733 48.8046 23.9583 48.7026 23.858 48.6853ZM35.5753 50.4459C35.4965 49.8422 35.179 49.4768 34.775 49.1977C34.8328 49.8224 35.139 50.1996 35.5753 50.4459ZM40.7297 53.6155C40.7102 53.5974 40.5776 53.5408 40.5695 53.6155C40.6176 53.6525 40.7044 53.7279 40.7297 53.6155ZM56.961 55.9846C56.961 56.1022 56.961 56.2192 56.961 56.3367C56.909 56.4449 56.8921 56.5879 56.8648 56.7208C55.9746 57.2925 54.3021 57.0821 53.5673 57.8095C52.2784 57.1152 51.0806 58.2088 49.7258 58.3219C49.502 58.3403 49.2531 58.3031 49.0211 58.3219C48.2206 58.3865 47.4389 58.5737 46.6202 58.6419C45.7808 58.7118 44.9396 58.7631 44.0592 58.8021C43.7388 58.8021 43.4189 58.8021 43.0988 58.8021C39.1281 58.5935 35.2022 58.0594 32.2779 56.753C30.82 56.1016 29.478 55.3024 28.2441 54.3518C27.0433 53.4272 25.8108 52.3992 24.9465 51.2466C24.0263 50.0192 23.1057 48.8256 22.2893 47.4691C21.5017 46.1598 20.7655 44.7806 20.1124 43.243C19.4681 41.7267 19.009 40.2264 18.5755 38.3768C18.2922 37.1671 17.9931 35.7975 17.4871 34.6632C17.2901 34.2215 17.0607 33.8599 17.039 33.4465C17.039 33.3506 17.039 33.2543 17.039 33.1585C17.1969 31.8138 18.2426 31.0332 19.472 30.6612C19.7798 30.5681 20.0791 30.4792 20.3684 30.309C20.3873 30.2981 20.5717 30.2793 20.4966 30.181C19.9489 30.0492 19.4983 30.8556 18.8959 30.6292C18.3612 30.4281 18.669 29.6002 19.2481 29.3487C19.5184 29.2313 20.0551 29.2007 20.3044 29.0606C20.7343 28.819 20.9294 28.3086 20.8488 27.844C20.8011 27.5695 20.5162 27.4249 20.5287 27.2037C20.5462 26.8952 21.0978 26.6269 21.3609 26.4353C21.6829 26.201 22.064 25.9084 22.0333 25.5389C22.0009 25.153 21.547 25.03 21.3289 24.7386C20.9865 24.2813 20.9322 23.5977 21.4889 23.3298C22.0726 23.0489 23.16 23.202 23.2818 23.9381C23.3891 24.587 22.9285 24.8342 23.1215 25.3147C23.4812 26.2089 26.2785 24.7935 25.5869 26.6594C26.202 27.6237 28.606 26.7988 28.6602 28.3242C29.6629 28.3443 30.1237 29.1052 30.9332 29.4127C31.1501 29.495 31.4085 29.495 31.6376 29.5727C33.0029 30.0367 34.6948 30.5346 35.2551 31.8457C34.7487 32.1869 34.0576 31.9585 33.4625 31.7497C32.9448 31.5679 32.1901 31.2079 31.6696 31.4295C31.1536 31.6492 31.1812 32.5309 31.2534 33.4142C31.4456 35.766 31.5583 38.1917 31.8936 40.2974C32.3618 43.2367 33.3626 45.5908 34.7751 47.4367C36.1415 49.2226 37.7467 51.0927 39.8331 52.3991C41.5937 53.501 43.5716 54.3705 46.0761 54.928C46.4475 55.0109 46.8965 55.1918 47.1005 55.1521C47.4029 55.094 48.0537 54.2146 48.2853 53.9998C48.836 53.4878 49.577 52.7714 50.3659 53.3913C50.2587 54.2448 49.4939 54.4407 49.3094 55.2164C49.7837 55.5182 50.2866 55.245 50.8783 55.2801C51.5667 55.321 52.0946 55.7158 52.6713 55.6323C53.0394 55.579 53.2236 55.3049 53.5036 55.1203C54.1397 56.0502 56.5922 54.8396 56.961 55.9846ZM50.0136 53.6155C50 53.5122 50.0559 53.3387 49.9497 53.3277C49.8573 53.3745 49.7661 53.6688 50.0136 53.6155ZM33.9107 31.0774C34.2243 31.2652 34.5004 31.4908 34.775 31.7179C34.9403 31.2311 34.4658 30.9197 33.9107 30.9494C33.9107 30.9919 33.9107 31.0346 33.9107 31.0774ZM42.5225 54.672C42.6446 54.6977 42.733 54.7221 42.7466 54.5761C42.6326 54.5687 42.555 54.5973 42.5225 54.672ZM38.1044 51.8546C38.0936 52.0053 38.3977 52.0082 38.4569 51.9826C38.4068 51.8825 38.2551 51.7526 38.1044 51.8546ZM37.336 51.2464C37.3893 51.3003 37.5241 51.2717 37.6241 51.2785C37.6348 51.1613 37.5883 51.1006 37.5601 51.0222C37.3919 51.0038 37.3454 51.1064 37.336 51.2464ZM31.1893 38.1524C31.1024 38.0788 31.0394 38.2136 30.9972 38.1524C31.1015 37.3581 31.2691 36.1353 30.9332 35.4635C30.8501 35.391 30.7187 35.4889 30.6772 35.4313C30.9007 34.8977 31.0516 33.7848 30.9652 33.1263C30.9348 32.8942 30.8143 32.4814 30.6772 32.3899C30.3326 32.1606 30.0191 32.5131 29.7806 32.5821C29.6305 32.6258 29.4637 32.5946 29.3005 32.6139C28.6549 32.6917 27.9699 32.8842 27.5398 33.0941C27.764 33.2435 28.0818 33.2991 28.1799 33.5742C27.6221 33.5348 27.1869 33.3724 26.7072 33.2542C26.7583 33.9765 25.8726 33.7502 25.3307 33.7986C25.5179 33.8027 25.5479 33.8931 25.5548 34.0226C25.5771 34.4475 24.1788 34.9511 23.698 34.6311C23.0121 35.1841 23.9998 35.7489 23.954 36.456C23.8192 36.5559 23.7569 36.7282 23.6339 36.8398C22.9523 36.8564 22.2353 36.9935 22.3531 37.7043C22.261 37.6506 22.1157 37.6147 22.0009 37.6721C21.8267 38.121 22.1192 38.6081 22.5133 38.6968C22.6126 38.6679 22.6358 38.5631 22.7694 38.5688C23.6598 38.739 23.9732 39.3295 23.922 40.4574C23.9131 40.6516 23.9324 40.905 23.794 41.0339C23.2887 40.9992 22.8203 39.7522 23.6338 39.7214C23.4387 39.4343 23.291 39.0061 22.9294 39.0168C22.515 39.0292 22.329 39.6842 22.033 39.9133C22.4596 40.149 23.4614 40.7995 22.6412 41.2259C23.0473 41.2867 23.2738 41.4478 23.4415 41.6739C23.7211 42.0514 23.7122 42.617 23.9219 42.9227C24.3462 43.5416 24.5701 42.3675 25.0742 42.8584C25.1933 42.8993 25.0218 42.7428 25.0102 42.7306C24.5778 42.2638 23.9183 41.8811 23.6657 41.322C23.8598 41.233 24.1201 41.3301 24.3058 41.3539C24.3793 40.9778 24.118 40.5521 24.2098 40.2651C24.276 40.0593 24.3981 40.1499 24.5301 40.0732C24.6076 40.0281 24.5469 39.8599 24.6902 39.9132C24.6894 40.3528 24.4245 41.0924 24.722 41.4178C25.1565 41.4958 25.2819 40.7487 25.6506 40.7456C25.8565 40.7438 26.0512 41.1063 26.1948 41.2898C26.3673 41.51 26.6017 41.7806 26.5469 42.026C26.4316 42.5431 25.563 42.1494 25.2664 41.9299C25.4472 42.6475 26.5596 42.7589 26.6109 43.691C26.6168 43.795 26.5643 43.9278 26.579 44.0429C26.6419 44.5348 27.1005 44.9003 27.5713 44.5874C27.6405 44.7639 27.6496 45.0003 27.8276 45.0676C27.9836 44.9357 27.9282 44.5919 28.0196 44.3951C28.5782 44.5121 28.8698 44.781 29.044 45.2274C29.1302 45.4483 29.108 45.8577 29.4601 45.8678C29.5141 45.322 29.0864 44.9838 29.0121 44.4591C29.2991 44.9221 30.3341 45.423 30.2927 46.156C30.2652 46.6394 29.6907 46.692 29.1401 46.7642C29.6648 46.9445 29.8846 47.5321 30.4527 47.7245C30.6054 47.7765 30.8015 47.732 30.9649 47.7888C31.3806 47.9334 32.0453 48.7856 31.8615 49.3255C30.9757 49.7719 30.2846 48.5653 29.3002 48.5893C29.7153 49.1185 30.3943 49.2946 30.965 49.5497C31.5792 49.8239 32.1942 50.1049 32.7898 50.382C34.1939 51.035 35.1685 51.8895 36.0874 52.9752C35.4498 53.3228 33.5173 52.7446 34.6787 52.3346C34.2748 52.3209 33.8472 52.0675 33.4941 52.2069C33.6812 53.4285 35.2884 53.2299 36.5036 53.4232C36.393 53.6328 36.237 53.7971 36.1193 53.9996C36.213 54.0548 36.3424 54.0749 36.5036 54.0635C36.4258 54.1883 36.2232 54.1886 36.2153 54.3835C36.3709 54.5908 36.679 54.6457 36.8876 54.7997C37.7104 54.2097 37.8026 55.5482 38.3283 55.5681C38.825 55.5866 38.9202 54.8728 39.417 54.7997C39.2922 55.0593 39.0479 55.199 38.9369 55.4722C39.4233 55.3546 39.5619 55.0928 39.9608 54.9917C41.3904 54.6301 42.5623 55.8208 43.7386 55.9524C44.1616 55.9996 44.582 56.2371 44.9552 56.3046C45.4377 56.3917 45.7344 56.2328 46.1076 56.0486C45.5391 55.5178 44.2337 55.7245 43.7708 55.0879C43.7887 54.9778 43.864 54.9252 43.9309 54.8641C42.4325 55.1932 41.4891 54.2953 40.8575 53.4554C39.0089 52.9779 37.3871 52.2731 36.5994 50.7342C36.5616 50.5893 36.7413 50.6628 36.6957 50.51C36.0458 49.7868 35.3962 49.0526 34.8708 48.2049C34.6893 47.9123 34.565 47.5445 34.3585 47.3086C34.2277 47.1592 34.0083 47.0769 33.8783 46.9242C33.7361 46.7569 33.7167 46.5474 33.494 46.4763C33.4083 46.6039 33.4658 46.8746 33.3981 47.0204C33.2441 46.4022 32.9011 45.8151 32.2456 45.8038C32.2334 45.3542 32.5966 45.2801 32.7898 45.0354C32.5355 44.7297 32.4743 44.3447 32.3416 43.8831C32.0191 42.7613 31.7526 41.5894 31.4771 40.5534C31.1119 40.6897 31.0151 41.0945 30.8369 41.4178C30.8545 40.9553 30.8762 40.4966 31.1251 40.2651C31.239 40.2794 31.2515 40.3951 31.3171 40.4573C31.3773 40.2392 31.5837 40.0357 31.4771 39.7531C31.3944 39.6254 31.1528 39.6849 31.0931 39.6891C31.2511 39.3024 31.3837 38.6007 31.1893 38.1524ZM44.0591 57.1373C44.3359 57.019 44.5851 56.8735 44.6991 56.5928C44.3983 56.6682 43.9741 56.7818 44.0591 57.1373ZM44.091 56.4969C43.9059 56.5995 43.6976 56.6798 43.579 56.8491C43.8444 56.8649 44.1553 56.5985 44.091 56.4969ZM43.0987 56.9771C43.28 56.9287 43.474 56.7415 43.4509 56.5928C43.2405 56.6139 42.9149 56.7639 43.0987 56.9771ZM43.2268 56.2406C42.9387 56.1496 42.7034 56.3751 42.6823 56.6571C42.939 56.5934 43.1127 56.4469 43.2268 56.2406ZM42.3301 56.3049C42.0487 56.3539 41.8383 56.4738 41.7538 56.7207C42.0978 56.8572 42.2739 56.5616 42.3301 56.3049ZM41.8821 57.1373C41.9614 57.1418 42.0373 57.1431 42.0423 57.073C41.9942 57.0222 41.8597 57.0261 41.8821 57.1373ZM42.3944 55.7604C41.9465 55.726 41.4107 56.0167 41.6901 56.4007C41.9883 56.2507 42.2905 56.1048 42.3944 55.7604ZM40.1852 56.3689C40.465 56.4082 40.5381 56.0882 40.7298 56.1444C40.8409 56.2146 40.7733 56.4638 40.9536 56.4648C41.3723 56.3796 41.5231 55.8082 41.2737 55.4083C40.7093 55.5076 40.193 55.8182 40.1852 56.3689ZM40.3132 55.5365C40.1433 55.6226 39.9623 55.6974 39.8652 55.8565C40.0747 55.8474 40.3866 55.6164 40.3132 55.5365ZM39.4172 55.6967C39.4351 55.7818 39.2853 55.8595 39.3847 55.9205C39.4113 55.8803 39.5797 55.722 39.4172 55.6967ZM38.8408 56.4647C38.8308 56.5083 38.7951 56.5258 38.8091 56.5928C38.8513 56.5928 38.8942 56.5928 38.9371 56.5928C38.9458 56.5089 38.925 56.4553 38.8408 56.4647ZM38.3607 56.3049C38.1989 56.3139 38.1377 56.4235 38.1365 56.5928C38.2758 56.5618 38.4029 56.518 38.3607 56.3049ZM35.1269 54.672C34.9296 54.6633 34.8694 54.6938 35.0951 54.7364C35.31 54.776 35.6891 54.7967 35.8315 54.7364C35.6625 54.7344 35.2258 54.6766 35.1269 54.672ZM36.0876 54.1599C35.9201 54.0326 35.5833 54.1249 35.4153 54.1918C35.5123 54.4582 35.9883 54.3399 36.0876 54.1599ZM35.0633 56.5609C35.8617 56.9793 36.9611 57.4361 38.1044 57.2971C37.2736 56.8903 36.0381 56.7168 35.0633 56.5609ZM33.8786 56.2087C33.9551 56.3137 34.1357 56.3143 34.2626 56.3689C34.4989 56.1405 33.9794 56.0118 33.8786 56.2087ZM30.8691 53.6155C30.653 53.6343 30.4179 53.6337 30.3569 53.8078C30.5628 53.8842 30.8607 53.8367 30.8691 53.6155ZM30.2608 54.4478C30.336 54.516 30.4744 54.5973 30.5169 54.4478C30.4838 54.414 30.2884 54.3819 30.2608 54.4478ZM30.645 51.7266C30.6741 51.5928 30.4191 51.5421 30.389 51.6627C30.4591 51.6989 30.5199 51.7451 30.645 51.7266ZM31.0613 52.8149C31.0598 52.771 31.0764 52.7448 31.0933 52.7191C30.9979 52.6206 30.805 52.6031 30.645 52.6551C30.6706 52.8091 30.927 52.8734 31.0613 52.8149ZM31.0933 54.8643C31.1343 54.9079 31.2444 54.9079 31.2854 54.8643C31.3005 54.7636 31.2454 54.7334 31.1894 54.7039C31.1606 54.7607 31.112 54.7974 31.0933 54.8643ZM32.0858 51.1824C31.9816 50.881 31.6415 50.9605 31.4134 50.8624C31.0469 50.7045 30.7341 50.3276 30.2608 50.3182C30.2396 50.3182 30.2181 50.3182 30.197 50.3182C30.6086 50.8032 31.1533 51.3244 32.0858 51.1824ZM30.4209 49.9982C30.1221 49.7952 29.7948 49.6207 29.3644 49.5499C29.5012 49.8933 30.0337 50.0116 30.4209 49.9982ZM31.4133 51.5024C31.6378 51.7371 31.9195 51.9144 32.4058 51.8865C32.2189 51.6356 31.7722 51.4748 31.4133 51.5024ZM32.6299 52.9433C32.3003 52.7149 31.7819 52.3442 31.3494 52.4309C31.5995 52.7571 32.1024 53.0014 32.6299 52.9433ZM31.4133 54.1599C31.4056 54.2055 31.3607 54.2136 31.3494 54.2555C31.4283 54.3585 31.547 54.1814 31.4133 54.1599ZM32.1497 55.1203C32.1769 55.2424 32.2944 55.2743 32.4058 55.3124C32.4492 55.2383 32.5344 55.2061 32.5019 55.0564C32.4241 55.0096 32.1442 54.9826 32.1497 55.1203ZM32.758 53.7117C32.6589 53.651 32.2973 53.5831 32.2137 53.7117C32.369 53.7747 32.6741 53.9378 32.758 53.7117ZM32.8541 52.6229C32.8861 52.3848 32.6167 52.3838 32.5019 52.4628C32.5126 52.6229 32.7245 52.5821 32.8541 52.6229ZM33.2062 50.8942C33.0616 50.6759 32.6599 50.7149 32.3738 50.6382C32.1643 50.3751 31.6633 50.2796 31.2213 50.3501C31.7275 50.6873 32.3032 50.9543 33.2062 50.8942ZM33.1422 53.9676C33.2797 54.0863 33.4952 54.1268 33.6864 54.1918C33.6966 54.1164 33.7369 54.0716 33.7183 53.9676C33.6251 53.8601 33.2207 53.8046 33.1422 53.9676ZM30.4209 48.7812C30.453 48.6318 30.3651 48.6025 30.2288 48.6214C30.1805 48.7871 30.3402 48.7445 30.4209 48.7812ZM31.1893 49.1656C31.0958 49.1418 31.1273 48.9931 30.9972 49.0054C30.8792 49.1136 31.0917 49.2783 31.1893 49.1656ZM28.9803 49.3897C28.8741 49.1548 28.6346 49.0525 28.4681 48.8774C28.7803 48.4251 28.0837 48.2399 27.9558 47.917C27.9544 47.8196 28.0234 47.7925 28.0519 47.7246C27.7829 47.5671 27.4723 47.4508 27.3155 47.1808C27.4393 47.0912 27.7694 47.2074 27.8916 47.1165C27.6977 47.033 27.4883 46.9651 27.4115 46.7643C27.5237 46.5031 27.9801 46.5863 28.0837 46.3163C27.5323 46.1945 26.9844 45.9014 26.3869 45.932C26.3937 46.16 26.5966 46.1918 26.675 46.3481C26.4979 46.2695 26.3546 46.1561 26.0988 46.1561C26.0797 46.314 26.1819 46.3504 26.163 46.5083C25.9883 46.5226 25.8998 46.4512 25.7146 46.4765C25.8466 46.7711 26.1852 46.8595 26.291 47.1809C26.1601 47.214 25.9823 47.1289 25.9388 47.1809C26.2768 47.4616 26.7704 47.7575 26.9631 48.0769C26.6487 48.0185 26.4687 47.8248 26.163 47.7569C26.4189 48.2637 27.0421 48.3693 27.5075 48.6214C27.9839 48.8792 28.4108 49.2952 28.9803 49.3897ZM28.2759 49.7738C28.4098 49.8469 28.6762 50.0791 28.8523 49.9021C28.7038 49.8364 28.4703 49.687 28.2759 49.7738ZM28.0199 49.6135C27.9298 49.4677 27.4702 49.39 27.3477 49.4855C27.5566 49.5457 27.7535 49.7078 28.0199 49.6135ZM27.4436 49.7097C27.4335 49.7532 27.3981 49.7707 27.4116 49.8381C27.468 49.8196 27.5997 49.8764 27.6037 49.8059C27.5541 49.7702 27.5369 49.7019 27.4436 49.7097ZM27.0274 45.4517C26.9401 45.1509 26.8234 44.8212 26.5793 44.5875C26.4478 44.4615 26.3205 44.4641 26.2271 44.299C25.9797 43.8637 26.0983 43.2491 25.7789 42.7948C25.7033 42.7702 25.5576 42.7314 25.4908 42.7948C25.4968 43.0047 25.984 43.5024 25.651 43.7552C24.9148 43.7844 24.6313 43.1983 23.9223 43.3068C23.7626 43.7204 24.3271 43.9329 24.1782 44.2354C25.1966 44.5623 26.0055 45.2705 27.0274 45.4517ZM24.7223 46.4121C24.9105 46.5554 25.1824 46.7845 25.4267 46.7643C25.2332 46.6272 25.0551 46.3043 24.7223 46.4121ZM24.3701 46.1243C24.2871 45.866 24.1431 45.6685 23.8259 45.6442C23.8905 45.9209 24.1912 45.9619 24.3701 46.1243ZM23.8259 46.9567C23.9973 47.0739 24.1676 47.3614 24.3382 47.3728C24.2134 47.2094 24.0614 46.9031 23.8259 46.9567ZM24.0501 44.7474C24.0667 44.7 24.0973 44.6669 24.1141 44.6194C24.032 44.5064 23.8296 44.5681 23.794 44.6837C23.857 44.7273 23.9769 44.7143 24.0501 44.7474ZM29.0124 46.0281C29.0079 45.7526 28.7019 45.5928 28.4681 45.7402C28.5422 45.9436 28.7654 45.9976 29.0124 46.0281ZM26.0028 41.8346C26.0082 41.7816 25.8057 41.7816 25.8108 41.8346C25.8548 41.8442 26.004 41.9791 26.0028 41.8346ZM24.7545 41.7062C24.7118 41.7062 24.669 41.7062 24.6263 41.7062C24.5823 41.7474 24.5947 41.8456 24.5943 41.93C24.6528 41.9388 24.7738 42.0456 24.8185 41.9624C24.7393 41.9346 24.8277 41.7396 24.7545 41.7062ZM22.3532 41.674C22.4593 41.9154 22.8887 41.8975 22.9615 41.6422C22.7794 41.5717 22.511 41.6207 22.3532 41.674ZM22.4494 40.7776C22.3256 40.7714 22.2134 40.7766 22.129 40.8098C22.154 40.9495 22.4486 40.9246 22.4494 40.7776ZM22.7374 35.6235C22.5729 35.6995 22.2298 35.5473 22.0652 35.6235C22.2109 36.2003 23.2908 35.8897 23.2178 35.4313C23.1558 35.0424 22.1288 35.1387 21.7771 35.1753C22.0497 35.3721 22.483 35.4084 22.7374 35.6235ZM21.4569 36.2317C21.5172 36.3209 21.6827 36.3046 21.7771 36.3597C21.7956 36.293 21.8565 36.2685 21.8411 36.1677C21.7571 36.1233 21.4549 36.0884 21.4569 36.2317ZM23.0898 36.1037C23.0725 36.1735 23.0121 36.3108 23.1215 36.3278C23.1978 36.2741 23.1819 36.1501 23.0898 36.1037ZM23.9862 34.1828C23.9777 34.0892 24.0584 34.0846 24.0501 33.9907C23.92 33.978 23.8269 34.0024 23.8259 34.1187C23.8869 34.1326 23.9063 34.1877 23.9862 34.1828ZM23.9541 27.0756C23.8266 27.8568 24.5305 28.8019 25.3626 28.5161C25.4015 28.2213 25.2669 28.0998 25.2666 27.8439C25.479 27.7924 25.604 27.9964 25.7148 27.9399C25.4033 27.3764 24.575 27.3298 23.9541 27.0756ZM23.6018 26.3392C23.8832 26.3949 24.3248 26.3667 24.4343 26.1471C24.2217 26.0051 23.5839 25.9671 23.6018 26.3392ZM22.8334 24.0981C22.895 23.4764 22.1351 23.1328 21.6811 23.554C21.3973 23.8171 21.274 24.4526 21.713 24.6746C21.6632 24.5108 21.5176 24.4431 21.553 24.1944C21.8867 24.0036 22.4985 24.2874 22.8334 24.0981ZM22.6096 26.1471C22.691 26.1006 22.8133 26.095 22.8016 25.955C22.7032 25.9649 22.5355 26.071 22.6096 26.1471ZM21.9371 28.5161C22.3363 28.5256 22.6373 28.3004 23.0256 28.2921C23.3617 28.285 23.682 28.385 24.0821 28.3561C23.7964 27.5176 22.4082 28.2499 21.9371 28.5161ZM21.3289 29.9889C22.0843 29.8928 23.1367 29.3958 24.1462 29.5087C24.5269 29.5512 24.8605 29.7655 25.0745 29.9249C24.9654 29.8084 24.8361 29.3303 25.0745 29.2527C25.5999 29.3528 25.6174 30.3454 26.259 30.2131C26.5859 30.1456 26.6855 29.5116 26.5152 29.1246C26.7595 29.2964 26.8854 29.5867 27.2196 29.6689C27.1433 29.3609 26.9217 29.1983 26.7715 28.9645C26.8658 28.8456 26.9894 28.7556 26.9634 28.5161C26.0473 28.4281 25.234 28.9226 24.3702 29.0924C23.6998 29.2245 23.2009 29.3553 22.6097 29.5086C22.1651 29.6239 21.6705 29.7047 21.3289 29.9889ZM18.6397 36.616C18.5957 36.6567 18.5839 36.8072 18.6716 36.808C18.698 36.7848 18.7576 36.5864 18.6397 36.616ZM19.76 32.8063C18.3562 33.029 19.8525 34.522 20.6886 34.151C20.7944 33.9884 20.7615 33.8394 20.7526 33.6064C21.2397 33.6542 21.6062 33.4169 22.0333 33.5106C22.1022 33.6594 21.9719 33.7854 21.9372 33.9266C23.3898 33.8345 24.109 32.6931 25.6827 32.5181C25.8783 32.4963 26.1012 32.5309 26.3232 32.5181C26.9859 32.4794 27.7201 32.3566 28.4041 32.2299C29.0753 32.1058 29.689 31.859 30.2608 31.7178C30.9786 31.5404 32.0705 31.0717 31.9258 30.117C31.9092 30.0083 31.8338 29.9106 31.7656 29.7968C27.9505 29.4279 25.098 30.9235 22.0973 31.5256C21.7369 31.5979 21.2986 31.5499 21.0087 31.8456C21.1136 32.1036 21.482 32.0981 21.6489 32.2939C21.5655 32.3917 21.3591 32.3667 21.3289 32.5181C21.3995 32.7889 21.8009 32.7285 21.8411 33.0304C21.2038 33.4796 19.8676 32.9067 20.1763 32.0059C19.2134 32.2169 17.8115 32.4266 17.8073 33.5106C17.8054 33.9883 18.0901 34.4302 18.4155 34.6951C18.1951 33.6865 18.5697 32.1951 19.76 32.8063ZM20.9447 38.7929C20.9738 38.5761 20.6175 38.4243 20.4965 38.5689C20.6145 38.6749 20.7992 38.7141 20.9447 38.7929ZM19.8241 39.2091C20.0505 39.9963 20.1242 40.9367 20.7205 41.3541C20.6308 40.43 20.3029 39.7442 19.8241 39.2091ZM21.1687 38.3767C21.2684 37.9248 20.6054 37.7478 20.5605 38.0565C20.5214 38.3254 20.9454 38.2942 21.1687 38.3767ZM21.2969 37.5122C21.1523 37.3542 20.7896 37.2562 20.5286 37.3202C20.6207 37.5468 21.1874 37.8822 21.2969 37.5122ZM20.9127 36.1037C21.0573 36.0135 21.2108 35.932 21.2327 35.7193C21.0469 35.5803 20.6022 35.5606 20.5605 35.7837C20.529 35.9523 20.755 36.0206 20.9127 36.1037ZM21.3289 36.6478C21.3429 36.5378 21.3162 36.4685 21.2969 36.3917C21.1326 36.3876 21.056 36.471 21.0408 36.616C21.1205 36.6428 21.2123 36.6578 21.3289 36.6478ZM19.0879 36.4878C19.0632 36.4058 19.0558 36.3064 18.9919 36.2638C18.9123 36.3499 18.9092 36.5047 19.0879 36.4878ZM19.408 34.311C19.2644 34.2549 19.0517 34.3147 18.9919 34.4389C19.059 34.4996 19.1558 34.5312 19.248 34.5668C19.2803 34.4609 19.4251 34.4667 19.408 34.311ZM19.76 38.4407C19.6772 38.2568 19.6668 38.0005 19.504 37.8966C19.0657 37.9589 19.5 38.5887 19.76 38.4407ZM20.3683 41.8981C20.6809 42.6539 21.0108 43.4706 21.6811 43.8189C21.1799 43.2614 21.0616 42.3388 20.7205 41.674C20.6026 41.4446 20.4144 41.2663 20.3044 41.0339C20.0455 40.4868 19.9262 39.8485 19.408 39.5932C19.6123 40.3983 20.0497 41.1269 20.3683 41.8981ZM29.1725 53.9037C28.9787 53.2439 28.4587 52.9098 27.7318 52.7832C27.5521 52.3546 27.0335 52.2653 26.9315 51.7588C26.9149 51.6548 27.1298 51.6181 27.0597 51.5667C26.0853 51.7513 26.0509 50.7185 25.5869 50.286C24.4161 50.3072 24.6339 48.8585 23.9862 48.1093C23.8012 47.8949 23.6178 47.8455 23.4099 47.6292C23.09 46.6377 22.2551 46.1347 21.7772 45.2602C21.3527 44.4831 21.2634 43.6065 20.5607 43.051C21.1167 44.9334 22.3079 46.5246 23.378 48.1094C24.2345 49.3774 24.817 50.585 25.779 51.5987C26.1058 51.9427 26.4749 52.1731 26.8676 52.495C27.5355 53.0427 27.9954 54.0586 29.1725 53.9037ZM29.0443 51.7266C29.0098 51.5895 28.7629 51.497 28.6281 51.5667C28.7523 51.635 28.8887 51.6903 29.0443 51.7266ZM30.2288 50.8942C30.0119 50.6415 29.5579 50.5453 29.1404 50.3821C28.6225 50.1794 27.8836 49.9874 27.5077 50.222C27.5455 50.5361 27.7958 50.6381 27.9558 50.8302C28.4006 50.8987 28.6551 51.1157 29.0762 51.1502C29.5726 51.1912 30.0361 51.1691 30.2288 50.8942ZM45.4997 58.1938C44.5309 57.752 43.1101 58.249 42.0741 58.0014C41.8785 57.9546 41.7056 57.8202 41.5299 57.8094C41.3551 57.7987 41.1517 57.891 40.9857 57.9056C40.0984 57.9845 39.2884 57.8968 38.4568 57.7772C37.8733 57.6934 37.2518 57.6606 36.7277 57.5212C36.2258 57.388 35.7066 57.0807 35.191 56.8809C34.6678 56.6785 34.1231 56.4767 33.6223 56.2727C32.6344 55.8702 31.5844 55.1736 30.5489 54.8962C31.2474 55.6382 32.45 55.8767 33.2703 56.4969C32.1111 56.1727 31.2364 55.5642 30.1969 55.1203C31.0068 55.8455 32.1369 56.2847 33.2703 56.7528C34.399 57.2194 35.6255 57.6141 36.9517 57.8093C39.5862 58.1974 42.6761 58.7737 45.4997 58.1938ZM46.332 58.0976C46.1676 58.1042 45.9629 58.0699 45.948 58.2257C46.0873 58.3452 46.3216 58.3328 46.332 58.0976ZM48.0608 54.3198C48.1062 54.5564 48.4497 54.4858 48.4133 54.2237C48.2387 54.1989 48.1631 54.2731 48.0608 54.3198ZM50.718 55.9846C49.8573 55.9638 48.7957 55.6665 47.9005 55.6967C47.5571 55.7081 47.1397 55.7903 47.0363 56.1443C47.3005 56.2515 47.5834 56.1872 47.9005 56.1768C48.9389 56.1417 50.2076 56.6083 50.718 55.9846ZM51.5825 55.9205C51.4327 55.9202 51.3886 56.0258 51.3583 56.1443C51.3995 56.1885 51.4973 56.1765 51.5825 56.1768C51.5673 56.0352 51.6264 56.0174 51.5825 55.9205ZM53.4714 55.7926C53.3151 55.7689 53.2569 55.9632 53.3112 56.0489C53.4119 56.0641 53.4363 56.0031 53.5035 55.9846C53.5266 55.8867 53.4483 55.8903 53.4714 55.7926ZM56.1283 55.9846C55.473 55.9147 54.7076 55.9579 54.1117 56.0489C54.4626 56.3792 55.7228 56.1684 56.1283 55.9846ZM25.3307 36.5196C25.6465 36.6951 25.9379 37.0648 26.3552 37.032C26.2425 36.878 26.0826 36.771 25.9708 36.616C26.0898 36.6066 26.1908 36.5798 26.227 36.4878C25.8376 36.2154 25.3383 35.8827 25.1386 35.5271C25.2704 35.7825 25.4721 36.1894 25.3307 36.5196ZM29.4286 36.776C29.3601 36.7059 29.3909 36.536 29.3004 36.4879C29.28 36.6272 29.3701 36.822 29.4286 36.776ZM26.4832 39.5614C26.5323 40.0885 26.8691 40.3275 26.8994 40.8739C26.5251 40.4478 26.3162 39.8562 26.067 39.3049C26.0426 39.9717 26.2441 40.3849 26.4192 40.842C26.554 41.1932 26.6803 41.6055 27.0274 41.7063C27.1895 41.676 27.1805 41.4746 27.3478 41.4499C27.5258 41.4756 27.6184 41.7549 27.7318 41.7384C27.6463 41.6423 27.6197 41.4876 27.6037 41.3222C27.6347 41.2036 27.8042 41.2238 27.8598 41.1299C27.5378 40.4703 27.0763 39.9498 26.4832 39.5614Z" fill="white"/>
</g>
<g filter="url(#filter1_f_44_360)">
<ellipse cx="33.5" cy="60.5" rx="11.5" ry="6.5" fill="#11B0FF"/>
</g>
</g>
<rect x="9" y="13" width="56" height="56" rx="12" stroke="url(#paint1_linear_44_360)" stroke-opacity="0.5" stroke-width="0.8" shape-rendering="crispEdges"/>
</g>
<defs>
<filter id="filter0_bdi_44_360" x="-11.4" y="-7.40002" width="100.8" height="96.8" filterUnits="userSpaceOnUse" color-interpolation-filters="sRGB">
<feFlood flood-opacity="0" result="BackgroundImageFix"/>
<feGaussianBlur in="BackgroundImageFix" stdDeviation="10"/>
<feComposite in2="SourceAlpha" operator="in" result="effect1_backgroundBlur_44_360"/>
<feColorMatrix in="SourceAlpha" type="matrix" values="0 0 0 0 0 0 0 0 0 0 0 0 0 0 0 0 0 0 127 0" result="hardAlpha"/>
<feOffset dx="8" dy="4"/>
<feGaussianBlur stdDeviation="8"/>
<feComposite in2="hardAlpha" operator="out"/>
<feColorMatrix type="matrix" values="0 0 0 0 0 0 0 0 0 0 0 0 0 0 0 0 0 0 0.08 0"/>
<feBlend mode="normal" in2="effect1_backgroundBlur_44_360" result="effect2_dropShadow_44_360"/>
<feBlend mode="normal" in="SourceGraphic" in2="effect2_dropShadow_44_360" result="shape"/>
<feColorMatrix in="SourceAlpha" type="matrix" values="0 0 0 0 0 0 0 0 0 0 0 0 0 0 0 0 0 0 127 0" result="hardAlpha"/>
<feOffset/>
<feGaussianBlur stdDeviation="4"/>
<feComposite in2="hardAlpha" operator="arithmetic" k2="-1" k3="1"/>
<feColorMatrix type="matrix" values="0 0 0 0 0.0509804 0 0 0 0 0.932 0 0 0 0 0.988235 0 0 0 0.32 0"/>
<feBlend mode="normal" in2="shape" result="effect3_innerShadow_44_360"/>
</filter>
<filter id="filter1_f_44_360" x="4" y="36" width="59" height="49" filterUnits="userSpaceOnUse" color-interpolation-filters="sRGB">
<feFlood flood-opacity="0" result="BackgroundImageFix"/>
<feBlend mode="normal" in="SourceGraphic" in2="BackgroundImageFix" result="shape"/>
<feGaussianBlur stdDeviation="9" result="effect1_foregroundBlur_44_360"/>
</filter>
<linearGradient id="paint0_linear_44_360" x1="9" y1="13" x2="65" y2="69" gradientUnits="userSpaceOnUse">
<stop stop-color="#F8FBFF"/>
<stop offset="1" stop-color="white" stop-opacity="0"/>
</linearGradient>
<linearGradient id="paint1_linear_44_360" x1="10.1667" y1="11.8333" x2="63.25" y2="69" gradientUnits="userSpaceOnUse">
<stop stop-color="#D8D8D8" stop-opacity="0.05"/>
<stop offset="1" stop-color="white" stop-opacity="0.4"/>
</linearGradient>
<clipPath id="clip0_44_360">
<rect x="9" y="13" width="56" height="56" rx="12" fill="white"/>
</clipPath>
<clipPath id="clip1_44_360">
<rect width="40" height="40" fill="white" transform="translate(17 21)"/>
</clipPath>
</defs>
</svg>
