<svg width="93" height="90" viewBox="0 0 93 90" fill="none" xmlns="http://www.w3.org/2000/svg">
<g opacity="0.7" filter="url(#filter0_bdi_33_156)">
<g clip-path="url(#clip0_33_156)">
<rect x="12" y="13" width="56" height="56" rx="12" fill="url(#paint0_linear_33_156)" fill-opacity="0.04" shape-rendering="crispEdges"/>
<path fill-rule="evenodd" clip-rule="evenodd" d="M49.0143 33.0545C49.6161 34.7956 50.0496 36.5731 50.1921 38.4155C50.3691 40.7011 50.2881 42.9706 49.8063 45.2188C49.7931 45.2806 49.7654 45.3388 49.7448 45.3988C49.5936 45.3991 49.4395 45.3804 49.2918 45.4033C48.0434 45.5994 46.7961 45.8026 45.5489 46.0048C44.2596 46.2136 42.9685 46.4143 41.6815 46.6374C41.2255 46.7161 40.6611 46.622 40.477 47.2528C40.4718 47.27 40.4193 47.273 40.3889 47.2828L40.4511 43.5136L40.3878 34.4191L40.9885 34.316C41.971 34.1551 42.9535 33.992 43.9368 33.8356C45.1101 33.6493 46.2846 33.4681 47.4588 33.2863C47.9766 33.2056 48.4953 33.1318 49.0143 33.0545Z" fill="#439934"/>
<path fill-rule="evenodd" clip-rule="evenodd" d="M39.1484 58.2703C38.5146 57.7254 37.8588 57.2045 37.2513 56.6315C33.9824 53.5483 31.5914 49.9194 30.4139 45.5443C30.0895 44.3402 29.8731 43.1165 29.8038 41.8723C29.755 41.0015 29.6845 40.1229 29.746 39.2567C29.9099 36.9527 30.2429 34.6708 30.9186 32.4515L30.9558 32.3998C31.0214 32.4872 31.1159 32.5644 31.1493 32.663C31.8089 34.6055 32.4636 36.5495 33.115 38.4947C35.1618 44.6072 37.2059 50.7212 39.256 56.8322C39.2961 56.9514 39.4 57.0493 39.4746 57.1569L39.1484 58.2703Z" fill="#45A538"/>
<path fill-rule="evenodd" clip-rule="evenodd" d="M49.0143 33.0545C48.4953 33.1318 47.9763 33.2056 47.4584 33.2855C46.2843 33.4674 45.1098 33.6485 43.9364 33.8349C42.9531 33.9913 41.9706 34.1544 40.9881 34.3153L40.3874 34.4184L40.3829 34.0265C40.363 33.7044 40.3289 33.3826 40.3251 33.0605C40.2993 31.0063 40.2831 28.952 40.2576 26.8978C40.2419 25.6119 40.2183 24.3264 40.192 23.0409C40.1759 22.2421 40.1586 21.443 40.1226 20.6454C40.1031 20.2168 40.0341 19.7904 40.006 19.3618C39.9903 19.1154 40.012 18.8671 40.0169 18.6196C40.3233 19.2133 40.6229 19.8114 40.9379 20.4005C41.4355 21.332 42.2283 22.0183 42.9419 22.7671C45.763 25.7266 47.7659 29.1676 49.0143 33.0545Z" fill="#46A037"/>
<path fill-rule="evenodd" clip-rule="evenodd" d="M40.3885 47.2824C40.4189 47.2727 40.4718 47.2697 40.4766 47.2524C40.6608 46.6217 41.2251 46.7158 41.6811 46.637C42.9681 46.4143 44.2593 46.2133 45.5485 46.0044C46.7958 45.8023 48.043 45.599 49.2914 45.4029C49.4391 45.3797 49.5933 45.3988 49.7444 45.3984C49.5111 46.2309 49.3274 47.0814 49.0315 47.891C48.6955 48.8094 48.289 49.7057 47.8574 50.5843C47.2112 51.8948 46.4115 53.1238 45.475 54.2454C44.7554 55.1109 43.9533 55.9108 43.1493 56.7009C42.7049 57.1378 42.181 57.4937 41.6935 57.8863L41.5671 57.8L41.1119 57.4108L40.6409 56.3784C40.3192 55.1741 40.1436 53.9354 40.1181 52.6892L40.1268 52.4788L40.1909 51.569C40.2123 51.2585 40.2408 50.9484 40.2539 50.6372C40.3023 49.5189 40.3443 48.4007 40.3885 47.2824Z" fill="#409433"/>
<path fill-rule="evenodd" clip-rule="evenodd" d="M40.3885 47.2824C40.3443 48.4006 40.3023 49.5189 40.2546 50.6375C40.2415 50.9487 40.213 51.2589 40.1916 51.5694L39.9048 51.6777C39.2676 49.802 38.6301 47.9461 38.0065 46.0854C36.9753 43.007 35.9564 39.9237 34.9266 36.8446C34.0949 34.3593 33.2574 31.8759 32.4141 29.3945C32.3748 29.2782 32.2615 29.1875 32.1828 29.0847L34.0188 25.709C34.0818 25.8185 34.165 25.9209 34.2048 26.0386C35.0551 28.5519 35.9011 31.0667 36.7428 33.5829C37.8363 36.8566 38.923 40.133 40.0158 43.4071C40.0593 43.538 40.1313 43.6587 40.1999 43.8054L40.4511 43.5129L40.3885 47.2824Z" fill="#4FAA41"/>
<path fill-rule="evenodd" clip-rule="evenodd" d="M32.1831 29.0851C32.2619 29.1879 32.3748 29.2786 32.4145 29.3949C33.2578 31.8763 34.0953 34.3597 34.927 36.845C35.9568 39.9241 36.9756 43.0074 38.0069 46.0858C38.6301 47.9461 39.2676 49.8024 39.9051 51.6781L40.192 51.5698L40.1279 52.4795L40.0698 52.6891C39.97 53.6851 39.886 54.6834 39.7645 55.6771C39.7034 56.1751 39.5736 56.6641 39.475 57.1573C39.4008 57.0496 39.2965 56.9518 39.2564 56.8325C37.2063 50.7211 35.1621 44.6075 33.1154 38.495C32.4642 36.5498 31.809 34.6059 31.1496 32.6634C31.1163 32.5648 31.0221 32.4875 30.9561 32.4001L32.1831 29.0851Z" fill="#4AA73C"/>
<path fill-rule="evenodd" clip-rule="evenodd" d="M40.4507 43.5132L40.1995 43.8057C40.1309 43.6591 40.0589 43.538 40.0154 43.4075C38.923 40.1333 37.8359 36.857 36.7424 33.5832C35.9007 31.067 35.0547 28.5523 34.2044 26.039C34.165 25.9212 34.0817 25.8185 34.0184 25.7093L36.289 22.7225C36.3606 22.8181 36.4626 22.9032 36.4997 23.0108C37.1301 24.8562 37.7549 26.7038 38.3759 28.5526C38.956 30.2791 39.5275 32.0082 40.1144 33.7325C40.1537 33.848 40.2906 33.9297 40.3821 34.0272L40.3866 34.4191C40.4084 37.4498 40.4297 40.4817 40.4507 43.5132Z" fill="#57AE47"/>
<path fill-rule="evenodd" clip-rule="evenodd" d="M40.3829 34.0265C40.2914 33.929 40.1545 33.8473 40.1151 33.7318C39.5282 32.0075 38.9568 30.2784 38.3766 28.5519C37.7556 26.7031 37.1309 24.8559 36.5005 23.0101C36.4634 22.9025 36.3614 22.8174 36.2897 22.7218C37.0281 21.9988 37.7436 21.2499 38.5116 20.5603C39.1945 19.9475 39.7435 19.2905 39.7686 18.3223C39.7697 18.2821 39.7907 18.242 39.823 18.1295L40.0176 18.6193C40.0127 18.8671 39.9906 19.115 40.0067 19.3614C40.0349 19.79 40.1039 20.2164 40.1234 20.645C40.1594 21.4426 40.1766 22.2418 40.1927 23.0405C40.2186 24.326 40.2423 25.6115 40.2584 26.8974C40.2835 28.9516 40.3 31.0059 40.3259 33.0601C40.3289 33.383 40.3626 33.7044 40.3829 34.0265Z" fill="#60B24F"/>
<path fill-rule="evenodd" clip-rule="evenodd" d="M39.4742 57.1569C39.5729 56.6637 39.7026 56.1744 39.7637 55.6767C39.8856 54.6834 39.9692 53.6847 40.069 52.6887L40.0937 52.685L40.1185 52.6891C40.144 53.9354 40.3195 55.1741 40.6412 56.3784C40.5752 56.4654 40.4819 56.543 40.447 56.6412C40.1744 57.41 39.9175 58.1847 39.6434 58.9535C39.6059 59.0585 39.5016 59.1402 39.4281 59.2325L39.148 58.2702L39.4742 57.1569Z" fill="#A9AA88"/>
<path fill-rule="evenodd" clip-rule="evenodd" d="M39.4285 59.2328C39.502 59.1406 39.6066 59.0588 39.6437 58.9538C39.9179 58.1851 40.1751 57.4107 40.4474 56.6416C40.4822 56.5433 40.5752 56.4657 40.6416 56.3787L41.1122 57.4115C41.0192 57.5435 40.891 57.6623 40.8392 57.8093L39.9377 60.4565C39.9006 60.5626 39.7739 60.6376 39.6891 60.7272L39.4285 59.2328Z" fill="#B6B598"/>
<path fill-rule="evenodd" clip-rule="evenodd" d="M39.6891 60.7269C39.7742 60.6376 39.9006 60.5623 39.9377 60.4561L40.8392 57.809C40.8906 57.6624 41.0192 57.5431 41.1122 57.4111L41.5679 57.8C41.3477 58.0175 41.2255 58.2688 41.299 58.5864L41.1606 59.0394C41.0976 59.117 41.0065 59.1845 40.9754 59.2734C40.6607 60.1745 40.3604 61.0805 40.0435 61.9816C40.0034 62.096 39.892 62.1856 39.8132 62.2861C39.7724 61.766 39.7307 61.247 39.6891 60.7269Z" fill="#C2C1A7"/>
<path fill-rule="evenodd" clip-rule="evenodd" d="M39.8136 62.2861C39.892 62.1852 40.0034 62.0956 40.0439 61.9816C40.3608 61.0809 40.6611 60.1749 40.9758 59.2734C41.0069 59.1849 41.0976 59.117 41.161 59.0394L40.9701 61.1187C40.9191 61.1776 40.8453 61.229 40.8209 61.2976C40.6053 61.9029 40.402 62.5126 40.1856 63.1179C40.141 63.2427 40.0555 63.353 39.9888 63.4696C39.9295 63.392 39.8234 63.317 39.8185 63.236C39.7994 62.9206 39.8125 62.603 39.8136 62.2861Z" fill="#CECDB7"/>
<path fill-rule="evenodd" clip-rule="evenodd" d="M39.9884 63.4696C40.0551 63.3526 40.1406 63.2424 40.1852 63.1179C40.402 62.513 40.6049 61.9033 40.8205 61.2976C40.8449 61.229 40.9191 61.178 40.9697 61.1188L40.9742 62.4838L40.5175 63.6553L39.9884 63.4696Z" fill="#DBDAC7"/>
<path fill-rule="evenodd" clip-rule="evenodd" d="M40.5175 63.6556L40.9743 62.4841L41.0684 63.8701L40.5175 63.6556Z" fill="#EBE9DC"/>
<path fill-rule="evenodd" clip-rule="evenodd" d="M41.299 58.5867C41.2255 58.2691 41.3474 58.0175 41.5679 57.8004L41.6943 57.8866L41.299 58.5867Z" fill="#CECDB7"/>
<path fill-rule="evenodd" clip-rule="evenodd" d="M40.1185 52.6895L40.0938 52.6854L40.069 52.6891L40.1271 52.4795L40.1185 52.6895Z" fill="#4FAA41"/>
<g filter="url(#filter1_f_33_156)">
<ellipse cx="36.5" cy="60.5" rx="11.5" ry="6.5" fill="#61BC2D"/>
</g>
</g>
<rect x="12" y="13" width="56" height="56" rx="12" stroke="url(#paint1_linear_33_156)" stroke-opacity="0.5" stroke-width="0.8" shape-rendering="crispEdges"/>
</g>
<g style="mix-blend-mode:screen" filter="url(#filter2_f_33_156)">
<circle cx="29" cy="30" r="9" fill="white" fill-opacity="0.18"/>
</g>
<defs>
<filter id="filter0_bdi_33_156" x="-8.39999" y="-7.40002" width="100.8" height="96.8" filterUnits="userSpaceOnUse" color-interpolation-filters="sRGB">
<feFlood flood-opacity="0" result="BackgroundImageFix"/>
<feGaussianBlur in="BackgroundImageFix" stdDeviation="10"/>
<feComposite in2="SourceAlpha" operator="in" result="effect1_backgroundBlur_33_156"/>
<feColorMatrix in="SourceAlpha" type="matrix" values="0 0 0 0 0 0 0 0 0 0 0 0 0 0 0 0 0 0 127 0" result="hardAlpha"/>
<feOffset dx="8" dy="4"/>
<feGaussianBlur stdDeviation="8"/>
<feComposite in2="hardAlpha" operator="out"/>
<feColorMatrix type="matrix" values="0 0 0 0 0 0 0 0 0 0 0 0 0 0 0 0 0 0 0.08 0"/>
<feBlend mode="normal" in2="effect1_backgroundBlur_33_156" result="effect2_dropShadow_33_156"/>
<feBlend mode="normal" in="SourceGraphic" in2="effect2_dropShadow_33_156" result="shape"/>
<feColorMatrix in="SourceAlpha" type="matrix" values="0 0 0 0 0 0 0 0 0 0 0 0 0 0 0 0 0 0 127 0" result="hardAlpha"/>
<feOffset/>
<feGaussianBlur stdDeviation="4"/>
<feComposite in2="hardAlpha" operator="arithmetic" k2="-1" k3="1"/>
<feColorMatrix type="matrix" values="0 0 0 0 0.380392 0 0 0 0 0.737255 0 0 0 0 0.176471 0 0 0 0.36 0"/>
<feBlend mode="normal" in2="shape" result="effect3_innerShadow_33_156"/>
</filter>
<filter id="filter1_f_33_156" x="7" y="36" width="59" height="49" filterUnits="userSpaceOnUse" color-interpolation-filters="sRGB">
<feFlood flood-opacity="0" result="BackgroundImageFix"/>
<feBlend mode="normal" in="SourceGraphic" in2="BackgroundImageFix" result="shape"/>
<feGaussianBlur stdDeviation="9" result="effect1_foregroundBlur_33_156"/>
</filter>
<filter id="filter2_f_33_156" x="0" y="1" width="58" height="58" filterUnits="userSpaceOnUse" color-interpolation-filters="sRGB">
<feFlood flood-opacity="0" result="BackgroundImageFix"/>
<feBlend mode="normal" in="SourceGraphic" in2="BackgroundImageFix" result="shape"/>
<feGaussianBlur stdDeviation="10" result="effect1_foregroundBlur_33_156"/>
</filter>
<linearGradient id="paint0_linear_33_156" x1="12" y1="13" x2="68" y2="69" gradientUnits="userSpaceOnUse">
<stop stop-color="#F8FBFF"/>
<stop offset="1" stop-color="white" stop-opacity="0"/>
</linearGradient>
<linearGradient id="paint1_linear_33_156" x1="13.1667" y1="11.8333" x2="66.25" y2="69" gradientUnits="userSpaceOnUse">
<stop stop-color="#D8D8D8" stop-opacity="0.05"/>
<stop offset="1" stop-color="white" stop-opacity="0.4"/>
</linearGradient>
<clipPath id="clip0_33_156">
<rect x="12" y="13" width="56" height="56" rx="12" fill="white"/>
</clipPath>
</defs>
</svg>
