<svg width="93" height="90" viewBox="0 0 93 90" fill="none" xmlns="http://www.w3.org/2000/svg">
<g filter="url(#filter0_bdi_33_113)">
<g clip-path="url(#clip0_33_113)">
<rect x="12" y="13" width="56" height="56" rx="12" fill="url(#paint0_linear_33_113)" fill-opacity="0.04" shape-rendering="crispEdges"/>
<g clip-path="url(#clip1_33_113)">
<path d="M56.5462 51.5647C54.4016 51.5062 52.7637 51.7059 51.3634 52.2962C50.9656 52.4641 50.3306 52.4687 50.2656 52.9672C50.4844 53.1962 50.5184 53.5387 50.6922 53.8206C51.0266 54.3612 51.5909 55.0869 52.0947 55.4669C52.6453 55.8825 53.2125 56.3266 53.8025 56.6862C54.8519 57.3259 56.0234 57.6916 57.0337 58.3325C57.6294 58.7106 58.2209 59.1866 58.8019 59.6128C59.0894 59.8237 59.2822 60.1516 59.6556 60.2837V60.2231C59.4594 59.9731 59.4087 59.63 59.2287 59.3691L58.4359 58.5762C57.6609 57.5475 56.6769 56.6437 55.6309 55.8934C54.7969 55.2947 52.9303 54.4859 52.5825 53.5156L52.5216 53.4547C53.1128 53.3878 53.805 53.1741 54.3509 53.0275C55.2678 52.7819 56.0872 52.8453 57.0337 52.6009L58.3141 52.235V51.9912C57.8356 51.5003 57.4944 50.8503 56.9728 50.4059C55.6072 49.2434 54.1172 48.0819 52.5828 47.1131C51.7316 46.5762 50.68 46.2272 49.7778 45.7719C49.4744 45.6184 48.9412 45.5387 48.7409 45.2837C48.2669 44.68 48.0091 43.9144 47.6437 43.2109C46.8784 41.7369 46.1269 40.1272 45.4487 38.5762C44.9862 37.5187 44.6841 36.4762 44.1072 35.5275C41.3384 30.9753 38.3584 28.2281 33.7419 25.5275C32.7594 24.9531 31.5766 24.7266 30.3266 24.4297C29.6562 24.3894 28.9853 24.3484 28.3147 24.3075C27.905 24.1369 27.4794 23.6359 27.0953 23.3928C25.5659 22.4266 21.6428 20.325 20.5103 23.0881C19.795 24.8322 21.5794 26.5334 22.2172 27.4175C22.6653 28.0369 23.2387 28.7322 23.5587 29.4294C23.7694 29.8878 23.8056 30.3475 23.9859 30.8322C24.4287 32.0266 24.8147 33.3259 25.3881 34.4294C25.6778 34.9881 25.9972 35.5762 26.3637 36.0756C26.5881 36.3822 26.9734 36.5172 27.0341 36.9903C26.6578 37.5172 26.6362 38.3353 26.4247 39.0028C25.4716 42.0075 25.8312 45.7425 27.2175 47.9662C27.6425 48.6494 28.6447 50.1134 30.0222 49.5516C31.2272 49.0609 30.9581 47.5397 31.3028 46.1978C31.3806 45.8937 31.3328 45.67 31.4856 45.4662V45.5272L32.5834 47.7222C33.3959 49.0306 34.8372 50.3978 36.0591 51.3203C36.6925 51.7987 37.1912 52.6256 38.0103 52.9056V52.8444H37.9494C37.7906 52.5972 37.5422 52.4947 37.3397 52.2959C36.8625 51.8281 36.3319 51.2466 35.9375 50.7106C34.8262 49.2022 33.8444 47.5512 32.9497 45.8328C32.5222 45.0119 32.1506 44.1069 31.7906 43.2716C31.6519 42.9497 31.6537 42.4625 31.3644 42.2959C30.9697 42.9078 30.3887 43.4028 30.0837 44.1253C29.5959 45.2803 29.5331 46.6891 29.3522 48.1497C29.2453 48.1878 29.2928 48.1616 29.23 48.2103C28.3806 48.0056 28.0825 47.1316 27.7666 46.3812C26.9684 44.4844 26.82 41.4306 27.5225 39.2472C27.7044 38.6819 28.5256 36.9031 28.1931 36.3809C28.0344 35.8603 27.5106 35.5591 27.2178 35.1612C26.855 34.6694 26.4931 34.0219 26.2416 33.4537C25.5884 31.9753 25.2834 30.315 24.5956 28.82C24.2666 28.1053 23.7106 27.3819 23.2541 26.7469C22.7487 26.0428 22.1825 25.5244 21.7906 24.6734C21.6512 24.3709 21.4622 23.8866 21.6684 23.5756C21.7341 23.3659 21.8272 23.2784 22.0344 23.21C22.3881 22.9372 23.3731 23.3006 23.7412 23.4534C24.7191 23.8597 25.5353 24.2466 26.3637 24.7953C26.7609 25.0591 27.1634 25.5687 27.6441 25.71H28.1928C29.0512 25.9072 30.0128 25.7709 30.815 26.0147C32.2325 26.4453 33.5028 27.1156 34.6562 27.8441C38.1706 30.0634 41.0444 33.2222 43.01 36.9906C43.3262 37.5975 43.4631 38.1762 43.7416 38.82C44.3034 40.1178 45.0112 41.4531 45.5703 42.7225C46.1284 43.9887 46.6722 45.2666 47.4609 46.3203C47.8756 46.8741 49.4769 47.1712 50.205 47.4791C50.715 47.6944 51.5509 47.9194 52.0344 48.2103C52.9572 48.7672 53.8516 49.43 54.7175 50.04C55.1497 50.3447 56.48 51.0137 56.5462 51.5647ZM29.2903 28.3331C28.8431 28.3247 28.5269 28.3819 28.1925 28.4547V28.5156H28.2534C28.4669 28.9537 28.8434 29.2362 29.1069 29.6134C29.31 30.0406 29.5134 30.4672 29.7169 30.8937L29.7775 30.8334C30.1553 30.5669 30.3281 30.1416 30.3259 29.4916C30.1747 29.3325 30.1525 29.1331 30.0212 28.9431C29.8475 28.6897 29.5103 28.5456 29.2903 28.3331Z" fill="#76A9FA"/>
</g>
<g filter="url(#filter1_f_33_113)">
<ellipse cx="36.5" cy="60.5" rx="11.5" ry="6.5" fill="#6E81E5"/>
</g>
</g>
<rect x="12" y="13" width="56" height="56" rx="12" stroke="url(#paint1_linear_33_113)" stroke-opacity="0.5" stroke-width="0.8" shape-rendering="crispEdges"/>
</g>
<g style="mix-blend-mode:screen" filter="url(#filter2_f_33_113)">
<circle cx="29" cy="30" r="9" fill="white" fill-opacity="0.18"/>
</g>
<defs>
<filter id="filter0_bdi_33_113" x="-8.39999" y="-7.39999" width="100.8" height="96.8" filterUnits="userSpaceOnUse" color-interpolation-filters="sRGB">
<feFlood flood-opacity="0" result="BackgroundImageFix"/>
<feGaussianBlur in="BackgroundImageFix" stdDeviation="10"/>
<feComposite in2="SourceAlpha" operator="in" result="effect1_backgroundBlur_33_113"/>
<feColorMatrix in="SourceAlpha" type="matrix" values="0 0 0 0 0 0 0 0 0 0 0 0 0 0 0 0 0 0 127 0" result="hardAlpha"/>
<feOffset dx="8" dy="4"/>
<feGaussianBlur stdDeviation="8"/>
<feComposite in2="hardAlpha" operator="out"/>
<feColorMatrix type="matrix" values="0 0 0 0 0 0 0 0 0 0 0 0 0 0 0 0 0 0 0.08 0"/>
<feBlend mode="normal" in2="effect1_backgroundBlur_33_113" result="effect2_dropShadow_33_113"/>
<feBlend mode="normal" in="SourceGraphic" in2="effect2_dropShadow_33_113" result="shape"/>
<feColorMatrix in="SourceAlpha" type="matrix" values="0 0 0 0 0 0 0 0 0 0 0 0 0 0 0 0 0 0 127 0" result="hardAlpha"/>
<feOffset/>
<feGaussianBlur stdDeviation="4"/>
<feComposite in2="hardAlpha" operator="arithmetic" k2="-1" k3="1"/>
<feColorMatrix type="matrix" values="0 0 0 0 0.431373 0 0 0 0 0.505882 0 0 0 0 0.898039 0 0 0 0.32 0"/>
<feBlend mode="normal" in2="shape" result="effect3_innerShadow_33_113"/>
</filter>
<filter id="filter1_f_33_113" x="7" y="36" width="59" height="49" filterUnits="userSpaceOnUse" color-interpolation-filters="sRGB">
<feFlood flood-opacity="0" result="BackgroundImageFix"/>
<feBlend mode="normal" in="SourceGraphic" in2="BackgroundImageFix" result="shape"/>
<feGaussianBlur stdDeviation="9" result="effect1_foregroundBlur_33_113"/>
</filter>
<filter id="filter2_f_33_113" x="0" y="1" width="58" height="58" filterUnits="userSpaceOnUse" color-interpolation-filters="sRGB">
<feFlood flood-opacity="0" result="BackgroundImageFix"/>
<feBlend mode="normal" in="SourceGraphic" in2="BackgroundImageFix" result="shape"/>
<feGaussianBlur stdDeviation="10" result="effect1_foregroundBlur_33_113"/>
</filter>
<linearGradient id="paint0_linear_33_113" x1="12" y1="13" x2="68" y2="69" gradientUnits="userSpaceOnUse">
<stop stop-color="#F8FBFF"/>
<stop offset="1" stop-color="white" stop-opacity="0"/>
</linearGradient>
<linearGradient id="paint1_linear_33_113" x1="13.1667" y1="11.8333" x2="66.25" y2="69" gradientUnits="userSpaceOnUse">
<stop stop-color="#D8D8D8" stop-opacity="0.05"/>
<stop offset="1" stop-color="white" stop-opacity="0.4"/>
</linearGradient>
<clipPath id="clip0_33_113">
<rect x="12" y="13" width="56" height="56" rx="12" fill="white"/>
</clipPath>
<clipPath id="clip1_33_113">
<rect width="40" height="40" fill="white" transform="translate(20 21)"/>
</clipPath>
</defs>
</svg>
