<svg width="89" height="90" viewBox="0 0 89 90" fill="none" xmlns="http://www.w3.org/2000/svg">
<g filter="url(#filter0_bdi_5_5594)">
<g clip-path="url(#clip0_5_5594)">
<rect x="8.5" y="13" width="56" height="56" rx="12" fill="url(#paint0_linear_5_5594)" fill-opacity="0.04" shape-rendering="crispEdges"/>
<g clip-path="url(#clip1_5_5594)">
<path d="M36.5 21C25.4688 21 16.5 29.9688 16.5 41C16.5 52.0312 25.4688 61 36.5 61C40 61 43.2812 60.0938 46.125 58.5312L31.625 38.2812V49.7188H29.5V34.0625H31.625L47.4062 57.75C52.875 54.1875 56.5 48.0312 56.5 41C56.5 29.9688 47.5312 21 36.5 21ZM43.4062 47.4375L41.0625 43.9062V34.0625H43.4062V47.4375Z" fill="#E5E7EB"/>
</g>
<g filter="url(#filter1_f_5_5594)">
<ellipse cx="33" cy="60.5" rx="11.5" ry="6.5" fill="white"/>
</g>
</g>
<rect x="8.5" y="13" width="56" height="56" rx="12" stroke="url(#paint1_linear_5_5594)" stroke-opacity="0.5" stroke-width="0.8" shape-rendering="crispEdges"/>
</g>
<defs>
<filter id="filter0_bdi_5_5594" x="-11.9" y="-7.39999" width="100.8" height="96.8" filterUnits="userSpaceOnUse" color-interpolation-filters="sRGB">
<feFlood flood-opacity="0" result="BackgroundImageFix"/>
<feGaussianBlur in="BackgroundImageFix" stdDeviation="10"/>
<feComposite in2="SourceAlpha" operator="in" result="effect1_backgroundBlur_5_5594"/>
<feColorMatrix in="SourceAlpha" type="matrix" values="0 0 0 0 0 0 0 0 0 0 0 0 0 0 0 0 0 0 127 0" result="hardAlpha"/>
<feOffset dx="8" dy="4"/>
<feGaussianBlur stdDeviation="8"/>
<feComposite in2="hardAlpha" operator="out"/>
<feColorMatrix type="matrix" values="0 0 0 0 0 0 0 0 0 0 0 0 0 0 0 0 0 0 0.08 0"/>
<feBlend mode="normal" in2="effect1_backgroundBlur_5_5594" result="effect2_dropShadow_5_5594"/>
<feBlend mode="normal" in="SourceGraphic" in2="effect2_dropShadow_5_5594" result="shape"/>
<feColorMatrix in="SourceAlpha" type="matrix" values="0 0 0 0 0 0 0 0 0 0 0 0 0 0 0 0 0 0 127 0" result="hardAlpha"/>
<feOffset/>
<feGaussianBlur stdDeviation="4"/>
<feComposite in2="hardAlpha" operator="arithmetic" k2="-1" k3="1"/>
<feColorMatrix type="matrix" values="0 0 0 0 0.826389 0 0 0 0 0.942083 0 0 0 0 0.991667 0 0 0 0.32 0"/>
<feBlend mode="normal" in2="shape" result="effect3_innerShadow_5_5594"/>
</filter>
<filter id="filter1_f_5_5594" x="3.5" y="36" width="59" height="49" filterUnits="userSpaceOnUse" color-interpolation-filters="sRGB">
<feFlood flood-opacity="0" result="BackgroundImageFix"/>
<feBlend mode="normal" in="SourceGraphic" in2="BackgroundImageFix" result="shape"/>
<feGaussianBlur stdDeviation="9" result="effect1_foregroundBlur_5_5594"/>
</filter>
<linearGradient id="paint0_linear_5_5594" x1="8.5" y1="13" x2="64.5" y2="69" gradientUnits="userSpaceOnUse">
<stop stop-color="#F8FBFF"/>
<stop offset="1" stop-color="white" stop-opacity="0"/>
</linearGradient>
<linearGradient id="paint1_linear_5_5594" x1="9.66667" y1="11.8333" x2="62.75" y2="69" gradientUnits="userSpaceOnUse">
<stop stop-color="#D8D8D8" stop-opacity="0.05"/>
<stop offset="1" stop-color="white" stop-opacity="0.4"/>
</linearGradient>
<clipPath id="clip0_5_5594">
<rect x="8.5" y="13" width="56" height="56" rx="12" fill="white"/>
</clipPath>
<clipPath id="clip1_5_5594">
<rect width="40" height="40" fill="white" transform="translate(16.5 21)"/>
</clipPath>
</defs>
</svg>
