<svg width="90" height="90" viewBox="0 0 90 90" fill="none" xmlns="http://www.w3.org/2000/svg">
<g filter="url(#filter0_bdi_34_285)">
<g clip-path="url(#clip0_34_285)">
<rect x="9" y="13" width="56" height="56" rx="12" fill="url(#paint0_linear_34_285)" fill-opacity="0.04" shape-rendering="crispEdges"/>
<path d="M46.3153 49.785C46.5606 47.7435 46.4872 47.4438 48.0078 47.7747L48.3937 47.8085C49.5631 47.8616 51.0928 47.6203 51.9916 47.2028C53.9262 46.305 55.0731 44.8066 53.1659 45.2C48.8147 46.0978 48.5156 44.6244 48.5156 44.6244C53.1103 37.8072 55.0309 29.1531 53.3728 27.0347C48.8509 21.2569 41.0238 23.9891 40.8928 24.0597L40.8509 24.0675C39.9912 23.8891 39.0291 23.7825 37.9481 23.765C35.9791 23.7325 34.485 24.2813 33.3516 25.1406C33.3516 25.1406 19.3881 19.3878 20.0378 32.3753C20.1759 35.1381 23.9978 53.281 28.5566 47.801C30.2228 45.7972 31.8328 44.1028 31.8328 44.1028C32.6322 44.6338 33.5897 44.905 34.5934 44.8075L34.6712 44.7413C34.6469 44.99 34.6575 45.2335 34.7022 45.5216C33.5281 46.8338 33.8731 47.0641 31.5253 47.5472C29.1497 48.0366 30.5453 48.9081 31.4562 49.136C32.5609 49.4122 35.1162 49.8035 36.8431 47.3866L36.7744 47.6622C37.235 48.031 37.2041 50.3113 37.2691 51.9403C37.3344 53.5697 37.4434 55.09 37.7756 55.9866C38.1078 56.8828 38.4997 59.1916 41.5853 58.5303C44.1641 57.9791 46.1356 57.1838 46.3153 49.785Z" fill="black"/>
<path d="M40.5806 60.1425C39.2159 60.1425 38.3272 59.6147 37.7875 59.105C36.9728 58.3363 36.6497 57.3459 36.4566 56.7544L36.3731 56.5075C35.9844 55.4581 35.8525 53.9472 35.7744 52.0016C35.7625 51.7094 35.7544 51.4084 35.7453 51.0894C35.7387 50.8559 35.7306 50.5631 35.7187 50.2569C35.2271 50.4913 34.7052 50.6562 34.1681 50.7469C33.2059 50.9113 32.1716 50.8581 31.0931 50.5884C30.3322 50.3981 29.5416 50.0038 29.0909 49.3947C27.7775 50.545 26.5247 50.3891 25.8422 50.1613C24.6381 49.7597 23.5606 48.6313 22.5478 46.7122C21.8262 45.345 21.1284 43.5638 20.4734 41.4175C19.3328 37.68 18.6081 33.7434 18.5437 32.4509C18.3412 28.4056 19.4303 25.5125 21.78 23.8528C25.4866 21.2347 31.1025 22.7744 33.15 23.4734C34.5256 22.6444 36.1441 22.2409 37.9728 22.27C38.955 22.2859 39.8903 22.3722 40.7591 22.5272C41.6653 22.2422 43.4553 21.8331 45.5044 21.8588C49.2797 21.9038 52.4081 23.375 54.5509 26.1134C56.0803 28.0672 55.3241 32.17 54.7375 34.4419C53.9119 37.6375 52.4653 41.0363 50.6884 43.995C51.1709 43.9984 51.87 43.9406 52.8637 43.7353C54.8244 43.3306 55.3978 44.3819 55.5534 44.8525C56.1769 46.7406 53.4669 48.1675 52.6216 48.56C51.5384 49.0628 49.7725 49.3691 48.3262 49.3028L48.2631 49.2988L47.8831 49.2653L47.8456 49.5822L47.8094 49.8919C47.7122 53.6416 47.1766 56.0163 46.0744 57.5853C44.9191 59.2303 43.3134 59.6913 41.8991 59.9944C41.4166 60.0975 40.9781 60.1425 40.5806 60.1425ZM37.7087 46.4953C38.5897 47.2003 38.6669 48.5269 38.7359 51.0059C38.7447 51.3153 38.7528 51.6081 38.7637 51.8816C38.7969 52.7097 38.8747 54.6488 39.1784 55.4681C39.2212 55.5841 39.2597 55.7016 39.3003 55.8263C39.6387 56.8625 39.8084 57.3822 41.2719 57.0694C42.5003 56.8059 43.1319 56.5697 43.6262 55.8659C44.3447 54.8428 44.7466 52.7847 44.8203 49.7488L46.315 49.785L44.8306 49.6069L44.8744 49.2363C45.0166 48.0144 45.1191 47.1319 45.9356 46.5481C46.5909 46.08 47.3375 46.1253 47.9322 46.2325C47.2787 45.7388 47.0981 45.1597 47.05 44.9222L46.9253 44.3081L47.2756 43.7884C49.2934 40.7947 50.9572 37.1153 51.8409 33.6934C52.7491 30.1775 52.4722 28.3103 52.1953 27.9572C48.53 23.2738 42.1741 25.2075 41.5103 25.4269L41.3981 25.4875L40.8356 25.5922L40.5475 25.5325C39.7531 25.3675 38.8706 25.2763 37.9247 25.2609C36.4384 25.2359 35.2394 25.5872 34.2562 26.3331L33.5741 26.8503L32.7825 26.5244C31.0912 25.8328 26.1237 24.4425 23.5025 26.2991C22.0475 27.3297 21.3847 29.3491 21.5322 32.3013C21.5809 33.2759 22.2431 36.9656 23.3356 40.5441C24.8453 45.4894 26.2172 47.1322 26.79 47.3231C26.89 47.3569 27.1494 47.1553 27.4075 46.8453C28.4838 45.5551 29.5982 44.2973 30.7494 43.0734L31.615 42.1625L32.6616 42.8578C33.0834 43.1381 33.5487 43.2972 34.0266 43.3272L36.5225 41.1984L36.1609 44.8884C36.1528 44.9713 36.1487 45.0841 36.1812 45.2934L36.29 45.9928L35.8181 46.5203L35.7637 46.5816L37.135 47.2144L37.7087 46.4953Z" fill="black"/>
<path d="M53.1659 45.2C48.8144 46.0978 48.5153 44.6244 48.5153 44.6244C53.11 37.8069 55.0306 29.1525 53.3731 27.0347C48.8512 21.2572 41.0234 23.9894 40.8928 24.0603L40.8506 24.0678C39.9909 23.8894 39.0287 23.7831 37.9472 23.7656C35.9781 23.7334 34.4847 24.2819 33.3513 25.1413C33.3513 25.1413 19.3875 19.3888 20.0369 32.3759C20.175 35.1391 23.9969 53.2819 28.5556 47.8019C30.2219 45.7981 31.8316 44.1038 31.8316 44.1038C32.6312 44.6347 33.5884 44.9059 34.5919 44.8084L34.67 44.7422C34.6456 44.9909 34.6569 45.2344 34.7013 45.5225C33.5269 46.8347 33.8719 47.065 31.5241 47.5481C29.1484 48.0375 30.5441 48.9091 31.4553 49.1369C32.5597 49.4131 35.1153 49.8044 36.8419 47.3875L36.7728 47.6631C37.2331 48.0319 37.5563 50.0606 37.5022 51.8997C37.4478 53.7388 37.4116 55.0016 37.7744 55.9878C38.1369 56.9741 38.4981 59.1928 41.5844 58.5316C44.1631 57.9791 45.4994 56.5469 45.6856 54.1581C45.8175 52.4597 46.1159 52.7109 46.135 51.1925L46.3747 50.4738C46.6509 48.1716 46.4184 47.4291 48.0075 47.7744L48.3934 47.8081C49.5628 47.8613 51.0931 47.62 51.9916 47.2025C53.9259 46.3053 55.0731 44.8066 53.1659 45.2Z" fill="#336791"/>
<path d="M40.7366 59.2209C38.1641 59.2209 37.3491 57.1838 37.0156 56.3506C36.5275 55.1297 36.4222 50.3916 36.5309 46.5059C36.5326 46.4404 36.5471 46.3759 36.5738 46.316C36.6005 46.2561 36.6387 46.2021 36.6864 46.1571C36.734 46.1121 36.7901 46.0769 36.8514 46.0536C36.9126 46.0304 36.9779 46.0195 37.0434 46.0216C37.1089 46.0233 37.1733 46.038 37.2331 46.0647C37.2929 46.0914 37.3468 46.1297 37.3918 46.1772C37.4368 46.2248 37.472 46.2808 37.4953 46.342C37.5186 46.4031 37.5297 46.4683 37.5278 46.5338C37.4025 51.0153 37.5803 55.0766 37.9416 55.9803C38.5053 57.3894 39.3603 58.6219 41.7775 58.1041C44.0722 57.6119 44.9316 56.7419 45.3144 54.5228C45.6081 52.82 46.1891 47.9756 46.2606 47.0197C46.2654 46.9544 46.283 46.8906 46.3125 46.8321C46.342 46.7736 46.3827 46.7215 46.4323 46.6788C46.482 46.636 46.5396 46.6035 46.6018 46.5831C46.664 46.5627 46.7297 46.5547 46.795 46.5597C46.9268 46.5697 47.0493 46.6316 47.1355 46.7317C47.2218 46.8319 47.2647 46.9622 47.255 47.0941C47.1803 48.0894 46.6022 52.9244 46.2972 54.6925C45.8453 57.3134 44.6769 58.5022 41.9866 59.0791C41.5294 59.1769 41.1141 59.2206 40.7366 59.2209ZM26.7878 49.2706C26.563 49.2699 26.3397 49.2329 26.1266 49.1613C24.4556 48.6038 22.8641 45.8825 21.3959 41.0722C20.2784 37.4106 19.5703 33.5888 19.5081 32.3466C19.3241 28.6641 20.2722 26.0587 22.3269 24.6034C26.3916 21.7234 33.2294 24.4659 33.5184 24.5841C33.6409 24.6341 33.7385 24.7307 33.7897 24.8527C33.8409 24.9746 33.8416 25.1119 33.7916 25.2344C33.7415 25.3568 33.6449 25.4544 33.523 25.5056C33.401 25.5568 33.2637 25.5575 33.1413 25.5075C33.0753 25.4806 26.5184 22.8537 22.9013 25.4184C21.1444 26.6641 20.3378 28.9784 20.5038 32.2969C20.5559 33.3434 21.2175 37.0734 22.3494 40.7809C23.66 45.0753 25.1516 47.785 26.4419 48.2153C26.6444 48.2828 27.2606 48.4881 28.1416 47.4288C29.1689 46.195 30.2347 44.9937 31.3375 43.8269C31.4298 43.7348 31.5544 43.6826 31.6847 43.6813C31.8151 43.68 31.9407 43.7297 32.0348 43.8199C32.1289 43.9101 32.184 44.0335 32.1882 44.1638C32.1924 44.294 32.1455 44.4208 32.0575 44.5169C32.0425 44.5325 30.5428 46.1003 28.9084 48.0666C28.1344 48.9975 27.3925 49.2706 26.7878 49.2706ZM48.4844 45.0691C48.394 45.0689 48.3053 45.0443 48.2279 44.9976C48.1504 44.951 48.0871 44.8842 48.0446 44.8044C48.0022 44.7246 47.9823 44.6347 47.987 44.5445C47.9917 44.4542 48.0208 44.3669 48.0713 44.2919C52.7159 37.3997 54.3463 29.0719 52.95 27.2875C51.1925 25.0419 48.7109 23.8691 45.5738 23.8012C43.2509 23.7512 41.4047 24.3444 41.1028 24.4478L41.0269 24.4787C40.7234 24.5741 40.4906 24.4078 40.4028 24.2134C40.3527 24.1021 40.3452 23.9762 40.3815 23.8597C40.4178 23.7431 40.4955 23.6438 40.6 23.5806C40.6144 23.5722 40.66 23.5528 40.7341 23.5256C41.2469 23.3378 43.1213 22.7753 45.4428 22.8019C48.9141 22.8387 51.7816 24.1772 53.7347 26.6731C54.6588 27.8541 54.6609 30.5747 53.7406 34.1378C52.8025 37.7706 51.0372 41.6747 48.8978 44.8494C48.8022 44.9922 48.6447 45.0691 48.4844 45.0691ZM48.7219 48.2597C47.9288 48.2597 47.2178 48.1478 46.7922 47.8928C46.3547 47.6306 46.2713 47.2744 46.2603 47.0853C46.1409 44.9884 47.2978 44.6234 47.8878 44.4569C47.8056 44.3325 47.6888 44.1863 47.5678 44.0353C47.2238 43.6053 46.7525 43.0166 46.3894 42.1359C46.3325 41.9984 46.1544 41.6788 45.9481 41.3084C44.8297 39.3028 42.5025 35.1294 43.9975 32.9922C44.6894 32.0031 46.0672 31.6138 48.0972 31.8309C47.5 30.0116 44.6563 24.3203 37.9084 24.2097C35.8791 24.1759 34.2147 24.8 32.9641 26.0628C30.1641 28.8906 30.2653 34.0072 30.2669 34.0584C30.2686 34.1239 30.2574 34.189 30.234 34.2502C30.2105 34.3113 30.1752 34.3672 30.1302 34.4147C30.0851 34.4622 30.0311 34.5004 29.9713 34.527C29.9115 34.5537 29.847 34.5683 29.7816 34.57C29.7161 34.5717 29.651 34.5605 29.5898 34.5371C29.5287 34.5136 29.4728 34.4784 29.4253 34.4333C29.3778 34.3882 29.3396 34.3342 29.313 34.2744C29.2863 34.2146 29.2717 34.1501 29.27 34.0847C29.2638 33.8575 29.1594 28.4881 32.2556 25.3609C33.7047 23.8975 35.6122 23.175 37.925 23.2128C42.2419 23.2837 45.0206 25.4784 46.5913 27.3069C48.3034 29.2997 49.1428 31.4978 49.2119 32.2316C49.2634 32.7772 48.8719 32.8863 48.7928 32.9025L48.6128 32.9066C46.6206 32.5875 45.3425 32.8091 44.8141 33.5641C43.6769 35.1894 45.8784 39.1372 46.8184 40.8231C47.0584 41.2531 47.2316 41.5641 47.3109 41.7559C47.6197 42.5047 48.0225 43.0078 48.3459 43.4122C48.6306 43.7678 48.8772 44.0763 48.9653 44.4381C49.0063 44.51 49.5872 45.3694 53.0344 44.6578C53.8984 44.4797 54.4166 44.6319 54.575 45.1109C54.8866 46.0531 53.1384 47.1522 52.1706 47.6016C51.3034 48.0047 49.9194 48.2597 48.7219 48.2597ZM47.2544 47.0031C47.3638 47.1134 47.9109 47.3038 49.0441 47.255C50.0516 47.2119 51.1141 46.9928 51.7516 46.6969C52.5669 46.3181 53.1113 45.8947 53.3931 45.6056L53.2369 45.6344C51.0328 46.0894 49.4738 46.0288 48.6031 45.4541C48.5446 45.4154 48.4883 45.3736 48.4344 45.3288C48.34 45.3659 48.2528 45.3903 48.1906 45.4078C47.6969 45.5463 47.1863 45.6897 47.2544 47.0031ZM33.0163 49.7891C32.4688 49.7891 31.8925 49.7144 31.3041 49.5672C30.6944 49.4147 29.6666 48.9556 29.6822 48.2016C29.7 47.3556 30.9303 47.1019 31.3934 47.0066C33.0666 46.6619 33.1756 46.5238 33.6984 45.8597C33.8509 45.6663 34.0406 45.4253 34.2994 45.1366C34.6834 44.7066 35.1031 44.4888 35.5469 44.4888C35.8559 44.4888 36.1094 44.5934 36.2769 44.6631C36.8106 44.8844 37.2559 45.4194 37.4391 46.0591C37.6044 46.6363 37.5253 47.1919 37.2172 47.6234C36.2056 49.04 34.7528 49.7891 33.0163 49.7891ZM30.7594 48.2444C30.9097 48.3606 31.2109 48.5159 31.5463 48.5997C32.0559 48.7272 32.5503 48.7919 33.0166 48.7919C34.4372 48.7919 35.5778 48.2038 36.4063 47.0438C36.5791 46.8019 36.5272 46.4947 36.4809 46.3331C36.3841 45.9947 36.1434 45.6869 35.8956 45.5841C35.7613 45.5284 35.6497 45.4859 35.5472 45.4859C35.4922 45.4859 35.3247 45.4859 35.0428 45.8013C34.8483 46.02 34.6613 46.2454 34.4822 46.4769C33.8309 47.3038 33.5325 47.5844 31.595 47.9834C31.1222 48.0803 30.8797 48.1791 30.7594 48.2444ZM34.5934 45.9444C34.4744 45.9442 34.3594 45.9014 34.2691 45.8238C34.1788 45.7462 34.1193 45.6389 34.1013 45.5213C34.0889 45.4385 34.0805 45.3552 34.0763 45.2716C32.8063 45.2478 31.5809 44.7028 30.6506 43.7322C29.4744 42.505 28.9391 40.8047 29.1822 39.0675C29.4463 37.1809 29.3475 35.5156 29.2944 34.6209C29.2797 34.3722 29.2691 34.1925 29.2697 34.0681C29.2706 33.9103 29.2738 33.4919 30.6725 32.7828C31.17 32.5306 32.1675 32.0906 33.2572 31.9778C35.0625 31.7913 36.2525 32.5953 36.6088 34.2422C37.5703 38.6884 36.685 40.655 36.0384 42.0913C35.9181 42.3588 35.8044 42.6113 35.7134 42.8559L35.6331 43.0716C35.2916 43.9875 34.9963 44.7788 35.0869 45.3697C35.0968 45.4344 35.0939 45.5005 35.0783 45.5641C35.0628 45.6277 35.0348 45.6876 34.9961 45.7403C34.9573 45.7931 34.9086 45.8378 34.8526 45.8717C34.7966 45.9056 34.7344 45.9282 34.6697 45.9381L34.5934 45.9444ZM30.27 34.2062L30.2894 34.5622C30.3444 35.4916 30.4469 37.2209 30.1694 39.2059C29.9691 40.6388 30.4066 42.0372 31.3703 43.0422C32.1319 43.8366 33.1341 44.275 34.1641 44.275H34.1853C34.3006 43.7891 34.4922 43.2759 34.6984 42.7231L34.7781 42.5088C34.8809 42.2325 35.0013 41.965 35.1288 41.6819C35.7509 40.2994 36.5256 38.5784 35.6334 34.4531C35.4569 33.6359 35.0284 33.1631 34.3244 33.0072C32.8781 32.6878 30.7228 33.7756 30.27 34.2062ZM33.2794 33.9947C33.2544 34.1709 33.6022 34.6416 34.0559 34.7044C34.5088 34.7678 34.8963 34.3997 34.9209 34.2234C34.9456 34.0472 34.5981 33.8528 34.1444 33.7897C33.6909 33.7266 33.3034 33.8184 33.2794 33.9947ZM34.16 34.8778L34.0328 34.8691C33.7516 34.83 33.4672 34.6528 33.2725 34.3947C33.2041 34.3041 33.0925 34.1284 33.1147 33.9716C33.1463 33.7416 33.4269 33.6038 33.8647 33.6038C33.9625 33.6038 34.0644 33.6109 34.1669 33.6253C34.4063 33.6584 34.6284 33.7275 34.7925 33.8191C35.0769 33.9778 35.0978 34.155 35.085 34.2466C35.05 34.5006 34.6459 34.8778 34.16 34.8778ZM33.4447 34.0241C33.4588 34.1328 33.7281 34.4916 34.0788 34.54L34.1603 34.5456C34.4841 34.5456 34.7259 34.2909 34.7544 34.2075C34.7244 34.1506 34.5163 34.0094 34.1216 33.9544C34.0366 33.9422 33.9509 33.936 33.865 33.9359C33.6113 33.9359 33.4766 33.9931 33.4447 34.0241ZM47.0713 33.635C47.0959 33.8113 46.7484 34.2819 46.295 34.345C45.8419 34.4081 45.4541 34.0403 45.4291 33.8641C45.4053 33.6878 45.7528 33.4931 46.2059 33.4303C46.6591 33.3669 47.0463 33.4591 47.0713 33.635ZM46.1903 34.435C45.7541 34.435 45.3775 34.0956 45.3466 33.8753C45.3106 33.6109 45.7459 33.41 46.1941 33.3478C46.2928 33.3341 46.3906 33.3272 46.4847 33.3272C46.8716 33.3272 47.1278 33.4406 47.1534 33.6238C47.17 33.7422 47.0791 33.925 46.9225 34.09C46.8191 34.1984 46.6019 34.3863 46.3059 34.4272L46.1903 34.435ZM46.485 33.4934C46.3988 33.4934 46.3088 33.5 46.2175 33.5125C45.7672 33.5753 45.4984 33.7559 45.5116 33.8528C45.5266 33.9594 45.8141 34.2691 46.1906 34.2691L46.2834 34.2625C46.5294 34.2284 46.7141 34.0678 46.8022 33.9753C46.9406 33.83 46.9956 33.6931 46.9891 33.6466C46.9803 33.5847 46.8141 33.4934 46.485 33.4934ZM47.7241 43.7569C47.6337 43.7569 47.5451 43.7324 47.4676 43.686C47.3901 43.6395 47.3267 43.5728 47.2842 43.4931C47.2417 43.4134 47.2217 43.3236 47.2263 43.2334C47.2309 43.1432 47.2599 43.0559 47.3103 42.9809C48.3722 41.395 48.1778 39.7778 47.99 38.2138C47.9097 37.5475 47.8272 36.8584 47.8484 36.1972C47.8703 35.5169 47.9569 34.9556 48.0403 34.4128C48.1394 33.7697 48.2331 33.1622 48.1944 32.4409C48.1908 32.3756 48.2002 32.3101 48.222 32.2484C48.2437 32.1866 48.2775 32.1298 48.3212 32.0811C48.3649 32.0323 48.4178 31.9927 48.4769 31.9644C48.5359 31.9362 48.5999 31.9198 48.6653 31.9163C48.7307 31.9127 48.7961 31.9221 48.8579 31.9439C48.9196 31.9656 48.9765 31.9993 49.0252 32.0431C49.0739 32.0868 49.1135 32.1397 49.1418 32.1987C49.1701 32.2578 49.1865 32.3218 49.19 32.3872C49.2344 33.2116 49.1284 33.8991 49.0259 34.5644C48.9469 35.0778 48.865 35.6088 48.8453 36.2291C48.8263 36.8147 48.9009 37.4366 48.98 38.0947C49.18 39.7578 49.4066 41.6428 48.1391 43.5356C48.0934 43.6038 48.0317 43.6596 47.9593 43.6982C47.8869 43.7368 47.8061 43.757 47.7241 43.7569Z" fill="white"/>
<g filter="url(#filter1_f_34_285)">
<ellipse cx="33.5" cy="60.5" rx="11.5" ry="6.5" fill="#6980C9"/>
</g>
</g>
<rect x="9" y="13" width="56" height="56" rx="12" stroke="url(#paint1_linear_34_285)" stroke-opacity="0.5" stroke-width="0.8" shape-rendering="crispEdges"/>
</g>
<defs>
<filter id="filter0_bdi_34_285" x="-11.4" y="-7.40002" width="100.8" height="96.8" filterUnits="userSpaceOnUse" color-interpolation-filters="sRGB">
<feFlood flood-opacity="0" result="BackgroundImageFix"/>
<feGaussianBlur in="BackgroundImageFix" stdDeviation="10"/>
<feComposite in2="SourceAlpha" operator="in" result="effect1_backgroundBlur_34_285"/>
<feColorMatrix in="SourceAlpha" type="matrix" values="0 0 0 0 0 0 0 0 0 0 0 0 0 0 0 0 0 0 127 0" result="hardAlpha"/>
<feOffset dx="8" dy="4"/>
<feGaussianBlur stdDeviation="8"/>
<feComposite in2="hardAlpha" operator="out"/>
<feColorMatrix type="matrix" values="0 0 0 0 0 0 0 0 0 0 0 0 0 0 0 0 0 0 0.08 0"/>
<feBlend mode="normal" in2="effect1_backgroundBlur_34_285" result="effect2_dropShadow_34_285"/>
<feBlend mode="normal" in="SourceGraphic" in2="effect2_dropShadow_34_285" result="shape"/>
<feColorMatrix in="SourceAlpha" type="matrix" values="0 0 0 0 0 0 0 0 0 0 0 0 0 0 0 0 0 0 127 0" result="hardAlpha"/>
<feOffset/>
<feGaussianBlur stdDeviation="4"/>
<feComposite in2="hardAlpha" operator="arithmetic" k2="-1" k3="1"/>
<feColorMatrix type="matrix" values="0 0 0 0 0.411765 0 0 0 0 0.501961 0 0 0 0 0.788235 0 0 0 0.32 0"/>
<feBlend mode="normal" in2="shape" result="effect3_innerShadow_34_285"/>
</filter>
<filter id="filter1_f_34_285" x="4" y="36" width="59" height="49" filterUnits="userSpaceOnUse" color-interpolation-filters="sRGB">
<feFlood flood-opacity="0" result="BackgroundImageFix"/>
<feBlend mode="normal" in="SourceGraphic" in2="BackgroundImageFix" result="shape"/>
<feGaussianBlur stdDeviation="9" result="effect1_foregroundBlur_34_285"/>
</filter>
<linearGradient id="paint0_linear_34_285" x1="9" y1="13" x2="65" y2="69" gradientUnits="userSpaceOnUse">
<stop stop-color="#F8FBFF"/>
<stop offset="1" stop-color="white" stop-opacity="0"/>
</linearGradient>
<linearGradient id="paint1_linear_34_285" x1="10.1667" y1="11.8333" x2="63.25" y2="69" gradientUnits="userSpaceOnUse">
<stop stop-color="#D8D8D8" stop-opacity="0.05"/>
<stop offset="1" stop-color="white" stop-opacity="0.4"/>
</linearGradient>
<clipPath id="clip0_34_285">
<rect x="9" y="13" width="56" height="56" rx="12" fill="white"/>
</clipPath>
</defs>
</svg>
