<svg width="90" height="90" viewBox="0 0 90 90" fill="none" xmlns="http://www.w3.org/2000/svg">
<g filter="url(#filter0_bdi_33_179)">
<g clip-path="url(#clip0_33_179)">
<rect x="9" y="13" width="56" height="56" rx="12" fill="url(#paint0_linear_33_179)" fill-opacity="0.04" shape-rendering="crispEdges"/>
<path d="M37 44.5625C38.9675 44.5625 40.5625 42.9675 40.5625 41C40.5625 39.0325 38.9675 37.4375 37 37.4375C35.0325 37.4375 33.4375 39.0325 33.4375 41C33.4375 42.9675 35.0325 44.5625 37 44.5625Z" fill="#8B5CF6"/>
<path d="M50.5313 35.125C49.8438 34.875 49.125 34.625 48.375 34.4063C48.5625 33.6563 48.7187 32.9062 48.8438 32.1875C49.5 28.0625 48.7813 25.1562 46.7813 24.0312C46.1875 23.6875 45.5313 23.5312 44.7812 23.5312C42.5938 23.5312 39.8125 25.1562 37 27.875C34.1875 25.1562 31.4062 23.5312 29.2187 23.5312C28.4687 23.5312 27.8125 23.6875 27.2188 24.0312C25.2188 25.1875 24.5 28.0937 25.1563 32.1875C25.2813 32.9062 25.4375 33.6563 25.625 34.4063C24.875 34.625 24.1563 34.8437 23.4688 35.125C19.5625 36.625 17.4375 38.6875 17.4375 41C17.4375 43.3125 19.5938 45.375 23.4688 46.875C24.1563 47.125 24.875 47.375 25.625 47.5938C25.4375 48.3438 25.2813 49.0937 25.1563 49.8125C24.5 53.9375 25.2188 56.8438 27.2188 57.9688C27.8125 58.3125 28.4687 58.4688 29.2187 58.4688C31.4375 58.4688 34.2187 56.8438 37 54.125C39.8125 56.8438 42.5938 58.4688 44.7812 58.4688C45.5313 58.4688 46.1875 58.3125 46.7813 57.9688C48.7813 56.8125 49.5 53.9062 48.8438 49.8125C48.7187 49.0937 48.5625 48.3438 48.375 47.5938C49.125 47.375 49.8438 47.1563 50.5313 46.875C54.4375 45.375 56.5625 43.3125 56.5625 41C56.5625 38.6875 54.4375 36.625 50.5313 35.125ZM45.9062 25.5937C47.1875 26.3437 47.625 28.6562 47.0938 31.9375C47 32.5937 46.8438 33.2813 46.6562 34C45.0313 33.625 43.3125 33.375 41.5 33.2187C40.4375 31.7187 39.3437 30.375 38.25 29.1562C40.5625 26.875 42.9062 25.3125 44.8125 25.3125C45.2187 25.3125 45.5937 25.4062 45.9062 25.5937ZM42.4063 44.125C41.8438 45.125 41.1875 46.125 40.5 47.125C39.3437 47.2188 38.1875 47.25 37 47.25C35.7812 47.25 34.625 47.2188 33.5 47.125C32.8125 46.125 32.1875 45.125 31.625 44.125C31.0312 43.0938 30.4687 42.0313 29.9687 41C30.4687 39.9688 31.0312 38.9063 31.625 37.875C32.1875 36.875 32.8437 35.875 33.5312 34.875C34.6875 34.7813 35.8437 34.75 37.0312 34.75C38.25 34.75 39.4063 34.7813 40.5313 34.875C41.2188 35.875 41.8438 36.875 42.4063 37.875C43 38.9063 43.5625 39.9688 44.0625 41C43.5312 42.0313 43 43.0625 42.4063 44.125ZM45 43.0937C45.4687 44.1875 45.8437 45.25 46.1875 46.3125C45.125 46.5625 44 46.75 42.8125 46.9063C43.1875 46.3125 43.5937 45.6875 43.9375 45.0313C44.3125 44.375 44.6562 43.7187 45 43.0937ZM37 51.5625C36.25 50.75 35.5312 49.875 34.8437 48.9688C35.5625 49 36.2812 49.0312 37 49.0312C37.7187 49.0312 38.4375 49 39.1562 48.9688C38.4687 49.875 37.75 50.75 37 51.5625ZM31.1875 46.875C30 46.7188 28.875 46.5313 27.8125 46.2813C28.1562 45.25 28.5312 44.1562 29 43.0625C29.3438 43.6875 29.6875 44.3437 30.0625 44.9687C30.4375 45.6562 30.8125 46.25 31.1875 46.875ZM29 38.9062C28.5312 37.8125 28.1562 36.75 27.8125 35.6875C28.875 35.4375 30 35.25 31.1875 35.0938C30.8125 35.6875 30.4062 36.3125 30.0625 36.9688C29.6875 37.625 29.3438 38.2812 29 38.9062ZM37 30.4375C37.75 31.25 38.4687 32.125 39.1562 33.0312C38.4375 33 37.7187 32.9687 37 32.9687C36.2812 32.9687 35.5625 33 34.8437 33.0312C35.5312 32.125 36.25 31.25 37 30.4375ZM43.9375 37L42.8125 35.125C44 35.2812 45.125 35.4687 46.1875 35.7188C45.8437 36.75 45.4687 37.8438 45 38.9375C44.6562 38.2813 44.3125 37.625 43.9375 37ZM26.9063 31.9375C26.375 28.6562 26.8125 26.3437 28.0937 25.5937C28.4062 25.4062 28.7812 25.3125 29.1875 25.3125C31.0625 25.3125 33.4062 26.8437 35.75 29.1562C34.6562 30.3437 33.5625 31.7187 32.5 33.2187C30.6875 33.375 28.9687 33.6562 27.3437 34C27.1562 33.2813 27.0313 32.5937 26.9063 31.9375ZM19.1875 41C19.1875 39.5313 20.9688 37.9688 24.0938 36.8125C24.7188 36.5625 25.4063 36.3438 26.0938 36.1563C26.5938 37.7188 27.2187 39.375 27.9687 41.0312C27.2187 42.6875 26.5625 44.3125 26.0938 45.875C21.7813 44.625 19.1875 42.75 19.1875 41ZM28.0937 56.4063C26.8125 55.6563 26.375 53.3438 26.9063 50.0625C27 49.4063 27.1562 48.7188 27.3437 48C28.9687 48.375 30.6875 48.625 32.5 48.7813C33.5625 50.2813 34.6562 51.625 35.75 52.8438C33.4375 55.125 31.0937 56.6875 29.1875 56.6875C28.7812 56.6875 28.4062 56.5938 28.0937 56.4063ZM47.0938 50.0625C47.625 53.3438 47.1875 55.6563 45.9062 56.4063C45.5937 56.5938 45.2187 56.6875 44.8125 56.6875C42.9375 56.6875 40.5937 55.1563 38.25 52.8438C39.3437 51.6563 40.4375 50.2813 41.5 48.7813C43.3125 48.625 45.0313 48.3438 46.6562 48C46.8438 48.7188 46.9688 49.4063 47.0938 50.0625ZM49.9063 45.1875C49.2813 45.4375 48.5938 45.6563 47.9062 45.8438C47.4062 44.2813 46.7813 42.625 46.0312 40.9688C46.7813 39.3125 47.4375 37.6875 47.9062 36.125C52.2188 37.375 54.8125 39.25 54.8125 41C54.8125 42.4688 53 44.0313 49.9063 45.1875Z" fill="#8B5CF6"/>
<g filter="url(#filter1_f_33_179)">
<ellipse cx="33.5" cy="60.5" rx="11.5" ry="6.5" fill="#6214FF"/>
</g>
</g>
<rect x="9" y="13" width="56" height="56" rx="12" stroke="url(#paint1_linear_33_179)" stroke-opacity="0.5" stroke-width="0.8" shape-rendering="crispEdges"/>
</g>
<defs>
<filter id="filter0_bdi_33_179" x="-11.4" y="-7.39999" width="100.8" height="96.8" filterUnits="userSpaceOnUse" color-interpolation-filters="sRGB">
<feFlood flood-opacity="0" result="BackgroundImageFix"/>
<feGaussianBlur in="BackgroundImageFix" stdDeviation="10"/>
<feComposite in2="SourceAlpha" operator="in" result="effect1_backgroundBlur_33_179"/>
<feColorMatrix in="SourceAlpha" type="matrix" values="0 0 0 0 0 0 0 0 0 0 0 0 0 0 0 0 0 0 127 0" result="hardAlpha"/>
<feOffset dx="8" dy="4"/>
<feGaussianBlur stdDeviation="8"/>
<feComposite in2="hardAlpha" operator="out"/>
<feColorMatrix type="matrix" values="0 0 0 0 0 0 0 0 0 0 0 0 0 0 0 0 0 0 0.08 0"/>
<feBlend mode="normal" in2="effect1_backgroundBlur_33_179" result="effect2_dropShadow_33_179"/>
<feBlend mode="normal" in="SourceGraphic" in2="effect2_dropShadow_33_179" result="shape"/>
<feColorMatrix in="SourceAlpha" type="matrix" values="0 0 0 0 0 0 0 0 0 0 0 0 0 0 0 0 0 0 127 0" result="hardAlpha"/>
<feOffset/>
<feGaussianBlur stdDeviation="4"/>
<feComposite in2="hardAlpha" operator="arithmetic" k2="-1" k3="1"/>
<feColorMatrix type="matrix" values="0 0 0 0 0.325843 0 0 0 0 0 0 0 0 0 1 0 0 0 0.5 0"/>
<feBlend mode="normal" in2="shape" result="effect3_innerShadow_33_179"/>
</filter>
<filter id="filter1_f_33_179" x="4" y="36" width="59" height="49" filterUnits="userSpaceOnUse" color-interpolation-filters="sRGB">
<feFlood flood-opacity="0" result="BackgroundImageFix"/>
<feBlend mode="normal" in="SourceGraphic" in2="BackgroundImageFix" result="shape"/>
<feGaussianBlur stdDeviation="9" result="effect1_foregroundBlur_33_179"/>
</filter>
<linearGradient id="paint0_linear_33_179" x1="9" y1="13" x2="65" y2="69" gradientUnits="userSpaceOnUse">
<stop stop-color="#F8FBFF"/>
<stop offset="1" stop-color="white" stop-opacity="0"/>
</linearGradient>
<linearGradient id="paint1_linear_33_179" x1="10.1667" y1="11.8333" x2="63.25" y2="69" gradientUnits="userSpaceOnUse">
<stop stop-color="#D8D8D8" stop-opacity="0.05"/>
<stop offset="1" stop-color="white" stop-opacity="0.4"/>
</linearGradient>
<clipPath id="clip0_33_179">
<rect x="9" y="13" width="56" height="56" rx="12" fill="white"/>
</clipPath>
</defs>
</svg>
