<svg width="98" height="98" viewBox="0 0 98 98" fill="none" xmlns="http://www.w3.org/2000/svg">
<g filter="url(#filter0_bdi_33_198)">
<g clip-path="url(#clip0_33_198)">
<rect x="9" y="13" width="64" height="64" rx="12" fill="url(#paint0_linear_33_198)" fill-opacity="0.04" shape-rendering="crispEdges"/>
<path fill-rule="evenodd" clip-rule="evenodd" d="M17.4571 42.0585C17.4571 42.3221 17.5347 42.4961 17.5782 42.6652C17.8617 43.7651 18.4711 44.709 19.1941 45.57C20.2239 46.797 21.485 47.7847 22.7769 48.7136C23.8974 49.5191 25.0407 50.3066 26.1657 51.1061C26.3589 51.2434 26.5415 51.4012 26.7511 51.5696C26.5707 51.6671 26.4207 51.753 26.2647 51.8321C24.7801 52.5851 23.3517 53.4293 22.0351 54.4519C21.2416 55.0684 20.4744 55.7235 19.9325 56.5796C19.0606 57.9566 18.752 59.4236 19.4019 60.99C19.5916 61.4475 19.8811 61.8428 20.2895 62.1349C20.4219 62.2294 20.5704 62.3231 20.7252 62.3599C21.122 62.4532 21.5262 62.5144 21.9279 62.5883L23.0652 62.5875C24.323 62.4754 25.4679 62.0445 26.5025 61.3305C28.1195 60.2145 29.2089 58.7182 29.6772 56.7979C30.0177 55.4021 30.0316 54.0049 29.6304 52.6155C29.592 52.4868 29.5477 52.3599 29.4976 52.2352C29.4489 52.1104 29.3915 51.9889 29.324 51.8333L31.9025 50.3505L31.9411 50.3835C31.8942 50.5369 31.8444 50.6899 31.802 50.8447C31.4956 51.9637 31.292 53.1023 31.3651 54.2636C31.4431 55.5011 31.7885 56.6595 32.513 57.6934C33.0987 58.5296 34.4945 58.5608 35.117 57.7215C35.3379 57.4234 35.552 57.1118 35.7129 56.7791C36.1332 55.911 36.5225 55.0275 36.9241 54.15L36.9942 53.9895C36.9654 54.405 36.9316 54.7699 36.9162 55.1351C36.8922 55.7055 36.9256 56.2725 37.1206 56.8151C37.2875 57.2794 37.5714 57.6263 38.1031 57.6874C38.4669 57.729 38.7567 57.5625 39.0241 57.3514C39.4383 57.024 39.7817 56.6159 40.0332 56.1517C40.7461 54.8426 41.4781 53.5414 42.1242 52.1992C42.8232 50.7476 43.4345 49.2536 44.0836 47.7772L44.1909 47.5155C44.3442 48.1181 44.4511 48.7084 44.648 49.2671C44.8767 49.9155 45.1599 50.5485 45.4681 51.1639C45.614 51.4545 45.5971 51.6431 45.395 51.8869C44.549 52.9069 43.7176 53.9392 42.8855 54.9705C42.7014 55.1981 42.518 55.4299 42.3646 55.6785C42.2716 55.8355 42.2104 56.0093 42.1846 56.19C42.1588 56.3563 42.1984 56.5262 42.2951 56.664C42.3918 56.8018 42.538 56.8968 42.7032 56.9291C43.0367 57.0009 43.3785 57.0253 43.7187 57.0015C44.8801 56.916 45.9346 56.5084 46.8669 55.8176C48.0747 54.9229 48.4625 53.7019 48.17 52.2548C48.0909 51.8621 47.951 51.4804 47.8149 51.102C47.7537 50.9314 47.7496 50.8117 47.861 50.6527C48.8266 49.2739 49.6516 47.811 50.4189 46.3144C50.4492 46.2555 50.4804 46.1966 50.5336 46.1336C50.7822 47.4274 51.1565 48.6743 51.827 49.8056C51.485 50.1353 51.1464 50.4341 50.84 50.7634C50.1654 51.4886 49.5804 52.2761 49.2751 53.2365C49.1439 53.6505 49.043 54.0713 49.1015 54.5134C49.1922 55.2 49.7547 55.6462 50.4301 55.4899C51.8754 55.1554 53.123 54.4744 54.0346 53.268C54.6481 52.4557 54.704 51.5497 54.4471 50.6006C54.3766 50.3426 54.293 50.0887 54.203 49.7929C54.5596 49.6822 54.9072 49.5495 55.2669 49.4674C57.134 49.0414 58.9809 49.1156 60.7801 49.7899C61.8305 50.1836 62.6791 50.8425 63.1824 51.879C63.797 53.1461 63.4572 54.3484 62.2629 55.1494C62.1515 55.224 62.024 55.2829 61.9317 55.3762C61.9022 55.4105 61.8801 55.4505 61.8669 55.4938C61.8536 55.537 61.8495 55.5826 61.8549 55.6275C61.8627 55.6736 61.9846 55.7314 62.0547 55.7306C62.4474 55.7276 62.7657 55.5218 63.0714 55.3103C63.8371 54.7804 64.3959 54.0675 64.5162 53.1289L64.5399 53.0584L64.511 52.4471C64.4994 52.4119 64.5196 52.377 64.517 52.3504C64.3542 50.9835 63.6241 49.9234 62.5621 49.0924C61.3321 48.1305 59.8797 47.7345 58.3437 47.6719C57.098 47.6183 55.8538 47.8098 54.6819 48.2355C54.3455 48.3574 54.0121 48.5017 53.6739 48.6379C53.6285 48.5557 53.5797 48.477 53.5396 48.3956C53.1924 47.6846 52.7716 47.0051 52.6786 46.1899C52.6126 45.6109 52.5316 45.0326 52.6692 44.46C52.8016 43.9091 52.9741 43.3676 53.1365 42.8243C53.2201 42.5445 53.1612 42.3878 52.8942 42.2618C52.8012 42.2154 52.7019 42.1828 52.5995 42.165C51.9432 42.0697 51.296 42.1241 50.6604 42.309C50.4354 42.3746 50.2719 42.5006 50.222 42.7496C50.1935 42.8925 50.1354 43.0294 50.0949 43.1704C49.9287 43.7565 49.811 44.3539 49.5425 44.9122C48.8697 46.3129 48.1017 47.6606 47.3157 48.9986C47.2306 49.143 47.141 49.2847 47.0337 49.4599C46.7577 48.8824 46.4634 48.3641 46.3741 47.7566C46.2732 47.0696 46.1937 46.3838 46.3647 45.702C46.4919 45.1935 46.658 44.6944 46.811 44.1926C46.8834 43.9541 46.85 43.8289 46.634 43.7032C46.5249 43.6399 46.4015 43.5836 46.2785 43.5652C45.6056 43.4628 44.918 43.519 44.2707 43.7295C44.0671 43.7955 43.9602 43.9271 43.898 44.1371C43.715 44.7566 43.559 45.3911 43.3021 45.9802C42.2619 48.3652 41.1916 50.7379 40.1225 53.1101C39.8994 53.6055 39.638 54.0836 39.3864 54.5659C39.3226 54.6881 39.2296 54.7958 39.1501 54.9105C39.0864 54.8351 39.0616 54.7834 39.062 54.7316C39.0639 54.4267 39.0275 54.1129 39.0856 53.8181C39.2641 52.9267 39.4614 52.0391 39.6774 51.156C39.8536 50.4263 40.0587 49.7033 40.2541 48.9784C40.3197 48.7358 40.3209 48.5089 40.1465 48.3049C39.8536 47.9633 39.2416 47.8882 38.8786 48.1515L38.7181 48.2423L38.7492 47.9835C38.8257 47.4289 38.8411 46.8761 38.6889 46.3297C38.4991 45.6487 38.0131 45.2569 37.3066 45.2786C36.9774 45.2887 36.6316 45.345 36.3267 45.465C35.0446 45.9675 34.0587 46.8574 33.2195 47.928C33.1417 48.0274 33.0453 48.1107 32.9356 48.1732C31.8507 48.7747 30.7625 49.3687 29.6746 49.965L28.4637 50.6284C28.139 50.3186 27.8439 49.9972 27.509 49.7246C26.4864 48.8906 25.4472 48.0773 24.4175 47.2526C23.5047 46.5218 22.6205 45.7605 21.944 44.7926C21.4407 44.0726 21.1164 43.2847 21.0852 42.3945C21.0459 41.2601 21.3676 40.2236 21.9451 39.2587C22.6839 38.0242 23.6915 37.0335 24.7992 36.1361C25.9711 35.1874 27.2386 34.3819 28.5522 33.6465C30.3901 32.6179 32.2805 31.7074 34.3074 31.1063C36.3856 30.4898 38.4942 30.1369 40.6692 30.3829C41.5242 30.4796 42.3545 30.6754 43.1169 31.0935C43.7007 31.4134 44.1796 31.8322 44.4024 32.487C44.6221 33.1313 44.6154 33.7841 44.4631 34.4385C44.1537 35.7637 43.4281 36.8561 42.515 37.8323C41.0172 39.4324 39.1902 40.5218 37.1334 41.2414C35.9507 41.6557 34.7203 41.9182 33.4715 42.0225C32.4481 42.1084 31.4461 42.0176 30.4771 41.6617C29.8355 41.4259 29.2767 41.0651 28.8275 40.5416C28.7472 40.4479 28.6445 40.3463 28.4949 40.434C28.3482 40.5203 28.3224 40.6598 28.3715 40.8011C28.4536 41.0359 28.5294 41.2804 28.6572 41.4904C28.9786 42.0172 29.4474 42.3994 29.9634 42.7271C30.9545 43.3575 32.0622 43.5694 33.2109 43.6185C34.9539 43.6939 36.6545 43.4336 38.3311 42.966C40.7247 42.2985 42.806 41.1195 44.4751 39.2595C45.8649 37.7108 46.8575 35.9629 47.0701 33.8524C47.174 32.8222 47.0634 31.8131 46.5811 30.8734C46.058 29.8553 45.2262 29.0981 44.2317 28.5765C42.7835 27.8171 41.2205 27.375 39.6072 27.375H37.991C36.0372 27.375 34.1484 27.9349 32.3124 28.6028C30.9226 29.1086 29.5599 29.7056 28.2369 30.3664C25.3557 31.806 22.6726 33.5419 20.4687 35.9288C19.3707 37.1179 18.4411 38.43 17.9064 39.975C17.745 40.4363 17.6059 40.9051 17.4897 41.3798M27.9294 54.8846C27.8045 56.5568 27.0466 57.9124 25.808 59.0104C25.1112 59.6276 24.3121 60.0671 23.3814 60.2216C23.0439 60.2775 22.6985 60.291 22.3711 60.1511C21.9042 59.9516 21.7996 59.5372 21.7906 59.0959C21.7767 58.3924 22.0231 57.7564 22.361 57.1511C22.802 56.3621 23.4485 55.7606 24.1389 55.1989C25.2264 54.3135 26.4061 53.5643 27.6144 52.857L27.7055 52.8195C27.8922 53.5095 27.9811 54.1909 27.9294 54.8846ZM37.3636 47.6175C37.2755 48.1515 37.1652 48.6859 37.0092 49.2034C36.47 50.9947 35.7774 52.7306 35.0285 54.4432C34.8901 54.7601 34.6887 55.0492 34.5136 55.3496C34.4838 55.3958 34.4482 55.4379 34.4075 55.4749C34.1907 55.689 33.9852 55.6777 33.8757 55.3976C33.7482 55.0721 33.6699 54.7238 33.6024 54.3791C33.557 54.1478 33.5679 53.9047 33.5536 53.6677C33.5682 51.9825 34.0824 50.451 34.9546 49.0253C35.3142 48.4373 35.7057 47.877 36.3039 47.505C36.4899 47.3893 36.6913 47.3002 36.902 47.2402C37.2207 47.1506 37.4165 47.298 37.3636 47.6175ZM43.8001 55.818L46.1135 53.1169C46.2099 54.12 44.5047 56.1225 43.8001 55.818ZM51.1887 54.0004C51.0252 54.0941 50.8471 54.1616 50.6795 54.2483C50.5261 54.3278 50.4755 54.2475 50.471 54.1155C50.4687 54.0241 50.4805 53.9329 50.5059 53.8451C50.8182 52.7434 51.3931 51.8029 52.2485 51.0379L52.3085 51.0071C52.7154 52.1452 52.2451 53.3951 51.1887 54.0004Z" fill="#CB6699"/>
<g filter="url(#filter1_f_33_198)">
<ellipse cx="33.5" cy="60.5" rx="11.5" ry="6.5" fill="#D4467E"/>
</g>
</g>
<rect x="9" y="13" width="64" height="64" rx="12" stroke="url(#paint1_linear_33_198)" stroke-opacity="0.5" stroke-width="0.8" shape-rendering="crispEdges"/>
</g>
<defs>
<filter id="filter0_bdi_33_198" x="-11.4" y="-7.39999" width="108.8" height="104.8" filterUnits="userSpaceOnUse" color-interpolation-filters="sRGB">
<feFlood flood-opacity="0" result="BackgroundImageFix"/>
<feGaussianBlur in="BackgroundImageFix" stdDeviation="10"/>
<feComposite in2="SourceAlpha" operator="in" result="effect1_backgroundBlur_33_198"/>
<feColorMatrix in="SourceAlpha" type="matrix" values="0 0 0 0 0 0 0 0 0 0 0 0 0 0 0 0 0 0 127 0" result="hardAlpha"/>
<feOffset dx="8" dy="4"/>
<feGaussianBlur stdDeviation="8"/>
<feComposite in2="hardAlpha" operator="out"/>
<feColorMatrix type="matrix" values="0 0 0 0 0 0 0 0 0 0 0 0 0 0 0 0 0 0 0.08 0"/>
<feBlend mode="normal" in2="effect1_backgroundBlur_33_198" result="effect2_dropShadow_33_198"/>
<feBlend mode="normal" in="SourceGraphic" in2="effect2_dropShadow_33_198" result="shape"/>
<feColorMatrix in="SourceAlpha" type="matrix" values="0 0 0 0 0 0 0 0 0 0 0 0 0 0 0 0 0 0 127 0" result="hardAlpha"/>
<feOffset/>
<feGaussianBlur stdDeviation="4"/>
<feComposite in2="hardAlpha" operator="arithmetic" k2="-1" k3="1"/>
<feColorMatrix type="matrix" values="0 0 0 0 0.744549 0 0 0 0 0.0509804 0 0 0 0 0.988235 0 0 0 0.32 0"/>
<feBlend mode="normal" in2="shape" result="effect3_innerShadow_33_198"/>
</filter>
<filter id="filter1_f_33_198" x="4" y="36" width="59" height="49" filterUnits="userSpaceOnUse" color-interpolation-filters="sRGB">
<feFlood flood-opacity="0" result="BackgroundImageFix"/>
<feBlend mode="normal" in="SourceGraphic" in2="BackgroundImageFix" result="shape"/>
<feGaussianBlur stdDeviation="9" result="effect1_foregroundBlur_33_198"/>
</filter>
<linearGradient id="paint0_linear_33_198" x1="9" y1="13" x2="73" y2="77" gradientUnits="userSpaceOnUse">
<stop stop-color="#F8FBFF"/>
<stop offset="1" stop-color="white" stop-opacity="0"/>
</linearGradient>
<linearGradient id="paint1_linear_33_198" x1="10.3333" y1="11.6667" x2="71" y2="77" gradientUnits="userSpaceOnUse">
<stop stop-color="#D8D8D8" stop-opacity="0.05"/>
<stop offset="1" stop-color="white" stop-opacity="0.4"/>
</linearGradient>
<clipPath id="clip0_33_198">
<rect x="9" y="13" width="64" height="64" rx="12" fill="white"/>
</clipPath>
</defs>
</svg>
