<svg width="86" height="86" viewBox="0 0 86 86" fill="none" xmlns="http://www.w3.org/2000/svg">
<g filter="url(#filter0_bdi_34_264)">
<g clip-path="url(#clip0_34_264)">
<rect x="9" y="13" width="52" height="52" rx="12" fill="url(#paint0_linear_34_264)" fill-opacity="0.04" shape-rendering="crispEdges"/>
<g clip-path="url(#clip1_34_264)">
<path d="M38.041 56.1348C37.0966 57.282 35.1817 56.6534 35.159 55.1886L34.8262 33.7634H49.7612C52.4663 33.7634 53.975 36.7772 52.2929 38.8208L38.041 56.1348Z" fill="url(#paint1_linear_34_264)"/>
<path d="M38.041 56.1348C37.0966 57.282 35.1817 56.6534 35.159 55.1886L34.8262 33.7634H49.7612C52.4663 33.7634 53.975 36.7772 52.2929 38.8208L38.041 56.1348Z" fill="url(#paint2_linear_34_264)" fill-opacity="0.2"/>
<path d="M31.9671 21.6598C32.9115 20.5124 34.8264 21.1411 34.8492 22.606L34.995 44.0311H20.247C17.5418 44.0311 16.033 41.0173 17.7152 38.9737L31.9671 21.6598Z" fill="#3ECF8E"/>
</g>
<g filter="url(#filter1_f_34_264)">
<ellipse cx="33.5" cy="60.5" rx="11.5" ry="6.5" fill="#28DD43"/>
</g>
</g>
<rect x="9" y="13" width="52" height="52" rx="12" stroke="url(#paint3_linear_34_264)" stroke-opacity="0.5" stroke-width="0.8" shape-rendering="crispEdges"/>
</g>
<defs>
<filter id="filter0_bdi_34_264" x="-11.4" y="-7.40002" width="96.8" height="92.8" filterUnits="userSpaceOnUse" color-interpolation-filters="sRGB">
<feFlood flood-opacity="0" result="BackgroundImageFix"/>
<feGaussianBlur in="BackgroundImageFix" stdDeviation="10"/>
<feComposite in2="SourceAlpha" operator="in" result="effect1_backgroundBlur_34_264"/>
<feColorMatrix in="SourceAlpha" type="matrix" values="0 0 0 0 0 0 0 0 0 0 0 0 0 0 0 0 0 0 127 0" result="hardAlpha"/>
<feOffset dx="8" dy="4"/>
<feGaussianBlur stdDeviation="8"/>
<feComposite in2="hardAlpha" operator="out"/>
<feColorMatrix type="matrix" values="0 0 0 0 0 0 0 0 0 0 0 0 0 0 0 0 0 0 0.08 0"/>
<feBlend mode="normal" in2="effect1_backgroundBlur_34_264" result="effect2_dropShadow_34_264"/>
<feBlend mode="normal" in="SourceGraphic" in2="effect2_dropShadow_34_264" result="shape"/>
<feColorMatrix in="SourceAlpha" type="matrix" values="0 0 0 0 0 0 0 0 0 0 0 0 0 0 0 0 0 0 127 0" result="hardAlpha"/>
<feOffset/>
<feGaussianBlur stdDeviation="4"/>
<feComposite in2="hardAlpha" operator="arithmetic" k2="-1" k3="1"/>
<feColorMatrix type="matrix" values="0 0 0 0 0.0509804 0 0 0 0 0.988235 0 0 0 0 0.144706 0 0 0 0.32 0"/>
<feBlend mode="normal" in2="shape" result="effect3_innerShadow_34_264"/>
</filter>
<filter id="filter1_f_34_264" x="4" y="36" width="59" height="49" filterUnits="userSpaceOnUse" color-interpolation-filters="sRGB">
<feFlood flood-opacity="0" result="BackgroundImageFix"/>
<feBlend mode="normal" in="SourceGraphic" in2="BackgroundImageFix" result="shape"/>
<feGaussianBlur stdDeviation="9" result="effect1_foregroundBlur_34_264"/>
</filter>
<linearGradient id="paint0_linear_34_264" x1="9" y1="13" x2="61" y2="65" gradientUnits="userSpaceOnUse">
<stop stop-color="#F8FBFF"/>
<stop offset="1" stop-color="white" stop-opacity="0"/>
</linearGradient>
<linearGradient id="paint1_linear_34_264" x1="34.8262" y1="38.5139" x2="47.9531" y2="44.2213" gradientUnits="userSpaceOnUse">
<stop stop-color="#249361"/>
<stop offset="1" stop-color="#3ECF8E"/>
</linearGradient>
<linearGradient id="paint2_linear_34_264" x1="28.9414" y1="30.7417" x2="34.6614" y2="41.9045" gradientUnits="userSpaceOnUse">
<stop/>
<stop offset="1" stop-opacity="0"/>
</linearGradient>
<linearGradient id="paint3_linear_34_264" x1="10.0833" y1="11.9167" x2="59.375" y2="65" gradientUnits="userSpaceOnUse">
<stop stop-color="#D8D8D8" stop-opacity="0.05"/>
<stop offset="1" stop-color="white" stop-opacity="0.4"/>
</linearGradient>
<clipPath id="clip0_34_264">
<rect x="9" y="13" width="52" height="52" rx="12" fill="white"/>
</clipPath>
<clipPath id="clip1_34_264">
<rect width="36" height="36" fill="white" transform="translate(17 21)"/>
</clipPath>
</defs>
</svg>
