<svg width="89" height="90" viewBox="0 0 89 90" fill="none" xmlns="http://www.w3.org/2000/svg">
<g filter="url(#filter0_bdi_5_5564)">
<g clip-path="url(#clip0_5_5564)">
<rect x="8.5" y="13" width="56" height="56" rx="12" fill="url(#paint0_linear_5_5564)" fill-opacity="0.04" shape-rendering="crispEdges"/>
<g clip-path="url(#clip1_5_5564)">
<path d="M24.8759 36.2188H52.9081V56.9384H24.8759V36.2188Z" fill="white"/>
<path d="M18.9219 40.9747V58.5528H54.0781V23.3966H18.9219V40.9747ZM47.2522 39.5684C48.0942 39.7638 48.8595 40.2042 49.4516 40.8341C49.7775 41.1734 50.0608 41.5512 50.2953 41.9591C50.2953 42.0041 48.7766 43.0306 47.8512 43.6044C47.8175 43.6269 47.6825 43.4806 47.5334 43.2584C47.3645 42.967 47.1245 42.723 46.8358 42.5494C46.5471 42.3758 46.2191 42.2782 45.8825 42.2656C44.8166 42.1925 44.1303 42.7522 44.1359 43.6719C44.1271 43.9009 44.1796 44.128 44.2878 44.33C44.5212 44.8166 44.9572 45.1062 46.3241 45.6969C48.8412 46.7797 49.9184 47.4941 50.5878 48.5094C51.3359 49.6344 51.5019 51.4512 50.9956 52.7956C50.4331 54.2581 49.055 55.2509 47.1059 55.58C46.2157 55.682 45.3163 55.6725 44.4284 55.5519C43.0677 55.3276 41.8142 54.6742 40.8509 53.6872C40.5275 53.33 39.8975 52.3991 39.9369 52.3316C40.0395 52.2553 40.1476 52.1867 40.2603 52.1262L41.5625 51.4062L42.5722 50.8212L42.7831 51.1334C43.1391 51.6427 43.5922 52.0766 44.1163 52.4103C45.2413 53.0009 46.7769 52.9194 47.5362 52.2359C47.7912 51.9855 47.9503 51.6536 47.9857 51.298C48.0212 50.9423 47.9308 50.5855 47.7303 50.2897C47.4491 49.8987 46.8866 49.5697 45.3144 48.8834C43.5003 48.1016 42.7184 47.6178 42.0041 46.8472C41.5581 46.3387 41.2288 45.7387 41.0394 45.0894C40.8981 44.3476 40.8772 43.5878 40.9775 42.8394C41.3516 41.0872 42.665 39.8637 44.5831 39.5009C45.4714 39.391 46.3712 39.4157 47.2522 39.5741V39.5684ZM39.0003 41.0422V42.4822H34.4356V55.4844H31.1984V42.4794H26.6225V41.0731C26.6082 40.5882 26.6195 40.1028 26.6562 39.6191C26.6788 39.5937 29.4688 39.5937 32.8438 39.5937H38.9834L39.0003 41.0422Z" fill="#007ACC"/>
</g>
<g filter="url(#filter1_f_5_5564)">
<ellipse cx="33" cy="60.5" rx="11.5" ry="6.5" fill="#0A77E8"/>
</g>
</g>
<rect x="8.5" y="13" width="56" height="56" rx="12" stroke="url(#paint1_linear_5_5564)" stroke-opacity="0.5" stroke-width="0.8" shape-rendering="crispEdges"/>
</g>
<defs>
<filter id="filter0_bdi_5_5564" x="-11.9" y="-7.39999" width="100.8" height="96.8" filterUnits="userSpaceOnUse" color-interpolation-filters="sRGB">
<feFlood flood-opacity="0" result="BackgroundImageFix"/>
<feGaussianBlur in="BackgroundImageFix" stdDeviation="10"/>
<feComposite in2="SourceAlpha" operator="in" result="effect1_backgroundBlur_5_5564"/>
<feColorMatrix in="SourceAlpha" type="matrix" values="0 0 0 0 0 0 0 0 0 0 0 0 0 0 0 0 0 0 127 0" result="hardAlpha"/>
<feOffset dx="8" dy="4"/>
<feGaussianBlur stdDeviation="8"/>
<feComposite in2="hardAlpha" operator="out"/>
<feColorMatrix type="matrix" values="0 0 0 0 0 0 0 0 0 0 0 0 0 0 0 0 0 0 0.08 0"/>
<feBlend mode="normal" in2="effect1_backgroundBlur_5_5564" result="effect2_dropShadow_5_5564"/>
<feBlend mode="normal" in="SourceGraphic" in2="effect2_dropShadow_5_5564" result="shape"/>
<feColorMatrix in="SourceAlpha" type="matrix" values="0 0 0 0 0 0 0 0 0 0 0 0 0 0 0 0 0 0 127 0" result="hardAlpha"/>
<feOffset/>
<feGaussianBlur stdDeviation="4"/>
<feComposite in2="hardAlpha" operator="arithmetic" k2="-1" k3="1"/>
<feColorMatrix type="matrix" values="0 0 0 0 0.158333 0 0 0 0 0.495 0 0 0 0 1 0 0 0 0.32 0"/>
<feBlend mode="normal" in2="shape" result="effect3_innerShadow_5_5564"/>
</filter>
<filter id="filter1_f_5_5564" x="3.5" y="36" width="59" height="49" filterUnits="userSpaceOnUse" color-interpolation-filters="sRGB">
<feFlood flood-opacity="0" result="BackgroundImageFix"/>
<feBlend mode="normal" in="SourceGraphic" in2="BackgroundImageFix" result="shape"/>
<feGaussianBlur stdDeviation="9" result="effect1_foregroundBlur_5_5564"/>
</filter>
<linearGradient id="paint0_linear_5_5564" x1="8.5" y1="13" x2="64.5" y2="69" gradientUnits="userSpaceOnUse">
<stop stop-color="#F8FBFF"/>
<stop offset="1" stop-color="white" stop-opacity="0"/>
</linearGradient>
<linearGradient id="paint1_linear_5_5564" x1="9.66667" y1="11.8333" x2="62.75" y2="69" gradientUnits="userSpaceOnUse">
<stop stop-color="#D8D8D8" stop-opacity="0.05"/>
<stop offset="1" stop-color="white" stop-opacity="0.4"/>
</linearGradient>
<clipPath id="clip0_5_5564">
<rect x="8.5" y="13" width="56" height="56" rx="12" fill="white"/>
</clipPath>
<clipPath id="clip1_5_5564">
<rect width="36" height="36" fill="white" transform="translate(18.5 23)"/>
</clipPath>
</defs>
</svg>
