<svg width="39" height="30" viewBox="0 0 39 30" fill="none" xmlns="http://www.w3.org/2000/svg">
<rect x="0.4104" y="0.410461" width="38.1734" height="28.6301" rx="1.80347" fill="#2B9F5A"/>
<path fill-rule="evenodd" clip-rule="evenodd" d="M19.4971 3.9892L3.98917 14.7255L19.4971 25.4617L35.0051 14.7255L19.4971 3.9892Z" fill="#FFD018"/>
<path d="M26.6546 14.7254C26.6546 18.6784 23.4501 21.883 19.4971 21.883C15.5441 21.883 12.3396 18.6784 12.3396 14.7254C12.3396 10.7725 15.5441 7.56793 19.4971 7.56793C23.4501 7.56793 26.6546 10.7725 26.6546 14.7254Z" fill="#2E4E9D"/>
<mask id="mask0_74_270" style="mask-type:alpha" maskUnits="userSpaceOnUse" x="12" y="7" width="15" height="15">
<path d="M26.6546 14.7254C26.6546 18.6784 23.4501 21.883 19.4971 21.883C15.5441 21.883 12.3396 18.6784 12.3396 14.7254C12.3396 10.7725 15.5441 7.56793 19.4971 7.56793C23.4501 7.56793 26.6546 10.7725 26.6546 14.7254Z" fill="#41479B"/>
</mask>
<g mask="url(#mask0_74_270)">
<path fill-rule="evenodd" clip-rule="evenodd" d="M11.2446 13.2289L11.1467 12.3396C11.0485 11.4503 11.0487 11.4503 11.0489 11.4503L11.0547 11.4496L11.0687 11.4482L11.1192 11.443C11.1628 11.4386 11.226 11.4326 11.307 11.4255C11.469 11.4112 11.7028 11.3925 11.9955 11.3745C12.5804 11.3383 13.4032 11.3042 14.3599 11.312C16.2593 11.3274 18.7467 11.5078 20.9571 12.1993C23.1522 12.8859 25.0203 13.9474 26.3333 14.8293C26.9919 15.2716 27.5163 15.6724 27.8784 15.9647C28.0595 16.111 28.2004 16.2304 28.2975 16.3146C28.346 16.3567 28.3836 16.39 28.4099 16.4136L28.4408 16.4414L28.4497 16.4496L28.4526 16.4522C28.4527 16.4523 28.4543 16.4538 27.8475 17.1113C27.2408 17.7688 27.2409 17.7689 27.2411 17.769L27.2369 17.7653L27.2161 17.7465C27.1967 17.7291 27.1662 17.702 27.125 17.6664C27.0427 17.595 26.918 17.4891 26.7543 17.357C26.4267 17.0925 25.9445 16.7236 25.3357 16.3147C24.1137 15.494 22.403 14.5265 20.4229 13.9071C18.4582 13.2925 16.1739 13.1161 14.3454 13.1013C13.4382 13.0939 12.658 13.1263 12.1059 13.1604C11.8301 13.1775 11.6119 13.1949 11.464 13.2079C11.3901 13.2144 11.3338 13.2199 11.2967 13.2235L11.2557 13.2277L11.2446 13.2289Z" fill="#F5F8FB"/>
</g>
<path d="M17.1113 17.7077C17.1113 18.0371 16.8442 18.3042 16.5148 18.3042C16.1854 18.3042 15.9183 18.0371 15.9183 17.7077C15.9183 17.3783 16.1854 17.1113 16.5148 17.1113C16.8442 17.1113 17.1113 17.3783 17.1113 17.7077Z" fill="#F5F8FB"/>
<path d="M20.69 18.9007C20.69 19.2301 20.423 19.4971 20.0936 19.4971C19.7641 19.4971 19.4971 19.2301 19.4971 18.9007C19.4971 18.5712 19.7641 18.3042 20.0936 18.3042C20.423 18.3042 20.69 18.5712 20.69 18.9007Z" fill="#F5F8FB"/>
<path d="M23.0759 17.7077C23.0759 18.0371 22.8088 18.3042 22.4794 18.3042C22.15 18.3042 21.8829 18.0371 21.8829 17.7077C21.8829 17.3783 22.15 17.1113 22.4794 17.1113C22.8088 17.1113 23.0759 17.3783 23.0759 17.7077Z" fill="#F5F8FB"/>
</svg>
