<svg width="41" height="31" viewBox="0 0 41 31" fill="none" xmlns="http://www.w3.org/2000/svg">
<rect x="0.913269" y="0.410461" width="39.6763" height="27.2775" fill="#F5F8FB"/>
<rect x="0.913269" y="0.410461" width="22.3179" height="17.3584" fill="#2E4E9D"/>
<rect x="23.2312" y="0.410461" width="17.3584" height="2.47977" fill="#DC251C"/>
<rect x="23.2312" y="5.37" width="17.3584" height="2.47977" fill="#DC251C"/>
<rect x="23.2312" y="10.3295" width="17.3584" height="2.47977" fill="#DC251C"/>
<rect x="23.2312" y="15.2891" width="17.3584" height="2.47977" fill="#DC251C"/>
<rect x="0.913269" y="20.2486" width="39.6763" height="2.47977" fill="#DC251C"/>
<rect x="0.913269" y="25.2081" width="39.6763" height="2.47977" fill="#DC251C"/>
<rect x="3.39304" y="2.8902" width="2.47977" height="2.47977" fill="#C5D0EC"/>
<rect x="8.3526" y="2.8902" width="2.47977" height="2.47977" fill="#C5D0EC"/>
<rect x="13.3121" y="2.8902" width="2.47977" height="2.47977" fill="#C5D0EC"/>
<rect x="18.2717" y="2.8902" width="2.47977" height="2.47977" fill="#C5D0EC"/>
<rect x="3.39304" y="7.84973" width="2.47977" height="2.47977" fill="#C5D0EC"/>
<rect x="8.3526" y="7.84973" width="2.47977" height="2.47977" fill="#C5D0EC"/>
<rect x="13.3121" y="7.84973" width="2.47977" height="2.47977" fill="#C5D0EC"/>
<rect x="5.8728" y="10.3295" width="2.47977" height="2.47977" fill="#C5D0EC"/>
<rect x="10.8324" y="10.3295" width="2.47977" height="2.47977" fill="#C5D0EC"/>
<rect x="15.7919" y="10.3295" width="2.47977" height="2.47977" fill="#C5D0EC"/>
<rect x="5.8728" y="5.37" width="2.47977" height="2.47977" fill="#C5D0EC"/>
<rect x="10.8324" y="5.37" width="2.47977" height="2.47977" fill="#C5D0EC"/>
<rect x="15.7919" y="5.37" width="2.47977" height="2.47977" fill="#C5D0EC"/>
<rect x="18.2717" y="7.84973" width="2.47977" height="2.47977" fill="#C5D0EC"/>
<rect x="3.39304" y="12.8093" width="2.47977" height="2.47977" fill="#C5D0EC"/>
<rect x="8.3526" y="12.8093" width="2.47977" height="2.47977" fill="#C5D0EC"/>
<rect x="13.3121" y="12.8093" width="2.47977" height="2.47977" fill="#C5D0EC"/>
<rect x="18.2717" y="12.8093" width="2.47977" height="2.47977" fill="#C5D0EC"/>
</svg>
