<svg width="56" height="56" viewBox="0 0 56 56" fill="none" xmlns="http://www.w3.org/2000/svg">
<path d="M2.76929 29.0369V54.2894H53.5455V28.9406C53.5455 28.9406 43.3868 21.9319 42.9187 21.8662C42.4505 21.8006 28.8049 9.31 28.8049 9.31L13.7637 21.4419L2.76929 29.0369Z" fill="#F8C778"/>
<path d="M2.76929 29.0106H14.7568L14.7437 54.2631H16.7343L16.7474 23.52L28.5074 13.1688L40.3724 24.0188L40.3418 54.2631H42.2055L42.2362 28.8663L53.5455 28.945V27.4356L43.2293 21.9056L29.4305 9.7825L14.1968 21.6562L2.77804 27.5669L2.76929 29.0106Z" fill="#F5B03F"/>
<path d="M5.73122 18.6244C5.65247 18.7512 2.6031 27.16 2.54622 27.335C2.48935 27.51 2.63372 27.7156 2.98372 27.7462C3.33372 27.7769 15.4043 27.7462 15.4043 27.7462L15.3693 22.5925C15.3693 22.5925 28.3281 10.9287 28.4725 10.9287C28.6168 10.9287 41.6762 22.8944 41.7068 23.0737C41.7375 23.2487 41.7637 27.545 41.7637 27.545C41.7637 27.545 53.2481 27.6325 53.4843 27.6631C53.7206 27.6937 53.7775 27.37 53.5718 26.7575C53.3662 26.145 50.9687 18.7512 50.7937 18.6331C50.6187 18.515 41.1512 18.515 41.1512 18.515C41.1512 18.515 29.2906 7.59499 29.085 7.41999C28.8793 7.24499 28.2668 6.97811 27.7243 7.52061C27.2475 7.99749 15.4175 18.6025 15.4175 18.6025C15.4175 18.6025 5.81872 18.4756 5.73122 18.6244Z" fill="#A62714"/>
<path d="M19.2107 35.2581L19.2063 54.2806H37.7388V35.2581C37.7388 35.2581 19.2107 35.21 19.2107 35.2581Z" fill="#CF6150"/>
<path d="M1.59255 54.3594C1.75443 54.6044 3.64443 54.4906 8.68005 54.5169C13.7157 54.5431 15.1813 54.5344 15.4438 54.4819C15.7019 54.4294 15.9119 53.2962 15.7413 52.3119C15.5532 51.2312 14.9057 50.2119 13.8557 49.8837C12.4513 49.4462 11.5851 49.8487 10.9113 49.6125C10.2376 49.3806 8.26443 48.3919 6.26505 48.5231C4.55005 48.6325 3.32943 49.1356 2.2663 50.7019C1.12443 52.3862 1.48755 54.2019 1.59255 54.3594Z" fill="#7DB240"/>
<path d="M55.1643 54.2544C55.4224 54.075 55.4006 49.105 51.9443 48.7244C49.3499 48.44 48.6718 49.5556 48.2343 49.5556C47.7924 49.5556 46.1124 48.7375 43.7937 49.6344C40.9106 50.75 40.9631 53.9963 41.0681 54.3069C41.1731 54.6175 44.1568 54.5388 48.2562 54.565C52.3556 54.5913 54.8274 54.4906 55.1643 54.2544Z" fill="#7DB240"/>
<path d="M5.06177 30.4631H13.2386V37.0475H4.95239C4.95239 37.0475 5.00489 30.5156 5.06177 30.4631Z" fill="#3E737C"/>
<path d="M4.95257 40.1231H13.0944V46.4931H4.88257C4.88257 46.4975 4.91757 40.0881 4.95257 40.1231Z" fill="#3E737C"/>
<path d="M6.30004 31.6663H11.8563V36.0194H6.23004C6.23004 36.0194 6.19067 31.7013 6.30004 31.6663Z" fill="#A7D0D7"/>
<path d="M6.05054 41.1863H11.9262V45.3994H6.05054V41.1863Z" fill="#A7D0D7"/>
<path d="M43.6056 30.8525H51.7474V37.4019H43.5706C43.5706 37.4019 43.6056 30.7475 43.6056 30.8525Z" fill="#3E737C"/>
<path d="M44.7388 31.9856H50.5794V36.2337H44.7388V31.9856Z" fill="#A7D0D7"/>
<path d="M43.5006 40.5125H51.6075V46.7075H43.5006C43.5006 46.7075 43.4481 40.5694 43.5006 40.5125Z" fill="#3E737C"/>
<path d="M44.7738 41.6456V45.4694H50.3301V41.6106C50.3301 41.6106 44.7213 41.5931 44.7738 41.6456Z" fill="#A7D0D7"/>
<path d="M21.9013 54.2894L21.897 37.3319H35.2407V54.2894H21.9013Z" fill="#3E737C"/>
<path d="M33.6611 40.7925V38.5613H23.5461V40.7925H33.6611Z" fill="#A7D0D7"/>
<path d="M23.5461 41.9081H33.6611V47.7138H23.5461V41.9081Z" fill="#A7D0D7"/>
<path d="M23.5461 48.9081H33.6611V51.9444H23.5461V48.9081Z" fill="#A7D0D7"/>
<path d="M28.1226 41.4094V52.8325H29.2776V41.2913C29.2776 41.2913 28.2013 41.4094 28.1226 41.4094Z" fill="#3E737C"/>
<path d="M28.2013 17.5263C23.6644 17.5656 20.6238 20.9475 20.8557 25.2963C21.0788 29.5225 24.4344 32.1738 28.315 32.0644C32.3925 31.9506 35.315 28.6781 35.4288 24.7975C35.5425 20.9169 32.3925 17.4913 28.2013 17.5263Z" fill="#3E737C"/>
<path d="M28.0875 18.8344C24.395 18.8344 21.9319 21.6431 22.0894 25.025C22.2382 28.2887 24.4344 30.7562 28.2057 30.7562C31.6663 30.7562 33.9413 27.9125 34.0113 24.9856C34.0857 21.7919 31.7013 18.8344 28.0875 18.8344Z" fill="white"/>
<path d="M27.0114 25.1387C27.0114 25.1387 24.8676 26.9412 24.7495 27.1512C24.6314 27.3612 24.6357 27.7069 24.9201 27.9387C25.2089 28.1706 25.4932 28.035 25.6682 27.8994C25.8389 27.7637 28.1007 25.9087 28.1007 25.9087C28.1007 25.9087 28.8314 25.8956 29.002 25.0294C29.1376 24.3381 28.6389 24.0144 28.6389 24.0144C28.6389 24.0144 28.5601 19.8756 28.5251 19.5694C28.4945 19.3419 28.2582 19.1275 28.0482 19.1494C27.8382 19.1669 27.6282 19.285 27.6064 19.6262C27.5845 19.9675 27.5626 23.9312 27.5626 23.9312C27.5626 23.9312 27.2564 24.045 27.0857 24.3731C26.9151 24.6969 27.0114 25.1387 27.0114 25.1387Z" fill="#2F2F2F"/>
</svg>
